/* XPM */
static char *result[] = {
/* columns rows colors chars-per-pixel */
"64 64 177 2 ",
"   c black",
".  c #330033",
"X  c #1C1C54",
"o  c #2C1B43",
"O  c #2E174B",
"+  c #2D1E4B",
"@  c #301A44",
"#  c #35154A",
"$  c #371D48",
"%  c #381850",
"&  c #282849",
"*  c #3A2346",
"=  c #33234D",
"-  c #38254B",
";  c #3A284F",
":  c #3A2D5A",
">  c #3E3358",
",  c #2C1663",
"<  c #252B64",
"1  c #213678",
"2  c #323773",
"3  c #461A46",
"4  c #572951",
"5  c #44355F",
"6  c #573258",
"7  c #6E304D",
"8  c #463862",
"9  c #463B6B",
"0  c #7B5652",
"q  c #4D4165",
"w  c #464069",
"e  c #4A426C",
"r  c #544466",
"t  c #564A6D",
"y  c #4E4677",
"u  c #4F4A73",
"i  c #544D7E",
"p  c #575277",
"a  c #56547D",
"s  c #625372",
"d  c #665B79",
"f  c #6C5D7A",
"g  c #6E617D",
"h  c #85414D",
"j  c #A9535D",
"k  c #886255",
"l  c #956D58",
"z  c #A45276",
"x  c #BC6A60",
"c  c #D26354",
"v  c #CC716A",
"b  c #D77B74",
"n  c #E0796A",
"m  c #E49562",
"M  c #E18274",
"N  c #F0B66A",
"B  c #2E178B",
"V  c #1E3D85",
"C  c #0000BF",
"Z  c #3A5A94",
"A  c #1652AC",
"S  c #316FBB",
"D  c #3876BF",
"F  c #544E84",
"G  c #5D5D86",
"H  c #5A578A",
"J  c #40639B",
"K  c #5E6C93",
"L  c #597096",
"P  c #676585",
"I  c #68678A",
"U  c #7B6F89",
"Y  c #646692",
"T  c #676B99",
"R  c #6A7399",
"E  c #727292",
"W  c #777B9B",
"Q  c #5E7AA0",
"!  c #6B6FA2",
"~  c #6F7AA2",
"^  c #717AA3",
"/  c #7474AD",
"(  c #A75D80",
")  c #887E94",
"_  c #A96889",
"`  c #A77698",
"'  c #6E81A3",
"]  c #6584AA",
"[  c #7982A5",
"{  c #7A86AC",
"}  c #7E89BF",
"|  c #5692CD",
" . c #6599C5",
".. c #7B99CB",
"X. c #609FD4",
"o. c #77ABCF",
"O. c #62A2D5",
"+. c #6FA7D0",
"@. c #69A9D9",
"#. c #75B0D9",
"$. c #76B7E1",
"%. c #86849D",
"&. c #8587A5",
"*. c #968CA0",
"=. c #9191A8",
"-. c #808CB1",
";. c #8F9EBD",
":. c #919EBC",
">. c #A39AAB",
",. c #B399B4",
"<. c #E89886",
"1. c #EDBC8B",
"2. c #EAA094",
"3. c #8A99C9",
"4. c #97A4CA",
"5. c #94A7D2",
"6. c #99ACD5",
"7. c #8BB7DE",
"8. c #9CB6DC",
"9. c #9FB8DD",
"0. c #BAAAC2",
"q. c #BEB7C8",
"w. c #A2ACD1",
"e. c #AAB6D8",
"r. c #A3BBDE",
"t. c #8EBAE0",
"y. c #A3BDE0",
"u. c #BFC0D5",
"i. c #8FC2E5",
"p. c #89C7E9",
"a. c #8DC9EA",
"s. c #94C5E6",
"d. c #91CBEA",
"f. c #9CCCEA",
"g. c #9ED0EC",
"h. c #99D9EA",
"j. c #A5C2E2",
"k. c #AAC4E3",
"l. c #A7C9E6",
"z. c #AEC8E5",
"x. c #A6CDE9",
"c. c #B1CBE7",
"v. c #B4CEE8",
"b. c #A6D4ED",
"n. c #AAD5EE",
"m. c #B6D2EA",
"M. c #BBD4EB",
"N. c #B5DAEF",
"B. c #BCD9ED",
"V. c #BEDEF0",
"C. c #C5C0C9",
"Z. c #C9C4CD",
"A. c #C7CAD7",
"S. c #D1CCD3",
"D. c #C9D1DE",
"F. c #DCD9D1",
"G. c #F4CDC5",
"H. c #EAD7D7",
"J. c #F1D9D2",
"K. c #F8E1DB",
"L. c #C6D7E9",
"P. c #C2DBEE",
"I. c #C4DFF0",
"U. c #C3E1F2",
"Y. c #C9E3F2",
"T. c #D2E5F2",
"R. c #DBE6F1",
"E. c #D4E8F4",
"W. c #DBEBF5",
"Q. c #EEE5E5",
"!. c #E0EEF6",
"~. c #E4F1F7",
"^. c #EBF5F8",
"/. c #FDF9F5",
"(. c #F1F7F9",
"). c #F3F9FA",
"_. c #FFFFFC",
/* pixels */
"h.h.h.h.h.h.h.h.h.h.h.h.h.h.h.h.h.h.h.h.h.h.h.h.h.h.h.h.h.h.h.h.h.h.h.h.h.h.h.h.h.h.h.h.h.h.h.h.h.h.h.h.h.h.h.h.h.h.h.h.h.h.h.h.",
"h.h.h.h.h.h.h.h.h.h.h.h.h.h.h.h.h.h.h.h.h.h.h.h.h.h.h.h.h.h.h.h.h.h.h.h.h.h.h.h.h.h.h.h.h.h.h.h.h.h.h.h.h.h.h.h.h.h.h.h.h.h.h.h.",
"h.h.h.h.h.h.h.h.h.h.h.h.h.h.h.h.h.h.h.h.h.h.h.h.h.h.h.h.h.h.h.h.h.h.h.h.h.h.h.h.h.h.h.h.h.h.h.h.h.h.h.h.h.h.h.h.h.h.h.h.h.h.h.h.",
"h.h.h.h.h.h.h.h.h.h.h.h.h.h.h.h.h.h.h.h.h.h.h.h.h.h.h.h.h.h.h.h.h.h.h.h.h.h.h.h.h.h.h.h.h.h.h.h.h.h.h.h.h.h.h.h.h.h.h.h.h.h.h.h.",
"h.h.h.h.h.h.h.h.h.h.h.h.h.h.h.h.h.h.h.h.h.h.h.h.h.h.h.h.h.h.h.h.h.h.h.h.h.h.h.h.h.h.h.h.h.h.h.h.h.h.h.h.h.h.h.h.h.h.h.h.h.h.h.h.",
"h.h.h.h.h.h.h.h.h.h.h.h.h.h.h.h.h.h.h.h.h.h.h.h.h.h.h.h.h.h.h.h.h.h.h.h.h.h.h.h.h.h.h.h.h.h.h.h.h.h.h.h.h.h.h.h.h.h.h.h.h.h.h.h.",
"h.h.h.h.h.h.h.h.h.h.h.h.h.h.h.h.h.h.h.h.h.h.h.h.h.h.h.h.h.h.h.h.h.h.h.h.h.h.h.h.h.h.h.h.h.h.h.h.h.h.h.h.h.h.h.h.h.h.h.h.h.h.h.h.",
"h.h.h.h.h.h.h.h.h.h.h.h.h.h.h.h.h.h.h.h.h.h.h.h.h.h.h.h.h.h.h.h.h.h.h.h.h.h.h.h.h.h.h.h.h.h.h.h.h.h.h.h.h.h.h.h.h.h.h.h.h.h.h.h.",
"h.h.h.h.h.h.h.h.h.h.h.h.h.h.h.h.h.h.h.h.h.h.h.h.h.h.h.h.h.h.h.h.h.h.h.h.h.h.h.h.h.h.h.h.h.h.h.h.h.h.h.h.h.h.h.h.h.h.h.h.h.h.h.h.",
"h.h.h.h.h.h.h.h.h.h.h.h.h.h.h.h.h.h.h.h.h.h.h.h.h.h.h.h.h.h.h.@ & h.h.h.h.h.h.h.h.h.h.h.h.h.h.h.h.h.h.h.h.h.h.h.h.h.h.h.h.h.h.h.",
"h.h.h.h.h.h.h.h.h.h.h.h.h.h.h.h.h.h.h.h.h.h.h.h.h.h.h.h.h.h.@ k l o h.h.h.h.h.h.h.h.h.h.h.h.h.h.h.h.h.h.h.h.h.h.h.h.h.h.h.h.h.h.",
"h.h.h.h.h.h.h.h.h.h.h.h.h.h.h.h.h.h.h.h.h.h.h.h.h.h.h.h.h.h.@ l l = h.h.h.h.h.h.h.h.h.h.h.h.h.h.h.h.h.h.h.h.h.h.h.h.h.h.h.h.h.h.",
"h.h.h.h.h.h.h.h.h.h.h.h.h.h.h.h.h.h.h.h.h.h.h.h.h.h.h.h.h.h.@ 7 h o h.h.h.h.h.h.h.h.h.h.h.h.h.h.h.h.h.h.h.h.h.h.h.h.h.h.h.h.h.h.",
"h.h.h.h.h.h.h.h.h.h.h.h.h.h.h.h.h.h.h.h.h.h.h.C - - * $ $ @ @ $ * o = & * * * * . h.h.h.h.h.h.h.h.h.h.h.h.h.h.h.h.h.h.h.h.h.h.h.",
"h.h.h.h.h.h.h.h.h.h.h.h.h.h.h.h.h.h.h.h.h.h.h.. 0 N m c j 6 4 x v 4 4 j c m N k = h.h.h.h.h.h.h.h.h.h.h.h.h.h.h.h.h.h.h.h.h.h.h.",
"h.h.h.h.h.h.h.h.h.h.h.h.h.h.h.h.h.h.h.h.h.h.h.h.= @ @ @ @ + $ = = = = . . & & o h.h.h.h.h.h.h.h.h.h.h.h.h.h.h.h.h.h.h.h.h.h.h.h.",
"h.h.h.h.h.h.h.h.h.h.h.h.h.h.h.h.h.h.h.h.h.h.h.h.h.h.h.@ 9 } 8.y.y.e.&.6 & h.h.h.h.h.h.h.h.h.h.h.h.h.h.h.h.h.h.h.h.h.h.h.h.h.h.h.",
"h.h.h.h.h.h.h.h.h.h.h.h.h.h.h.h.h.h.h.h.h.h.h.h.h.h.h.@ G r.R.).).!.y.G @ h.h.h.h.h.h.h.h.h.h.h.h.h.h.h.h.h.h.h.h.h.h.h.h.h.h.h.",
"h.h.h.h.h.h.h.h.h.h.h.h.h.h.h.h.h.h.h.h.h.h.h.h.h.h.B > i / 4.T.T.w./ H > & h.h.h.h.h.h.h.h.h.h.h.h.h.h.h.h.h.h.h.h.h.h.h.h.h.h.",
"h.h.h.h.h.h.h.h.h.h.h.h.h.h.h.h.h.h.h.h.h.h.h.h.h.h.@ P !._._._._._._.~.E @ h.h.h.h.h.h.h.h.h.h.h.h.h.h.h.h.h.h.h.h.h.h.h.h.h.h.",
"h.h.h.h.h.h.h.h.h.h.h.h.h.h.h.h.h.h.h.h.h.h.h.h.h.h.o P W._._._._._._.!.U o h.h.h.h.h.h.h.h.h.h.h.h.h.h.h.h.h.h.h.h.h.h.h.h.h.h.",
"h.h.h.h.h.h.h.h.h.h.h.h.h.h.h.h.h.h.h.h.h.h.h.h.h.h.@ P ~._._._._._._.~.' . h.h.h.h.h.h.h.h.h.h.h.h.h.h.h.h.h.h.h.h.h.h.h.h.h.h.",
"h.h.h.& & . o o & . . o o o o o & & & . & . & & . & @ P W._.).~.^.)._.~.E & o o o o & . . & o o . & . & o o o o o o . & &   h.h.",
"h.h.. t t r r r r t t r r r r r r q q r r r q q r r r W ~.).n.$.+.z.).!.[ q r r q q t t r r 9 r t t t r q r r r r r r r r ;   h.",
"h.# p _._._._._._.(._._._.)._._./.(.E._._._.^.W._._.^.Y.!.U.O.D Z ] U.~.Y.~._._.W.^._._._.W.^._._._.(._._._.)._._._._._._.f - h.",
"h.& _._._._.(._._.Y._./.J.F.J._._.(.E._.)._.^.W._._.^.Y.~.Y.$.@.+.#.U.~.Y.~._._.W.^._.).).W.^._._.K.F.J./._.E.)._.(._._._._.; h.",
"h.o _.(._._.Y._._.E./.G.<.1.2.Q._.(.E.(.R._.^.W._._.^.Y.!.Y.| A 1 L U.~.Y.~._._.W.^._.W.(.W.^._.K.2.1.<.G./.E.)._.T.)._.(._.; h.",
"h.o (.M.(.^.V.(.^.Y.Q.n ^.Y.H.b (.~.T.~.Y.(.!.Y.(.(.W.B.!.Y.X.S Z ] U.~.P.W.(.(.T.W.(.E.!.E.~.(.b H.T.^.M H.E.^.(.B.^.).B.^.; h.",
"h.o I.8.Y.I.p.Y.Y.Y.L.n P.Y.u.z Y.Y.Y.B.k.Y.M.k.Y.Y.v.k.~.Y.$.O. .#.U.~.z.v.Y.Y.k.M.I.k.B.I.I.Y.( q.I.Y.b A.I.Y.Y.a.V.Y.8.Y.- h.",
"h.@ I.8.Y.I.p.Y.Y.N.A.v Y.Y.q.z Y.P.B.M.j.Y.m.j.Y.Y.M.k.~.Y.O.D J ] U.~.z.v.Y.Y.k.m.I.l.B.P.I.I.( q.Y.Y.v A.N.I.I.a.V.Y.9.I.- h.",
"h.o M.8.Y.I.p.Y.U.a.L._ 0.0.,.` Y.B.j.N.f.Y.N.l.Y.Y.v.k.!.Y.#.@. .o.U.~.z.c.Y.Y.l.m.I.g.N.y.M.I.` ,.0.0.` A.d.V.Y.a.V.Y.8.N.= h.",
"h.o { 8.M.m.i.Y.I.i.Y.L._ _ ` y.Y.M.j.M.f.Y.m.f.Y.Y.v.k.!.Y.| A 1 K I.~.z.z.B.Y.x.N.I.x.N.k.N.U.l.` _ _ D.Y.s.I.Y.i.m.M.8.{ = h.",
"h.h.@ ^ 8.8.8.Y.I.r.Y.Y.Y.Y.B.y.Y.M.j.B.j.Y.M.k.Y.Y.m.k.!.!.} V < E !.!.z.8.v.Y.z.v.Y.z.M.j.M.Y.j.M.Y.Y.Y.Y.y.I.Y.9.8.8.^ = X h.",
"h.h.h.@ ~ ~ [ m.v.3.m.M.m.m.c.r.M.c.r.k.5.v.r.5.M.v.r.6.Y.).C.U U q.).Y.6.5.z.v.6.r.M.5.r.r.k.M.r.c.n.m.m.M.3.c.m.{ ^ ^ = X h.h.",
"h.h.h.h.o @ $ ~ ~ F ^ ^ ~ ] ^ ^ ^ ^ W T H ^ T H ^ ^ Y ! c.!._._._._.~.c./ Y ^ ^ H Y ^ H T ^ ^ ^ W ^ ] ^ ^ ^ F R ^ ; @ @ X h.h.h.",
"h.h.h.h.h.h.X @ @ o @ @ o o @ @ @ o @ @ @ @ @ @ o @ o p z.!._.).)._.~.c.G o @ @ @ @ o O @ @ @ @ o @ @ @ @ o $ @ @ & h.h.h.h.h.h.",
"h.h.h.h.h.h.h.h.h.h.h.h.h.h.h.h.h.h.h.h.h.h.h.h.h.h.@ p z.!._.~.~._.~.c.G O h.h.h.h.h.h.h.h.h.h.h.h.h.h.h.h.h.h.h.h.h.h.h.h.h.h.",
"h.h.h.h.h.h.h.h.h.h.h.h.h.h.h.h.h.h.h.h.h.h.h.h.h.h.@ a z.!._.~.!._.~.c.G @ h.h.h.h.h.h.h.h.h.h.h.h.h.h.h.h.h.h.h.h.h.h.h.h.h.h.",
"h.h.h.h.h.h.h.h.h.h.h.h.h.h.h.h.h.h.h.h.h.h.h.h.h.h.@ i z.!._.(.^._.~.c.G @ h.h.h.h.h.h.h.h.h.h.h.h.h.h.h.h.h.h.h.h.h.h.h.h.h.h.",
"h.h.h.h.h.h.h.h.h.h.h.h.h.h.h.h.h.h.h.h.h.h.h.h.h.h.@ a z.!._._._._.~.c.G @ h.h.h.h.h.h.h.h.h.h.h.h.h.h.h.h.h.h.h.h.h.h.h.h.h.h.",
"h.h.h.h.h.h.h.h.h.h.h.h.h.h.h.h.h.h.h.h.h.h.h.h.h.h.@ a x.!./.S.Z._.~.c.G + h.h.h.h.h.h.h.h.h.h.h.h.h.h.h.h.h.h.h.h.h.h.h.h.h.h.",
"h.h.h.h.h.h.h.h.h.h.h.h.h.h.h.h.h.h.h.h.h.h.h.h.h.h.. u ;.!.S.*.*.Z.!.4.y # h.h.h.h.h.h.h.h.h.h.h.h.h.h.h.h.h.h.h.h.h.h.h.h.h.h.",
"h.h.h.h.h.h.h.h.h.h.h.h.h.h.h.h.h.h.h.h.h.h.h.h.h.h.h.o I T.>.%.*.*.R.E @ h.h.h.h.h.h.h.h.h.h.h.h.h.h.h.h.h.h.h.h.h.h.h.h.h.h.h.",
"h.h.h.h.h.h.h.h.h.h.h.h.h.h.h.h.h.h.h.h.h.h.h.h.h.h.h.@ G L.>.t s *.L.Y @ h.h.h.h.h.h.h.h.h.h.h.h.h.h.h.h.h.h.h.h.h.h.h.h.h.h.h.",
"h.h.h.h.h.h.h.h.h.h.h.h.h.h.h.h.h.h.h.h.h.h.h.h.h.h.h.@ y w.=.s f %.e.F # h.h.h.h.h.h.h.h.h.h.h.h.h.h.h.h.h.h.h.h.h.h.h.h.h.h.h.",
"h.h.h.h.h.h.h.h.h.h.h.h.h.h.h.h.h.h.h.h.h.h.h.O = o o o 2 ..&.) *.W o.2 o @ o + o h.h.h.h.h.h.h.h.h.h.h.h.h.h.h.h.h.h.h.h.h.h.h.",
"h.h.h.h.h.h.h.h.h.h.h.h.h.h.h.h.h.h.h.h.h.@ o s >.>.>.>.:.7.' %.*.R t.;.>.>.>.>.f o o h.h.h.h.h.h.h.h.h.h.h.h.h.h.h.h.h.h.h.h.h.",
"h.h.h.h.h.h.h.h.h.h.h.h.h.h.h.h.h.h.h.h.O s >.q._._._._.~.n.R %.*.L b.~._._._._.C.>.f o h.h.h.h.h.h.h.h.h.h.h.h.h.h.h.h.h.h.h.h.",
"h.h.h.h.h.h.h.h.h.h.h.h.h.h.h.h.h.h.h.@ s Z._._._._._._.~.n.Q I E L b.~._._._._._._.Z.f % h.h.h.h.h.h.h.h.h.h.h.h.h.h.h.h.h.h.h.",
"h.h.h.h.h.h.h.h.h.h.h.h.h.h.h.h.h.h.h.% g _.).~.(.^.(.^.~.n.Q G Y K b.~.^.(.^.(.^.)./.) o h.h.h.h.h.h.h.h.h.h.h.h.h.h.h.h.h.h.h.",
"h.h.h.h.h.h.h.h.h.h.h.h.h.h.h.h.h.h.h.% d !.E.W.^.W.^.Y.T.n.Q G Y L n.E.T.~.W.~.W.R.W.P & h.h.h.h.h.h.h.h.h.h.h.h.h.h.h.h.h.h.h.",
"h.h.h.h.h.h.h.h.h.h.h.h.h.h.h.h.h.h.h., e [ z.M.I.L.E.B.m.n.R G Y K x.M.M.E.L.P.M.k.{ t 3 h.h.h.h.h.h.h.h.h.h.h.h.h.h.h.h.h.h.h.",
"h.h.h.h.h.h.h.h.h.h.h.h.h.h.h.h.h.h.h.h.# 8 u E 5.3.k.r.-.p > G Y > p { 9.k.3.5.W u 8 3 h.h.h.h.h.h.h.h.h.h.h.h.h.h.h.h.h.h.h.h.",
"h.h.h.h.h.h.h.h.h.h.h.h.h.h.h.h.h.h.h.h.h.# o 5 9 8 u u e o o y i o o w u u 9 9 8 + 3 h.h.h.h.h.h.h.h.h.h.h.h.h.h.h.h.h.h.h.h.h.",
"h.h.h.h.h.h.h.h.h.h.h.h.h.h.h.h.h.h.h.h.h.h.h.# o + o + % h.+ : : @ h.@ o + + o 3 h.h.h.h.h.h.h.h.h.h.h.h.h.h.h.h.h.h.h.h.h.h.h.",
"h.h.h.h.h.h.h.h.h.h.h.h.h.h.h.h.h.h.h.h.h.h.h.h.h.h.h.h.h.h.h.h.h.h.h.h.h.h.h.h.h.h.h.h.h.h.h.h.h.h.h.h.h.h.h.h.h.h.h.h.h.h.h.h.",
"h.h.h.h.h.h.h.h.h.h.h.h.h.h.h.h.h.h.h.h.h.h.h.h.h.h.h.h.h.h.h.h.h.h.h.h.h.h.h.h.h.h.h.h.h.h.h.h.h.h.h.h.h.h.h.h.h.h.h.h.h.h.h.h.",
"h.h.h.h.h.h.h.h.h.h.h.h.h.h.h.h.h.h.h.h.h.h.h.h.h.h.h.h.h.h.h.h.h.h.h.h.h.h.h.h.h.h.h.h.h.h.h.h.h.h.h.h.h.h.h.h.h.h.h.h.h.h.h.h.",
"h.h.h.h.h.h.h.h.h.h.h.h.h.h.h.h.h.h.h.h.h.h.h.h.h.h.h.h.h.h.h.h.h.h.h.h.h.h.h.h.h.h.h.h.h.h.h.h.h.h.h.h.h.h.h.h.h.h.h.h.h.h.h.h.",
"h.h.h.h.h.h.h.h.h.h.h.h.h.h.h.h.h.h.h.h.h.h.h.h.h.h.h.h.h.h.h.h.h.h.h.h.h.h.h.h.h.h.h.h.h.h.h.h.h.h.h.h.h.h.h.h.h.h.h.h.h.h.h.h.",
"h.h.h.h.h.h.h.h.h.h.h.h.h.h.h.h.h.h.h.h.h.h.h.h.h.h.h.h.h.h.h.h.h.h.h.h.h.h.h.h.h.h.h.h.h.h.h.h.h.h.h.h.h.h.h.h.h.h.h.h.h.h.h.h.",
"h.h.h.h.h.h.h.h.h.h.h.h.h.h.h.h.h.h.h.h.h.h.h.h.h.h.h.h.h.h.h.h.h.h.h.h.h.h.h.h.h.h.h.h.h.h.h.h.h.h.h.h.h.h.h.h.h.h.h.h.h.h.h.h.",
"h.h.h.h.h.h.h.h.h.h.h.h.h.h.h.h.h.h.h.h.h.h.h.h.h.h.h.h.h.h.h.h.h.h.h.h.h.h.h.h.h.h.h.h.h.h.h.h.h.h.h.h.h.h.h.h.h.h.h.h.h.h.h.h.",
"h.h.h.h.h.h.h.h.h.h.h.h.h.h.h.h.h.h.h.h.h.h.h.h.h.h.h.h.h.h.h.h.h.h.h.h.h.h.h.h.h.h.h.h.h.h.h.h.h.h.h.h.h.h.h.h.h.h.h.h.h.h.h.h."
};
