/* XPM */
static char *result[] = {
/* columns rows colors chars-per-pixel */
"64 64 8 1 ",
"  c #5D2C28",
". c #37474F",
"X c #8A4836",
"o c #BF6F4A",
"O c #E69C69",
"+ c #99D9EA",
"@ c #DEF2FF",
"# c white",
/* pixels */
"++++++++++++++++++++++++++++++++++++++++++++++++++++++++++++++++",
"++++++++++++++++++++++++++++++++++++++++++++++++++++++++++++++++",
"++++++++++++++++++++++++++++++++++++++++++++++++++++++++++++++++",
"++++++++++++++++++++++++++++++++++++++++++++++++++++++++++++++++",
"++++++++++++++++++++++++++++++++++++++++++++++++++++++++++++++++",
"++++++++++++++++++++++++++++++++++++++++++++++++++++++++++++++++",
"++++++++++++++++++++++++.................+++++++++++++++++++++++",
"++++++++++++++++++++++++.XXXXXXXXXXXXXXX.+++++++++++++++++++++++",
"++++++++++++++++++++++++.XXXXXXXXXXXXXXX.+++++++++++++++++++++++",
"++++++++++++++++++++++++.XXXXXXXXXXXXXXX.+++++++++++++++++++++++",
"++++++++++++++++++++++++.XXXXXXXXXXXXXXX.+++++++++++++++++++++++",
"++++++++++++++++++++++++.XXX         OXX.+++++++++++++++++++++++",
"++++++++++++++++++++++++.XXX oo oo ooOXX.+++++++++++++++++++++++",
"++++++++++++++++++++++++.XXX oo oo ooOXO.+++++++++++++++++++++++",
"++++++++++++++++++++++++.XXX oo oo ooOX .+++++++++++++++++++++++",
"++++++++++++++++++++++++.XXX oo oo ooOX .+++++++++++++++++++++++",
"++++++++++++++++++++++++.XXX oo oo ooOX .+++++++++++++++++++++++",
"++++++++++++++++++++++++.XXX oo oo ooOX .+++++++++++++++++++++++",
"++++++++++++++++++++++++.XXX oo oo ooOXX.+++++++++++++++++++++++",
"++++++++++++++++++++++++.XXX oo oo ooOXX.+++++++++++++++++++++++",
"++++++++++++++++++++++++.XXX OOOOOOOOOXX.+++++++++++++++++++++++",
"++++++++++++++++++++++++.XXXXXXXXXXXXXXX.+++++++++++++++++++++++",
"++++++++++++++++++++++++.XXXXXXXXXXXXXXX.+++++++++++++++++++++++",
"++++++++++++++++++++++++.XXXXXXXXXXXXXXX.+++++++++++++++++++++++",
"++++++++++++++++++++++++.XXXXXXXXXXXXXXX.+++++++++++++++++++++++",
"++++++++++++++++++++++++.XXXXXXXXXXXXXXX.+++++++++++++++++++++++",
"++++++++++++++++++++++++.XXX         OXX.+++++++++++++++++++++++",
"+++++++++++++++++++++++@.XXX oo oo ooOXX.##+++++++++++++++++++++",
"+++++++++++++++++++++@@@.XXX oo oo ooOXO.###++++++++++++++++++++",
"+++++++++++++++++++@@@@#.XXX oo oo ooOX .####+++++++++++++++++++",
"++++++++++++++++@@@@@###.XXX oo oo ooOX .######+++++++++++++++++",
"+++++++++++++@@@@@######.XXX oo oo ooOX .#######++++++++++++++++",
"++++++++++++@@@#########.XXX oo oo ooOX .##########+++++++++++++",
"++++++++++++@###########.XXX oo oo ooOXX.###########++++++++++++",
"++++++++++++@#########@@.XXX oo oo ooOXX.###########++++++++++++",
"+++++++++++@########@@@@.XXX OOOOOOOOOXX.###########++++++++++++",
"+++++++++++@#######@@@@@.XXXXXXXXXXXXXXX.@@############+++++++++",
"+++++++++@@@@######@@@@@.XXXXXXXXXXXXXXX.@@@@@##########++++++++",
"+++++++++@@@@######@@@@@.XXXXXXXXXXXXXXX.@@@@@@#########++++++++",
"++++++++@@@@######@@@@@@.................@@@@@@#########++++++++",
"++++++++@@@#########@@@@@@@@@@@@@@@@@@@@@@@##@@@########++++++++",
"++++++++@@@############################################+++++++++",
"++++++++@@@############################################+++++++++",
"++++++++@@@############################################+++++++++",
"+++++++++@@@###@#######################################+++++++++",
"+++++++++++@@@@@@######@@########@@#########@########+++++++++++",
"+++++++++++++++@@@@@@@@+@@@@@@@@@++@@######++@@####+++++++++++++",
"+++++++++++++++@@@@@@@@+@@@@@@@@@++@@######++@@####+++++++++++++",
"++++++++++++++++@@@@++++++++++++++++@@@@@+++++++++++++++++++++++",
"++++++++++++++++++++++++++++++++++++++++++++++++++++++++++++++++",
"++++++++++++++++++++++++++++++++++++++++++++++++++++++++++++++++",
"++++++++++++++++++++++++++++++++++++++++++++++++++++++++++++++++",
"++++++++++++++++++++++++++++++++++++++++++++++++++++++++++++++++",
"++++++++++++++++++++++++++++++++++++++++++++++++++++++++++++++++",
"++++++++++++++++++++++++++++++++++++++++++++++++++++++++++++++++",
"++++++++++++++++++++++++++++++++++++++++++++++++++++++++++++++++",
"++++++++++++++++++++++++++++++++++++++++++++++++++++++++++++++++",
"++++++++++++++++++++++++++++++++++++++++++++++++++++++++++++++++",
"++++++++++++++++++++++++++++++++++++++++++++++++++++++++++++++++",
"++++++++++++++++++++++++++++++++++++++++++++++++++++++++++++++++",
"++++++++++++++++++++++++++++++++++++++++++++++++++++++++++++++++",
"++++++++++++++++++++++++++++++++++++++++++++++++++++++++++++++++",
"++++++++++++++++++++++++++++++++++++++++++++++++++++++++++++++++",
"++++++++++++++++++++++++++++++++++++++++++++++++++++++++++++++++"
};
