/* XPM */
static char *result[] = {
/* columns rows colors chars-per-pixel */
"64 64 165 2 ",
"   c #182E4D",
".  c #1B3353",
"X  c #1D3759",
"o  c #1E395B",
"O  c #203B5E",
"+  c #1F3C61",
"@  c #213D61",
"#  c #29415F",
"$  c #254366",
"%  c #2C4766",
"&  c #25456B",
"*  c #26486D",
"=  c #2B496C",
"-  c #344C6C",
";  c #254972",
":  c #294D75",
">  c #2B4F79",
",  c #2C527C",
"<  c #345575",
"1  c #3A5777",
"2  c #33577B",
"3  c #395779",
"4  c #36597B",
"5  c #3A5D7E",
"6  c #2C5682",
"7  c #2E5986",
"8  c #2E5B8A",
"9  c #325A85",
"0  c #3A5D81",
"q  c #325D8B",
"w  c #325F90",
"e  c #3E6587",
"r  c #34608D",
"t  c #3A648F",
"y  c #346293",
"u  c #396795",
"i  c #3D6F95",
"p  c #34659A",
"a  c #386698",
"s  c #36699D",
"d  c #366BA2",
"f  c #396EA3",
"g  c #3D72A4",
"h  c #3771AA",
"j  c #3A73AB",
"k  c #3F78AF",
"l  c #3B76B1",
"z  c #3D7AB5",
"x  c #3F7DB9",
"c  c #426485",
"v  c #426688",
"b  c #456B8B",
"n  c #51728E",
"m  c #446C90",
"M  c #4C7393",
"N  c #4F7895",
"B  c #4B7299",
"V  c #4E7A9E",
"C  c #527591",
"Z  c #547895",
"A  c #597B96",
"S  c #547C9A",
"D  c #587D9A",
"F  c #4273A5",
"G  c #4977A2",
"H  c #437AAD",
"J  c #497CAC",
"K  c #507AA5",
"L  c #407AB4",
"P  c #407EBA",
"I  c #58829E",
"U  c #64869F",
"Y  c #5783A2",
"T  c #5A85A1",
"R  c #5686A9",
"E  c #4F84B2",
"W  c #4C8FB7",
"Q  c #4281BE",
"!  c #4B85BD",
"~  c #4F8EB8",
"^  c #5284B5",
"/  c #5885B0",
"(  c #528DB3",
")  c #5389BD",
"_  c #5390B2",
"`  c #5191BB",
"'  c #638DA6",
"]  c #6186AA",
"[  c #628FAB",
"{  c #6693AC",
"}  c #6B96AF",
"|  c #678EB2",
" . c #6B9CB4",
".. c #6696BA",
"X. c #6F9FB9",
"o. c #739DB3",
"O. c #6FA1B9",
"+. c #74A3BB",
"@. c #4A87C0",
"#. c #528AC0",
"$. c #5C8FC0",
"%. c #5D90C1",
"&. c #6595C3",
"*. c #6997C3",
"=. c #6A99C6",
"-. c #719DC7",
";. c #7B9EC1",
":. c #76AAC1",
">. c #7BACC3",
",. c #7DB0C4",
"<. c #7FB4C9",
"1. c #67B1D7",
"2. c #8FA3B5",
"3. c #8FA6BB",
"4. c #91A9BE",
"5. c #98ACBE",
"6. c #8BADCC",
"7. c #94ACC5",
"8. c #84B0C3",
"9. c #89B4C7",
"0. c #81B5C9",
"q. c #8AB6C9",
"w. c #84BACE",
"e. c #88B9CC",
"r. c #9CB4C7",
"t. c #9CB5CB",
"y. c #9FBACA",
"u. c #86BDD3",
"i. c #89BDD2",
"p. c #95B4D2",
"a. c #91BDD0",
"s. c #9CBAD4",
"d. c #A0BDD5",
"f. c #8BC2D5",
"g. c #8EC6D9",
"h. c #92C5D6",
"j. c #91C6D9",
"k. c #93CBDC",
"l. c #9BCADC",
"z. c #A3C2D7",
"x. c #A5C4DA",
"c. c #AAC6DA",
"v. c #A6CADD",
"b. c #ACCCDD",
"n. c #B2CEDE",
"m. c #B2D1DF",
"M. c #95CFE1",
"N. c #99CDE1",
"B. c #96D1E2",
"V. c #9BD5E5",
"C. c #9CD8E7",
"Z. c #9CD7E8",
"A. c #9DD9E9",
"S. c #A2D5E4",
"D. c #ACD7E6",
"F. c #A4D9E7",
"G. c #ABD9E6",
"H. c #A3DBEA",
"J. c #AADEEC",
"K. c #B6D3E1",
"L. c #ADE0ED",
"P. c #B3E3EE",
"I. c #B6E4F0",
"U. c #BAE6F0",
"Y. c #BCE8F1",
/* pixels */
"A.A.A.A.A.A.A.A.H.A.A.A.A.A.A.A.A.A.A.A.A.A.A.A.A.A.A.A.A.A.A.A.A.A.A.A.A.A.A.A.A.A.A.A.A.A.A.A.A.A.A.A.A.A.A.A.A.A.A.A.A.A.A.A.",
"A.A.A.A.A.A.A.A.A.A.A.A.A.A.A.A.A.A.A.A.A.A.A.A.A.H.A.A.A.A.A.A.A.A.A.A.A.A.A.A.A.A.A.A.A.A.A.A.A.A.A.A.A.A.A.A.A.A.A.A.A.A.A.A.",
"A.A.A.A.A.A.A.A.A.A.A.A.A.A.A.A.A.A.A.A.A.A.A.A.A.A.A.A.A.A.A.A.A.A.A.A.A.A.A.A.A.A.A.A.A.A.A.A.A.A.A.A.A.A.A.A.A.A.A.A.A.A.A.A.",
"A.A.A.A.A.A.A.A.A.A.A.A.A.A.A.A.A.A.A.H.A.A.A.A.A.A.A.A.A.A.A.A.A.A.A.H.A.A.A.A.A.A.A.A.A.A.A.A.A.A.A.A.A.A.A.A.A.A.A.A.A.A.A.A.",
"H.A.A.A.A.A.A.A.A.A.H.A.A.A.H.A.A.A.A.A.A.A.A.A.A.A.A.A.A.A.A.A.A.A.A.A.A.A.A.A.A.A.A.A.A.A.A.A.A.A.A.A.A.A.A.A.A.A.A.A.A.A.A.A.",
"A.A.H.A.A.A.A.A.A.A.A.A.A.A.A.A.A.A.A.A.A.A.A.A.A.A.A.A.A.A.A.A.A.A.A.A.A.A.A.A.A.H.A.A.A.A.A.A.A.A.A.A.A.A.A.A.A.A.A.A.A.A.A.A.",
"A.A.A.A.A.A.A.A.A.A.A.A.A.A.A.A.A.A.A.A.A.A.A.A.A.A.A.A.A.A.A.A.H.A.A.A.A.A.A.A.A.A.A.A.A.A.A.A.A.A.A.A.A.A.A.A.A.A.A.A.A.A.A.A.",
"A.A.A.A.A.A.A.A.A.A.A.A.A.A.A.A.A.A.A.A.A.A.A.A.A.A.A.A.A.A.H.A.A.A.A.A.A.A.A.A.A.A.A.A.A.A.A.A.A.A.A.A.A.A.A.A.A.A.A.A.A.A.A.A.",
"A.A.A.A.A.A.A.A.A.A.A.A.A.A.A.A.A.A.A.A.A.A.A.A.A.A.A.A.A.A.A.A.A.A.A.A.A.A.A.A.A.A.A.A.A.A.A.A.A.A.A.A.A.A.A.A.A.A.A.A.A.A.A.A.",
"A.A.H.A.A.A.A.A.A.A.H.A.A.A.A.A.A.A.A.A.A.A.A.A.A.A.A.A.A.A.A.A.A.A.A.A.A.A.A.A.A.A.A.A.A.A.A.A.A.A.A.A.A.A.A.A.A.A.A.A.A.A.A.A.",
"A.A.A.A.A.A.A.A.A.A.A.A.A.A.A.A.A.A.A.A.A.A.A.A.A.A.A.A.A.A.A.A.A.A.A.A.A.A.A.A.A.A.A.A.A.A.A.A.A.A.A.A.A.A.A.A.A.A.A.A.A.A.A.A.",
"A.A.A.A.A.A.A.A.A.A.A.A.A.A.A.A.A.A.A.A.A.A.A.A.A.A.A.A.A.A.A.A.A.A.A.A.A.A.A.A.A.A.A.A.A.A.A.A.A.A.A.A.A.A.A.A.A.A.A.A.A.A.A.A.",
"A.A.A.A.A.A.A.A.A.A.A.A.A.H.A.A.A.A.A.L.L.L.H.A.A.A.A.A.A.A.A.A.A.A.A.H.J.L.L.J.H.A.A.A.A.A.A.A.A.A.A.A.A.H.A.A.A.Z.A.A.A.A.A.A.",
"A.A.A.A.A.A.A.A.A.A.A.H.A.A.A.A.H.P.I.H.A.A.A.A.A.A.A.A.A.A.A.A.A.A.A.A.A.A.A.J.I.I.H.A.A.A.A.A.A.H.A.A.A.A.A.A.A.A.A.Z.A.A.A.A.",
"A.A.A.A.H.A.A.A.A.A.A.A.A.A.H.I.I.J.A.A.A.A.A.A.A.A.A.A.A.A.A.A.A.A.A.A.A.A.A.A.A.L.I.L.A.A.A.A.A.A.A.A.A.A.A.A.A.A.A.A.A.A.A.A.",
"A.A.A.A.A.A.A.A.A.A.A.A.A.A.U.L.H.A.A.A.A.A.A.A.A.A.A.A.A.A.A.A.A.A.A.A.A.A.A.A.A.A.H.I.I.H.A.A.A.A.A.A.A.A.A.H.A.A.A.Z.A.A.A.A.",
"A.A.A.A.A.A.A.A.A.A.A.A.H.Y.L.A.A.A.A.A.A.A.A.A.A.A.A.A.A.A.A.H.A.A.A.A.A.A.A.A.A.A.A.A.I.I.A.C.A.A.A.A.A.A.A.A.A.A.A.A.A.A.A.A.",
"H.A.A.A.A.A.A.A.A.A.A.H.Y.L.V.e.f.B.A.A.A.A.A.A.A.A.A.A.A.A.A.A.A.A.A.A.A.A.A.A.A.V.V.V.A.I.L.C.A.A.A.A.A.A.A.A.A.A.A.A.A.A.A.A.",
"H.A.A.A.A.A.A.A.A.H.A.P.L.A.} 2 u T M.A.A.H.A.A.A.A.A.A.A.A.A.A.A.A.A.A.A.A.A.A.k.I b Z B.A.L.L.A.A.A.A.A.A.A.A.A.A.A.A.A.A.A.A.",
"A.A.A.A.A.A.A.A.A.A.H.P.H.k.A ^ l q I M.A.A.A.A.A.A.A.A.A.A.A.A.A.A.A.A.H.A.A.k.N 8 j r I A.L.P.A.A.A.A.A.A.A.A.A.A.A.A.A.A.A.A.",
"A.A.A.A.A.A.A.A.A.A.P.H.A.A.S.z.) l w I V.Z.A.A.A.A.A.A.A.A.A.A.A.A.H.A.A.A.k.K q k ! 6.h.A.F.L.J.A.A.A.A.A.A.A.A.A.A.A.A.A.A.A.",
"A.A.A.A.A.A.A.A.A.H.L.A.A.A.A.F.c.) z y V V.A.A.A.A.A.A.A.A.A.A.A.A.A.A.A.k.S 8 z ) s.G.A.A.A.H.L.A.A.A.A.A.A.A.A.A.A.A.A.A.A.A.",
"A.A.A.A.A.A.A.A.A.L.H.A.A.A.A.H.F.c.) l p M f.A.A.A.A.A.A.A.A.A.A.A.A.A.k.S y z ) x.G.C.A.A.A.F.J.A.A.A.A.A.A.A.A.A.A.A.A.A.A.A.",
"H.A.A.A.A.A.A.A.A.L.F.A.A.A.A.A.A.G.v.$.z p e f.A.A.A.A.A.H.A.A.A.A.A.M.b y z ) v.G.A.A.A.A.A.A.H.J.A.A.A.A.A.A.A.A.A.A.A.A.A.A.",
"A.A.A.A.A.A.A.A.A.L.A.A.A.A.A.A.A.A.F.n.) L d v g.A.A.A.Z.H.A.A.A.A.g.v p l %.v.F.A.A.A.A.A.A.A.A.J.A.Z.A.A.A.Z.A.A.A.A.A.A.A.A.",
"A.A.A.A.A.A.A.A.A.H.A.A.A.A.A.A.Z.V.w.o.r.&.z d 4 { }  . .} } .. .{ 4 p z %.b.H.A.A.A.A.A.A.A.A.A.H.A.H.J.H.H.H.A.A.A.A.A.A.A.A.",
"H.A.A.A.A.A.A.A.A.A.A.A.A.A.V.w.+.O.V > 0 5.*.z s * o # @ @ @ @ o $ d z %.n.H.A.A.A.A.A.A.A.A.A.Z.Z.G.J.J.J.J.L.J.A.A.A.H.A.A.A.",
"A.A.A.A.A.A.A.A.A.A.A.A.A.V.w.K 8 6 g H 8 % 2.*.x d ; : 8 8 8 6 > d z %.y.e.j.A.A.A.A.A.A.A.A.A.M.G M M.H.H.F.g.| 6.A.A.A.A.A.A.",
"A.H.A.A.A.A.A.A.A.A.A.A.A.N.Y w 8 X ( ` o   % 7.=.z h : H Q L f l x &.7.# & n i.A.A.A.A.A.A.Z.Z.S.B F D V.F.l.X.F B L.A.A.A.A.A.",
"H.A.A.A.A.A.H.A.A.A.A.A.A.M.K ; O X _ ` o X 8 ! p.=.d $ 7 j q ; j =.s.H   $ & 4 B.A.A.A.A.A.A.J.J.i.S j E f.g g ] M.L.A.A.A.A.A.",
"A.A.A.A.A.A.A.A.A.A.A.A.A.j.R ; o X ( ~ + + 8 P ! :.= .   X   O 3 6.@.j X : > 2  .+.O.X.X. .X.q.o.X.[ w 9 T s ^ l.F.J.J.A.A.A.A.",
"A.A.A.A.A.A.A.A.A.A.A.A.A.M.R ; o o q j s y 8 P Q z a X 6 H @ . y Q P l 6 h j f w y y y y y a | a K a ; y ~ 5 k.H.H.J.L.A.A.A.A.",
"A.A.A.A.A.A.A.A.A.A.A.A.A.k.R & o o r k s w 8 P x k , . r 1.< . s Q Q l 6 h h d r r q r r r r T u M r $ 7 i < j.G.J.H.L.A.A.A.A.",
"A.H.A.A.A.A.A.A.A.A.A.A.A.k.R * o X _ ~ + o 8 x W f.*   . o . o c 6.Q g X : > 9 +.+.+.:.:.+.+.f.<.+.5 8 < Y a ( H.Z.L.H.A.A.A.A.",
"A.A.A.A.A.A.A.A.F.A.A.A.A.k.R ; O X ( ` o X 9 ) h...s * i l , , z -.p.F   $ * 5 V.C.A.A.A.A.A.L.S.I / B e.u.f ( q.B.L.H.A.A.A.A.",
"A.A.H.A.A.A.A.A.A.A.A.A.A.k.T y r o ( ~ +   - y.&.z f , z x h 2 l x =.3.# = D k.A.A.A.A.A.A.A.A.l.y M l.J.J.i.m J 4.H.A.A.A.A.A.",
"A.A.A.A.A.A.A.A.H.C.C.C.A.A.f.I r r g k p 1 4.) z s * ; , , , * , j x =.y.g.k.A.A.A.A.A.A.C.A.A.V.j.h.V.F.F.V.+.b ` Z.A.A.C.A.A.",
"A.A.A.A.A.A.A.A.H.L.A.A.A.A.C.f.>.,.I ; c r.) z p * $ $ % # % $ $ : l x =.K.H.A.A.A.A.A.A.A.A.A.A.A.J.L.J.J.L.J.S.M.A.A.A.A.A.A.",
"A.A.A.A.A.A.A.A.A.L.A.C.A.F.A.A.C.V.f.e.s.! x 7 5 +.<.<.w.0.0.w.<.+.2 j x =.m.F.C.A.C.A.A.A.A.A.H.H.A.A.H.H.H.A.A.A.A.A.A.Z.A.Z.",
"A.A.A.A.A.A.A.A.C.L.A.A.A.A.A.A.A.H.F.c.` k 9 I M.A.A.A.C.C.C.A.A.A.0.4 h z =.m.F.A.F.A.A.A.A.A.A.J.A.A.A.A.A.A.A.A.A.A.Z.Z.A.Z.",
"H.A.H.A.A.A.A.A.A.L.F.A.A.A.A.A.A.G.z.#.z q T N.C.A.A.A.H.C.A.H.A.A.A.0.< h z =.b.F.A.A.A.A.A.A.A.A.A.A.A.A.Z.A.A.A.A.Z.A.A.A.Z.",
"A.A.A.A.A.A.A.A.A.L.H.A.A.A.A.F.G.z.) l q T V.A.H.A.A.A.A.A.A.C.A.A.A.V.f.5 d z &.b.A.A.A.A.A.A.H.A.A.A.A.Z.A.A.A.C.A.A.A.A.A.A.",
"A.A.A.A.A.A.A.A.A.H.L.F.A.A.A.D.s.! l q I V.A.A.A.A.C.A.A.H.A.A.A.A.A.A.V.w.v p z *.v.F.A.A.A.H.L.A.A.A.A.Z.A.A.C.A.C.A.Z.A.A.Z.",
"A.A.A.A.A.A.A.A.A.A.P.F.A.A.l.s.! l q ' V.A.A.F.A.A.A.A.A.C.A.A.A.A.A.A.A.A.f.b p z =.b.C.A.A.L.H.A.A.A.A.A.A.A.C.A.A.A.Z.A.A.Z.",
"A.A.A.A.H.A.A.A.A.A.J.P.A.k.v H z 9 { V.A.A.A.A.A.A.A.A.A.C.A.A.A.A.A.A.A.A.C.f.b p z B ' A.F.P.A.A.A.A.A.A.A.A.Z.A.A.A.A.A.A.Z.",
"A.A.A.A.A.A.A.A.A.A.A.P.L.Z.0.0 b { B.A.A.A.A.A.A.C.A.A.A.A.A.A.A.A.A.A.A.A.A.A.f.e t e f.A.U.J.A.A.A.A.A.A.A.A.Z.A.A.A.Z.A.A.Z.",
"A.A.A.A.A.A.A.A.A.A.A.F.U.J.V.j.k.B.A.A.A.F.A.A.A.A.A.A.A.A.A.A.A.A.A.F.A.A.A.A.A.g.f.g.C.P.P.A.A.A.A.A.A.A.A.A.Z.A.A.A.A.A.A.A.",
"A.A.A.A.A.A.A.A.A.A.A.A.J.U.L.A.A.A.A.A.A.A.A.A.A.H.C.A.A.A.A.C.A.A.A.A.A.A.A.A.C.A.C.C.P.U.F.A.A.A.A.A.A.A.A.A.Z.Z.A.A.A.A.A.Z.",
"A.A.A.A.A.A.A.A.A.A.A.A.A.A.L.L.A.A.A.A.A.A.A.A.A.A.A.A.A.A.A.A.A.A.A.A.A.A.A.A.A.A.A.P.A.A.A.A.A.A.A.A.A.A.A.A.A.A.C.C.A.C.A.A.",
"A.A.A.A.A.A.A.A.A.A.A.A.A.A.A.L.P.A.A.A.A.A.A.A.A.A.A.A.A.A.A.A.A.A.A.A.A.A.A.A.A.L.Y.H.A.A.A.A.A.A.A.A.A.A.A.A.A.A.C.A.A.A.A.A.",
"A.A.A.A.A.A.A.A.A.A.A.A.A.A.A.A.A.L.A.A.A.A.A.A.A.A.H.A.A.A.A.A.A.A.A.A.C.A.A.L.L.L.A.A.A.A.A.A.A.A.A.A.A.A.A.A.A.A.A.A.A.A.A.A.",
"A.A.A.A.A.A.Z.A.A.A.A.A.A.A.A.A.A.A.A.A.L.H.A.A.A.A.A.A.A.A.A.A.A.A.A.H.H.H.L.L.A.A.A.A.A.A.A.A.A.A.A.A.A.A.A.A.A.A.A.A.A.B.A.A.",
"A.A.Z.Z.Z.A.A.A.A.A.A.A.A.A.A.A.A.A.A.A.A.A.A.A.A.A.A.A.A.A.A.A.A.A.A.A.A.A.A.A.A.A.A.A.A.A.A.A.A.A.A.A.A.A.A.A.A.A.A.A.A.A.A.A.",
"A.A.Z.A.A.A.A.Z.A.A.A.A.A.A.A.A.A.A.A.A.A.A.A.A.A.A.A.A.A.A.A.A.A.A.A.A.A.A.A.A.A.A.A.A.A.A.A.A.A.A.A.A.A.A.A.A.A.A.A.A.A.A.A.A.",
"A.A.A.A.A.A.A.Z.A.A.A.A.A.A.A.A.A.A.A.A.A.A.A.A.A.A.A.A.A.A.A.A.A.A.A.A.A.A.A.A.A.A.A.A.A.A.A.A.A.A.A.A.A.A.A.A.A.A.A.A.A.A.A.A.",
"A.A.A.A.A.A.Z.Z.A.A.A.A.A.A.A.A.A.A.A.A.A.A.A.A.A.A.A.A.A.A.A.A.A.A.A.A.A.A.A.A.A.A.A.A.A.A.A.A.A.A.A.A.A.A.A.A.A.A.A.A.A.A.B.A.",
"A.A.B.A.B.A.A.A.A.A.A.A.A.A.A.A.A.A.A.A.A.A.A.A.A.C.A.A.A.A.A.A.A.A.A.A.A.A.A.A.A.A.A.A.A.A.A.A.A.A.A.A.A.A.A.A.A.A.A.A.A.A.A.A.",
"A.A.A.A.A.A.A.A.A.A.A.A.A.A.A.A.A.A.A.A.A.A.A.A.A.A.A.A.A.A.A.A.A.A.C.C.A.A.A.A.A.A.A.A.A.A.A.A.A.A.A.A.A.A.A.A.A.A.A.A.A.A.A.A.",
"A.A.A.A.A.A.A.A.A.A.A.A.A.A.A.A.A.A.A.A.A.A.A.A.A.A.A.A.A.A.A.A.A.A.A.A.A.A.C.A.A.A.A.A.A.A.A.A.A.A.A.A.A.A.A.A.A.A.A.A.A.A.A.A.",
"A.A.A.A.A.A.A.A.A.A.A.A.A.A.A.A.A.A.A.A.A.A.A.A.A.A.C.C.A.A.A.A.A.A.A.A.A.A.A.A.A.A.A.A.A.A.A.A.A.A.A.A.A.A.A.A.A.A.A.B.A.A.A.A.",
"A.A.A.A.A.A.A.A.B.A.A.A.Z.A.A.A.A.A.A.A.A.A.A.A.A.C.A.A.A.A.A.A.C.C.A.A.C.A.A.A.A.A.A.A.A.A.A.A.A.A.A.A.A.A.A.A.A.A.A.A.A.A.B.A.",
"A.1.A.A.A.A.A.B.A.A.A.A.Z.A.Z.A.A.A.A.A.A.A.A.A.A.A.A.A.A.A.A.A.C.A.A.A.A.A.A.A.A.A.A.A.A.A.A.A.A.A.A.A.A.A.A.A.A.A.A.A.A.A.A.A.",
"A.A.A.A.B.A.A.A.A.A.Z.A.A.A.A.A.A.A.A.B.A.A.A.A.A.A.A.A.A.A.A.A.C.A.A.C.C.A.A.C.A.A.B.A.A.A.A.A.A.B.A.A.A.A.A.A.A.A.A.A.A.A.A.A.",
"A.A.A.A.A.A.A.A.A.A.Z.Z.Z.A.A.A.A.A.A.A.A.A.A.B.A.A.A.A.A.A.A.A.A.A.A.A.A.A.A.A.A.A.A.A.A.A.A.A.A.A.A.A.A.A.A.A.A.A.A.A.A.A.A.B."
};
