/* XPM */
static char *_f10b57d4e4f419aa26e141f7c682cc3dmGvUiZhp7P1u177[] = {
/* columns rows colors chars-per-pixel */
"64 64 153 2 ",
"   c #1B3556",
".  c #1D3759",
"X  c #1E3A5C",
"o  c #223F5E",
"O  c #1F3D62",
"+  c #213E62",
"@  c #1E406A",
"#  c #214166",
"$  c #2D4963",
"%  c #23456B",
"&  c #294769",
"*  c #26486E",
"=  c #2A4A6D",
"-  c #234772",
";  c #264B74",
":  c #2B4D72",
">  c #254D79",
",  c #2A4F7A",
"<  c #2A5177",
"1  c #29527C",
"2  c #375874",
"3  c #3B5C75",
"4  c #335D7C",
"5  c #3D5E79",
"6  c #3E617D",
"7  c #42647D",
"8  c #2B5682",
"9  c #2E5A87",
"0  c #2F5D8B",
"q  c #375E86",
"w  c #305D8B",
"e  c #336382",
"r  c #36638E",
"t  c #3F6789",
"y  c #37698D",
"u  c #38688D",
"i  c #326393",
"p  c #396691",
"a  c #3C6A96",
"s  c #346598",
"d  c #366A9E",
"f  c #386B9E",
"g  c #3C7292",
"h  c #376DA1",
"j  c #396DA1",
"k  c #3971A7",
"l  c #3A73AB",
"z  c #3C79AF",
"x  c #3D7BB5",
"c  c #3E7DB8",
"v  c #446581",
"b  c #456C8C",
"n  c #4D738A",
"m  c #50768E",
"M  c #54788F",
"N  c #436E92",
"B  c #427095",
"V  c #4C7793",
"C  c #457D9E",
"Z  c #4A799D",
"A  c #557B92",
"S  c #567F98",
"D  c #65768A",
"F  c #67788C",
"G  c #677F97",
"H  c #697E93",
"J  c #407DB6",
"K  c #407EB9",
"L  c #3F80BA",
"P  c #578199",
"I  c #59829A",
"U  c #5C889E",
"Y  c #4C8DAE",
"T  c #5887A0",
"R  c #5F8BA5",
"E  c #5888A8",
"W  c #4181BD",
"Q  c #4F87B9",
"!  c #4F89BB",
"~  c #5187BC",
"^  c #5188BC",
"/  c #5094B3",
"(  c #6282A3",
")  c #638FA5",
"_  c #6C89A6",
"`  c #6590A6",
"'  c #6593AA",
"]  c #6995AA",
"[  c #6A98AD",
"{  c #6190BC",
"}  c #7493B2",
"|  c #739EB2",
" . c #7298BA",
".. c #71A2B7",
"X. c #73A4B9",
"o. c #75A8BC",
"O. c #7AABBF",
"+. c #4284C0",
"@. c #669EC0",
"#. c #53A0CB",
"$. c #6AA5CC",
"%. c #6DA8CE",
"&. c #7BA4C7",
"*. c #77ACC1",
"=. c #7BAFC2",
"-. c #7DA7CD",
";. c #74AACE",
":. c #7CA8CE",
">. c #7CB0C4",
",. c #7FB5C8",
"<. c #62B7E1",
"1. c #6EC8E8",
"2. c #6ECEF1",
"3. c #6ED2F6",
"4. c #71D0F3",
"5. c #8596A7",
"6. c #95AEBC",
"7. c #A8B5BF",
"8. c #8DABC6",
"9. c #83AACC",
"0. c #84BBCD",
"q. c #95BECE",
"w. c #8CB2D1",
"e. c #86BFD2",
"r. c #AFB9C2",
"t. c #B1BBC4",
"y. c #86C0D2",
"u. c #8BC5D6",
"i. c #8BC5DA",
"p. c #8FC9DA",
"a. c #91CDDE",
"s. c #A8CEDE",
"d. c #B7CAD9",
"f. c #B2D2DD",
"g. c #92CFE0",
"h. c #95D3E4",
"j. c #97D7E8",
"k. c #98D7E8",
"l. c #99D9EA",
"z. c #9CDAEB",
"x. c #A1CBE1",
"c. c #A9DFEE",
"v. c #B5DCE9",
"b. c #BBDEEB",
"n. c #9EE0F8",
"m. c #B2E3EF",
"M. c #BEE0EB",
"N. c #BAE5F1",
"B. c #BDE7F1",
"V. c #C9DFE8",
"C. c #D1DFE7",
"Z. c #C8E3ED",
"A. c #C0E7F2",
/* pixels */
"l.l.l.l.l.l.l.l.l.l.l.l.l.l.l.l.l.l.l.l.l.l.l.l.l.l.l.l.l.l.l.l.l.l.l.l.l.l.l.l.l.l.l.l.l.l.l.l.l.l.l.l.l.l.l.l.l.l.l.l.l.l.l.l.",
"l.l.l.l.l.l.l.l.l.l.l.l.l.l.l.l.l.l.l.l.l.l.l.l.l.l.l.l.l.l.l.l.l.l.l.l.l.l.l.l.l.l.l.l.l.l.l.l.l.l.l.l.l.l.l.l.l.l.l.l.l.l.l.l.",
"l.l.l.l.l.l.l.l.l.l.l.l.l.l.l.l.l.l.l.l.l.l.l.l.l.l.l.l.l.l.l.l.l.l.l.l.l.l.l.l.l.l.l.l.l.l.l.l.l.l.l.l.l.l.l.l.l.l.l.l.l.l.l.l.",
"l.l.l.l.l.l.l.l.l.l.l.l.l.l.l.l.l.l.l.l.l.l.l.l.l.l.l.l.l.l.l.l.l.l.l.l.l.l.l.l.l.l.l.l.l.l.l.l.l.l.l.l.l.l.l.l.l.l.l.l.l.l.l.l.",
"l.l.l.l.l.l.l.l.l.l.l.l.l.l.l.l.l.l.l.l.l.l.l.l.l.l.l.l.l.l.l.l.l.l.l.l.l.l.l.l.l.l.l.l.l.l.l.l.l.l.l.l.l.l.l.l.l.l.l.l.l.l.l.l.",
"l.l.l.l.l.l.l.l.l.l.l.l.l.l.l.l.l.l.l.l.l.l.l.l.l.l.l.l.l.l.l.l.l.l.l.l.l.l.l.l.l.l.l.l.l.l.l.l.l.l.l.l.l.l.l.l.l.l.l.l.l.l.l.l.",
"l.l.l.l.l.l.l.l.l.l.l.l.l.l.l.l.l.l.l.l.l.l.l.l.l.l.l.l.l.l.l.l.l.l.l.l.l.l.l.l.l.l.l.l.l.l.l.l.l.l.l.l.l.l.l.l.l.l.l.l.l.l.l.l.",
"l.l.l.l.l.l.l.l.l.l.l.l.l.l.l.l.l.l.l.l.l.l.l.l.l.l.l.l.l.l.l.l.l.l.l.l.l.l.l.l.l.l.l.l.l.l.l.l.l.l.l.l.l.l.l.l.l.l.l.l.l.l.l.l.",
"l.l.l.l.l.l.l.l.l.l.l.l.l.l.l.l.l.l.l.l.l.l.l.l.l.l.l.l.l.l.l.l.l.l.l.l.l.l.l.l.l.l.l.l.l.l.l.l.l.l.l.l.l.l.l.l.l.l.l.l.l.l.l.l.",
"l.l.l.l.l.l.l.l.l.l.l.l.l.l.l.l.l.l.l.l.l.l.l.l.l.l.l.l.l.l.l.l.l.l.l.l.l.l.l.l.l.l.l.l.l.l.l.l.l.l.l.l.l.l.l.l.l.l.l.l.l.l.l.l.",
"l.l.l.l.l.l.l.l.l.l.l.l.l.l.l.l.l.l.l.l.l.l.l.l.l.l.l.l.l.l.l.l.l.l.l.l.l.l.l.l.l.l.l.l.l.l.l.l.l.l.l.l.l.l.l.l.l.l.l.l.l.l.l.l.",
"l.l.l.l.l.l.l.l.l.l.l.l.l.l.l.l.l.l.l.l.l.l.l.l.l.l.l.l.l.l.l.l.[ A ] l.l.l.l.l.l.l.l.l.l.l.l.l.l.l.l.l.l.l.l.l.l.l.l.l.l.l.l.l.",
"l.l.l.l.l.l.l.l.l.l.l.l.l.l.l.l.l.l.l.l.l.l.l.l.l.l.l.l.l.l.l.l.q.f a [ l.l.l.l.l.l.l.l.l.l.l.l.l.l.l.l.l.l.l.l.l.l.l.l.l.l.l.l.",
"l.l.l.l.l.l.l.l.l.l.l.l.l.l.l.l.l.l.l.l.l.l.l.l.l.l.l.l.l.l.l.l.v.J f S l.l.l.l.l.l.l.l.l.l.l.l.l.l.l.l.l.l.l.l.l.l.l.l.l.l.l.l.",
"l.l.l.l.l.l.l.l.l.l.l.l.l.l.l.l.l.l.l.l.l.l.l.l.l.l.l.l.l.l.l.l.v.x f I l.l.l.l.l.l.l.l.l.l.l.l.l.l.l.l.l.l.l.l.l.l.l.l.l.l.l.l.",
"l.l.l.l.l.l.l.l.l.l.l.l.l.l.l.l.l.l.l.l.l.l.l.l.l.l.l.l.l.l.l.l.v.x j I l.l.l.l.l.l.l.l.l.l.l.l.l.l.l.l.l.l.l.l.l.l.l.l.l.l.l.l.",
"l.l.l.l.l.l.l.l.l.l.l.l.l.l.l.l.l.l.l.l.l.l.l.l.l.l.l.l.l.l.l.l.b.J f P l.l.l.l.l.l.l.l.l.l.l.l.l.l.l.l.l.l.l.l.l.l.l.l.l.l.l.l.",
"l.l.l.l.l.l.l.l.l.l.l.l.l.l.l.l.l.l.l.l.l.l.l.l.l.l.l.l.l.l.l.l.b.J f I l.l.l.l.l.l.l.l.l.l.l.l.l.l.l.l.l.l.l.l.l.l.l.l.l.l.l.l.",
"l.l.l.l.l.l.l.l.l.l.l.l.l.l.l.l.l.l.l.l.l.l.l.l.l.l.l.l.l.l.l.l.v.x f I l.l.l.l.l.l.l.l.l.l.l.l.l.l.l.l.l.l.l.l.l.l.l.l.l.l.l.l.",
"l.l.l.l.l.l.l.l.l.l.l.l.l.l.l.l.l.l.l.l.l.l.l.l.l.l.l.l.l.l.l.l.v.x j I l.l.l.l.l.l.l.l.l.l.l.l.l.l.l.l.l.l.l.l.l.l.l.l.l.l.l.l.",
"l.l.l.l.l.l.l.l.l.l.l.l.l.l.l.l.l.l.l.l.l.l.l.l.l.l.l.l.l.l.l.l.b.x f P l.l.l.l.l.l.l.l.l.l.l.l.l.l.l.l.l.l.l.l.l.l.l.l.l.l.l.l.",
"l.l.l.l.l.l.l.l.l.l.l.l.l.l.l.l.l.l.l.l.l.l.l.l.l.l.l.l.l.l.l.l.b.J f I l.l.l.l.l.l.l.l.l.l.l.l.l.l.l.l.l.l.l.l.l.l.l.l.l.l.l.l.",
"l.l.l.l.l.l.l.l.l.l.l.l.l.l.l.l.l.l.l.l.l.l.l.l.l.l.l.l.l.l.l.l.b.x j I l.l.l.l.l.l.l.l.l.l.l.l.l.l.l.l.l.l.l.l.l.l.l.l.l.l.l.l.",
"l.l.l.l.l.l.l.l.l.l.l.l.l.l.l.l.l.l.l.l.l.l.l.l.l.l.l.l.l.l.l.l.b.J j I l.l.l.l.l.l.l.l.l.l.l.l.l.l.l.l.l.l.l.l.l.l.l.l.l.l.l.l.",
"l.l.l.l.l.l.l.l.l.l.l.l.l.l.l.l.l.l.l.l.l.l.l.l.l.l.l.l.l.l.l.l.M.J j I l.l.l.l.l.l.l.l.l.l.l.l.l.l.l.l.l.l.l.l.l.l.l.l.l.l.l.l.",
"l.l.l.l.l.l.l.l.l.l.l.l.l.l.l.l.l.l.l.l.l.l.l.l.l.l.l.l.l.k.k.l.Z.x f I l.l.l.l.l.l.l.l.l.l.l.l.l.l.l.l.l.l.l.l.l.l.l.l.l.l.l.l.",
"l.l.l.l.l.j.a.l.l.l.l.l.l.l.l.l.l.l.l.l.l.l.l.l.l.l.l.u.o.5 3 5 C.x j = 6 6 6 6 6 6 b b b 0.y.u.l.l.l.l.l.l.l.l.l.l.l.l.l.l.l.l.",
"l.l.l.l.l.e.b 0.l.l.l.l.l.l.l.l.l.l.l.l.l.l.l.l.l.a...6 o . ; 1 V.x h % 1 - @ O X # w d z r q N 0.l.l.l.l.l.l.l.l.l.l.l.l.l.l.l.",
"l.l.l.l.l.e.s Z i.l.l.l.l.l.l.l.l.l.l.l.l.l.l.h.) v   X X O k L s.x d 8 c 9 X X X     y <.1 s l B u.l.l.l.l.l.l.l.l.l.l.l.l.l.l.",
"l.l.l.l.l.h.E i ' k.l.l.l.l.l.u.u.u.u.u.u.u.O.3 +     9 f f x W v % # 0 L x k k 1     g 3.X O ; w ,.l.l.l.l.l.l.l.l.l.l.l.l.l.l.",
"l.l.l.l.l.l.>.p t p.a.a.a.a.a.7 5 6 6 5 5 6 2   . X . # > > i f *     8 f { :.-._ D F | n.H D G } u.l.l.l.l.l.l.l.l.l.l.l.l.l.l.",
"l.l.l.l.l.l.0.N u 4 # 1 1 1 O J x J K K K K K K J c c K c J *     C e     ( w.w.w.w.w.w.w.w.w.w.w.;.%.$.$.%.@.| l.l.l.l.l.l.l.l.",
"l.l.l.l.l.l.[ d #.Y 8 l l l * ~ ! Q Q ^ ^ ! ~ ^ ^ Q ^ ^ ~ Q =     1./     i c c c c c c L c K W c x K K c c k n l.l.l.l.l.l.l.l.",
"l.l.l.l.l.l.l.[ n 2 ; & n m M 6.7.t.t.t.r.t.t.r.t.t.t.d.x.i.N 1 +     % 1 ; ; > * ; ; * - ; * ; > * % = : = 6 e.l.l.l.l.l.l.l.l.",
"l.l.l.l.l.l.l.l.l.O.r p e.l.l.>.=.=.>.=.=.=.' X .     f K W W +.*     w W W W J 9     g 4.O . # w 0.l.l.z.z.l.l.l.l.l.l.l.l.l.l.",
"l.l.l.l.l.l.l.l.l.l.R f T h.l.l.l.l.l.l.l.l.j.a.n $ . # % * z f 9 k  .9.W i % % O     g 2.# 9 l r 0.l.l.l.l.l.l.l.l.l.l.l.l.l.l.",
"l.l.l.l.l.l.l.l.l.l.l.N ; 0.l.l.l.l.l.l.l.l.l.l.l.i.A $   . 9 1 0 c 9.8.d 1 + O X O , i c s i a o.l.l.l.l.l.l.l.l.l.l.l.l.l.l.l.",
"l.l.l.l.l.l.l.l.l.l.l.0.I a.l.l.l.l.l.l.l.l.l.l.l.l.l.0.` .   . 0 x 9.5.+ + + + X o < 1 : ..o.>.l.l.l.l.l.l.l.l.l.l.l.l.l.l.l.l.",
"l.l.l.l.l.l.l.l.l.l.l.l.k.l.l.l.l.l.l.l.l.l.l.l.l.l.l.l.g.=.=.U 0 x 9.f.>.>.=.=.=.>.=.>.=.l.l.l.l.l.l.l.l.l.l.l.l.l.l.l.l.l.l.l.",
"l.l.l.l.l.l.l.l.l.l.l.l.l.l.l.l.l.l.l.l.l.l.l.l.l.l.l.l.l.l.l...0 x 9.A.l.l.l.l.l.l.l.l.l.l.l.l.l.l.l.l.l.l.l.l.l.l.l.l.l.l.l.l.",
"l.l.l.l.l.l.l.l.l.l.l.l.l.l.l.l.l.l.l.l.l.l.l.l.l.l.l.l.l.l.l...9 x 9.B.l.l.l.l.l.l.l.l.l.l.l.l.l.l.l.l.l.l.l.l.l.l.l.l.l.l.l.l.",
"l.l.l.l.l.l.l.l.l.l.l.l.l.l.l.l.l.l.l.l.l.l.l.l.l.l.l.l.l.l.l...w x 9.B.l.l.l.l.l.l.l.l.l.l.l.l.l.l.l.l.l.l.l.l.l.l.l.l.l.l.l.l.",
"l.l.l.l.l.l.l.l.l.l.l.l.l.l.l.l.l.l.l.l.l.l.l.l.l.l.l.l.l.l.l...w x 9.B.l.l.l.l.l.l.l.l.l.l.l.l.l.l.l.l.l.l.l.l.l.l.l.l.l.l.l.l.",
"l.l.l.l.l.l.l.l.l.l.l.l.l.l.l.l.l.l.l.l.l.l.l.l.l.l.l.l.l.l.l...9 x 9.B.l.l.l.l.l.l.l.l.l.l.l.l.l.l.l.l.l.l.l.l.l.l.l.l.l.l.l.l.",
"l.l.l.l.l.l.l.l.l.l.l.l.l.l.l.l.l.l.l.l.l.l.l.l.l.l.l.l.l.l.l.X.0 x 9.B.l.l.l.l.l.l.l.l.l.l.l.l.l.l.l.l.l.l.l.l.l.l.l.l.l.l.l.l.",
"l.l.l.l.l.l.l.l.l.l.l.l.l.l.l.l.l.l.l.l.l.l.l.l.l.l.l.l.l.l.l...0 x 9.B.l.l.l.l.l.l.l.l.l.l.l.l.l.l.l.l.l.l.l.l.l.l.l.l.l.l.l.l.",
"l.l.l.l.l.l.l.l.l.l.l.l.l.l.l.l.l.l.l.l.l.l.l.l.l.l.l.l.l.l.l...9 x 9.N.l.l.l.l.l.l.l.l.l.l.l.l.l.l.l.l.l.l.l.l.l.l.l.l.l.l.l.l.",
"l.l.l.l.l.l.l.l.l.l.l.l.l.l.l.l.l.l.l.l.l.l.l.l.l.l.l.l.l.l.l...9 x 9.B.l.l.l.l.l.l.l.l.l.l.l.l.l.l.l.l.l.l.l.l.l.l.l.l.l.l.l.l.",
"l.l.l.l.l.l.l.l.l.l.l.l.l.l.l.l.l.l.l.l.l.l.l.l.l.l.l.l.l.l.l.X.0 x 9.N.l.l.l.l.l.l.l.l.l.l.l.l.l.l.l.l.l.l.l.l.l.l.l.l.l.l.l.l.",
"l.l.l.l.l.l.l.l.l.l.l.l.l.l.l.l.l.l.l.l.l.l.l.l.l.l.l.l.l.l.l...0 x 9.m.l.l.l.l.l.l.l.l.l.l.l.l.l.l.l.l.l.l.l.l.l.l.l.l.l.l.l.l.",
"l.l.l.l.l.l.l.l.l.l.l.l.l.l.l.l.l.l.l.l.l.l.l.l.l.l.l.l.l.l.l...9 x 9.m.l.l.l.l.l.l.l.l.l.l.l.l.l.l.l.l.l.l.l.l.l.l.l.l.l.l.l.l.",
"l.l.l.l.l.l.l.l.l.l.l.l.l.l.l.l.l.l.l.l.l.l.l.l.l.l.l.l.l.l.l.o.r x &.c.l.l.l.l.l.l.l.l.l.l.l.l.l.l.l.l.l.l.l.l.l.l.l.l.l.l.l.l.",
"l.l.l.l.l.l.l.l.l.l.l.l.l.l.l.l.l.l.l.l.l.l.l.l.l.l.l.l.l.l.l.l.*.V O.z.l.l.l.l.l.l.l.l.l.l.l.l.l.l.l.l.l.l.l.l.l.l.l.l.l.l.l.l.",
"l.l.l.l.l.l.l.l.l.l.l.l.l.l.l.l.l.l.l.l.l.l.l.l.l.l.l.l.l.l.l.l.l.l.l.l.l.l.l.l.l.l.l.l.l.l.l.l.l.l.l.l.l.l.l.l.l.l.l.l.l.l.l.l.",
"l.l.l.l.l.l.l.l.l.l.l.l.l.l.l.l.l.l.l.l.l.l.l.l.l.l.l.l.l.l.l.l.l.l.l.l.l.l.l.l.l.l.l.l.l.l.l.l.l.l.l.l.l.l.l.l.l.l.l.l.l.l.l.l.",
"l.l.l.l.l.l.l.l.l.l.l.l.l.l.l.l.l.l.l.l.l.l.l.l.l.l.l.l.l.l.l.l.l.l.l.l.l.l.l.l.l.l.l.l.l.l.l.l.l.l.l.l.l.l.l.l.l.l.l.l.l.l.l.l.",
"l.l.l.l.l.l.l.l.l.l.l.l.l.l.l.l.l.l.l.l.l.l.l.l.l.l.l.l.l.l.l.l.l.l.l.l.l.l.l.l.l.l.l.l.l.l.l.l.l.l.l.l.l.l.l.l.l.l.l.l.l.l.l.l.",
"l.l.l.l.l.l.l.l.l.l.l.l.l.l.l.l.l.l.l.l.l.l.l.l.l.l.l.l.l.l.l.l.l.l.l.l.l.l.l.l.l.l.l.l.l.l.l.l.l.l.l.l.l.l.l.l.l.l.l.l.l.l.l.l.",
"l.l.l.l.l.l.l.l.l.l.l.l.l.l.l.l.l.l.l.l.l.l.l.l.l.l.l.l.l.l.l.l.l.l.l.l.l.l.l.l.l.l.l.l.l.l.l.l.l.l.l.l.l.l.l.l.l.l.l.l.l.l.l.l.",
"l.l.l.l.l.l.l.l.l.l.l.l.l.l.l.l.l.l.l.l.l.l.l.l.l.l.l.l.l.l.l.l.l.l.l.l.l.l.l.l.l.l.l.l.l.l.l.l.l.l.l.l.l.l.l.l.l.l.l.l.l.l.l.l.",
"l.l.l.l.l.l.l.l.l.l.l.l.l.l.l.l.l.l.l.l.l.l.l.l.l.l.l.l.l.l.l.l.l.l.l.l.l.l.l.l.l.l.l.l.l.l.l.l.l.l.l.l.l.l.l.l.l.l.l.l.l.l.l.l.",
"l.l.l.l.l.l.l.l.l.l.l.l.l.l.l.l.l.l.l.l.l.l.l.l.l.l.l.l.l.l.l.l.l.l.l.l.l.l.l.l.l.l.l.l.l.l.l.l.l.l.l.l.l.l.l.l.l.l.l.l.l.l.l.l.",
"l.l.l.l.l.l.l.l.l.l.l.l.l.l.l.l.l.l.l.l.l.l.l.l.l.l.l.l.l.l.l.l.l.l.l.l.l.l.l.l.l.l.l.l.l.l.l.l.l.l.l.l.l.l.l.l.l.l.l.l.l.l.l.l.",
"l.l.l.l.l.l.l.l.l.l.l.l.l.l.l.l.l.l.l.l.l.l.l.l.l.l.l.l.l.l.l.l.l.l.l.l.l.l.l.l.l.l.l.l.l.l.l.l.l.l.l.l.l.l.l.l.l.l.l.l.l.l.l.l."
};
