/* XPM */
static char *_1ab106da3cb43fb8470c6ca6657e414pX1dqNzswyfw5YxK[] = {
/* columns rows colors chars-per-pixel */
"64 64 178 2 ",
"   c #1A2E4D",
".  c #1A314F",
"X  c #1C3454",
"o  c #1E3759",
"O  c #1F3A5D",
"+  c #203C5E",
"@  c #213E61",
"#  c #254265",
"$  c #284566",
"%  c #25456A",
"&  c #284569",
"*  c #27496F",
"=  c #2B4A6E",
"-  c #264971",
";  c #2A4C73",
":  c #264E79",
">  c #294F79",
",  c #2F5174",
"<  c #2A527C",
"1  c #305276",
"2  c #32567C",
"3  c #35597A",
"4  c #395C7C",
"5  c #415B7B",
"6  c #2C5582",
"7  c #2E5886",
"8  c #2F5B89",
"9  c #335B84",
"0  c #315E8D",
"q  c #325F90",
"w  c #33618E",
"e  c #3C6289",
"r  c #346393",
"t  c #396693",
"y  c #3E6892",
"u  c #366699",
"i  c #37699E",
"p  c #3C6C9C",
"a  c #376CA2",
"s  c #3A6DA2",
"d  c #3D72A5",
"f  c #3B75AD",
"g  c #3B76B1",
"h  c #3E7AB5",
"j  c #3F7DBA",
"k  c #416582",
"l  c #466B89",
"z  c #496D8E",
"x  c #4B708D",
"c  c #446C94",
"v  c #477194",
"b  c #4C7496",
"n  c #4E7A9A",
"m  c #4D749D",
"M  c #5C7F95",
"N  c #547D9B",
"B  c #5B7F98",
"V  c #697E96",
"C  c #697E9A",
"Z  c #4375A3",
"A  c #4377AA",
"S  c #4278AD",
"D  c #527EA0",
"F  c #457DB5",
"G  c #447FB9",
"H  c #57819C",
"J  c #5A849E",
"K  c #60869F",
"L  c #4B85A8",
"P  c #4D8CAF",
"I  c #5483A4",
"U  c #5B87A1",
"Y  c #5281AF",
"T  c #518CAF",
"R  c #4C82B5",
"E  c #4B89B1",
"W  c #4480BA",
"Q  c #4E85B9",
"!  c #4C88BC",
"~  c #5084B7",
"^  c #528CB4",
"/  c #5087BB",
"(  c #5B8FBF",
")  c #4F90BB",
"_  c #5395BE",
"`  c #638FA5",
"'  c #6988A7",
"]  c #6085AA",
"[  c #638FA8",
"{  c #6C85A2",
"}  c #6391A9",
"|  c #628FBD",
" . c #6594B0",
".. c #6B9BB3",
"X. c #6895BF",
"o. c #6A9CB9",
"O. c #709DB3",
"+. c #73A4BC",
"@. c #7AA6BB",
"#. c #75AABF",
"$. c #6F9BC5",
"%. c #749EC5",
"&. c #789FC7",
"*. c #7CABC2",
"=. c #74A0C9",
"-. c #78A1CA",
";. c #7BABCB",
":. c #7DB1C6",
">. c #7EB3C9",
",. c #67B1DA",
"<. c #6BBADC",
"1. c #819DB9",
"2. c #9AACBE",
"3. c #87A8C1",
"4. c #98ADC0",
"5. c #92AFC9",
"6. c #80B4CA",
"7. c #83B9CE",
"8. c #9BB0C2",
"9. c #91B0C8",
"0. c #9EB5CA",
"q. c #9EB8CD",
"w. c #86BED3",
"e. c #8ABED1",
"r. c #9AB7D1",
"t. c #9CBAD2",
"y. c #A0BDD5",
"u. c #89C1D5",
"i. c #8EC6D9",
"p. c #8FC8D9",
"a. c #9CC1D4",
"s. c #93CCDD",
"d. c #9ACCDD",
"f. c #A6C2D5",
"g. c #ABC3D2",
"h. c #ABC7DA",
"j. c #A7CFDD",
"k. c #ABC8DA",
"l. c #95CFE0",
"z. c #97D2E4",
"x. c #9AD6E6",
"c. c #9DD8E7",
"v. c #9BD7E8",
"b. c #9CD8E9",
"n. c #9BD8E9",
"m. c #A0D3E2",
"M. c #A2D7E7",
"N. c #A3D5E4",
"B. c #ABD6E5",
"V. c #A5D9E7",
"C. c #A5DAE7",
"Z. c #A0DBEA",
"A. c #A3DBEA",
"S. c #A0D9E9",
"D. c #A5D9E8",
"F. c #A4D9E8",
"G. c #A5DAE8",
"H. c #A3DCEB",
"J. c #A1DCEB",
"K. c #A4DCEB",
"L. c #A5DDEB",
"P. c #A6DEEB",
"I. c #A3DBEC",
"U. c #A6DDEC",
"Y. c #A4DCEB",
"T. c #A8DEED",
"R. c #AADFED",
"E. c #A9DEEC",
"W. c #AAE0EE",
"Q. c #ACE1EE",
"!. c #AEE1EE",
"~. c #ADE1EE",
"^. c #ADE1EE",
"/. c #B0E2EF",
"(. c #B2E3EF",
"). c #B1E3F0",
"_. c #B4E4F0",
"`. c #B8E5F0",
/* pixels */
"b.b.b.n.n.n.n.n.n.n.n.n.n.n.n.n.n.n.n.n.n.n.n.n.n.n.n.n.n.n.n.n.n.n.n.n.n.n.n.n.n.n.n.n.n.n.n.n.n.n.n.n.n.n.n.n.n.n.n.n.n.n.n.n.",
"b.b.b.n.n.n.n.n.n.n.b.b.n.b.b.n.n.n.n.n.n.n.n.n.n.n.n.n.n.n.n.n.n.n.n.n.n.n.n.n.b.n.n.n.n.n.n.n.n.n.n.n.n.n.n.n.n.n.n.n.b.n.n.n.",
"b.n.n.n.n.n.b.n.b.b.b.b.n.b.b.b.n.n.n.n.n.n.n.n.n.n.n.n.n.n.n.n.n.n.n.n.n.n.b.n.n.n.n.n.n.n.n.n.n.n.n.n.n.n.n.n.n.n.n.n.n.n.n.n.",
"b.n.n.n.n.n.n.n.b.b.b.n.n.b.b.n.n.n.n.n.n.n.n.n.n.n.n.n.n.n.n.b.b.b.n.n.n.n.n.n.n.n.n.n.n.n.n.n.n.n.n.n.n.n.n.n.n.n.n.n.n.n.n.n.",
"b.n.n.n.n.n.n.n.n.b.b.n.n.n.n.n.n.n.n.n.n.n.n.n.n.n.n.n.n.n.n.b.b.b.n.n.n.n.n.n.n.n.n.n.n.n.n.n.n.n.n.n.n.b.n.n.n.n.n.n.n.n.n.n.",
"b.n.n.n.n.n.n.n.n.n.n.n.n.n.n.b.n.n.n.b.b.n.n.n.n.n.n.n.n.n.n.n.n.b.n.n.n.n.n.n.n.n.n.n.n.n.n.n.n.n.n.n.b.n.n.b.b.n.n.n.n.n.b.n.",
"b.n.n.n.n.n.n.b.n.n.n.n.n.n.n.b.b.b.b.b.b.n.n.n.n.n.n.n.n.n.n.n.n.n.n.n.n.n.n.n.b.n.b.b.n.n.n.n.n.n.n.n.n.b.b.n.n.n.n.b.n.n.n.n.",
"b.b.b.n.n.n.b.b.b.n.b.b.b.n.n.b.b.b.b.n.n.n.n.n.n.n.n.n.n.n.n.b.b.n.n.n.n.n.n.n.b.n.b.b.b.n.n.n.n.n.n.n.n.n.b.n.n.n.n.n.n.n.n.n.",
"b.b.b.b.b.b.b.b.b.b.b.b.n.n.n.n.n.b.n.n.n.n.n.b.b.b.H.T.!.).).W.I.b.n.n.n.n.n.n.b.b.b.b.b.n.n.n.n.n.n.b.n.n.n.n.n.n.n.n.n.n.n.n.",
"n.b.b.b.b.b.b.b.b.b.b.b.n.n.n.n.n.n.n.b.n.n.b.b.T.!.!.!.T.T.!.!./._.!.Z.n.n.b.n.n.n.b.n.n.n.n.b.n.n.n.b.n.n.n.n.b.n.n.b.n.n.n.n.",
"b.n.b.b.b.b.b.b.b.b.b.b.b.n.b.b.n.n.n.b.b.b.L.W.H.b.n.x.z.z.x.n.b.b.K.!.T.b.n.n.n.n.n.b.b.n.n.n.n.n.n.b.b.b.n.n.n.n.n.b.n.n.n.n.",
"b.b.b.b.b.n.b.b.b.b.b.b.b.b.b.b.n.b.b.b.b.L.H.b.n.n.n.z.` k J x.n.n.b.b.K.T.b.b.n.n.b.b.b.n.n.n.n.n.n.n.b.n.n.n.n.b.n.n.n.n.n.n.",
"b.b.b.b.b.n.n.n.n.n.b.b.b.b.b.n.n.n.n.b.b.b.b.n.n.n.n.M.9.f t [ b.n.b.b.b.b.b.b.n.n.b.b.b.n.n.n.n.n.b.b.b.b.n.n.n.n.n.n.n.n.n.n.",
"b.b.b.b.b.n.b.n.n.n.b.b.b.b.b.n.n.n.n.n.b.n.n.n.b.n.n.D.t.j w J b.n.n.b.b.b.b.b.n.b.b.b.b.n.n.n.n.n.b.b.n.n.n.n.n.n.n.n.n.n.n.n.",
"b.b.b.b.n.b.b.b.b.n.b.b.b.n.b.b.n.n.n.n.b.n.n.n.n.n.n.D.t.h r J b.n.n.n.b.b.b.n.n.n.b.b.b.b.n.n.n.n.n.n.n.n.n.n.n.n.n.n.n.n.n.n.",
"b.n.n.n.n.n.b.b.b.b.n.n.n.n.n.b.n.n.n.n.n.n.n.n.b.b.n.V.t.h q J b.n.b.b.b.b.n.n.n.b.b.b.b.n.n.n.n.n.n.n.n.n.n.n.n.n.n.n.n.n.n.n.",
"b.n.n.n.n.n.b.b.b.n.n.n.n.n.n.n.n.n.n.n.n.n.n.b.b.b.b.D.t.h 0 J b.b.b.b.b.b.b.n.n.b.b.b.b.n.n.n.n.n.n.n.n.n.n.n.n.n.n.n.n.n.n.n.",
"n.n.n.n.n.b.n.b.b.n.n.n.n.n.n.n.n.n.n.n.n.n.b.b.b.n.n.V.t.h 0 H b.b.b.b.b.b.b.n.n.b.b.b.b.n.n.n.n.n.n.n.n.n.n.n.n.n.n.n.n.n.n.n.",
"b.n.n.n.n.b.b.b.b.n.n.n.b.b.b.b.n.n.n.n.b.b.b.n.b.n.n.V.t.h 0 H b.b.b.b.b.b.b.b.n.b.b.b.b.n.n.b.n.n.n.n.n.n.n.n.n.n.n.n.n.n.n.n.",
"n.n.n.n.b.b.b.b.b.b.b.b.b.n.n.b.n.n.n.n.b.n.n.n.b.n.n.D.t.h 0 H b.b.b.b.b.b.b.b.n.n.n.b.b.n.n.n.n.n.n.n.n.n.n.n.n.n.n.n.n.n.n.n.",
"n.b.n.n.n.b.b.b.b.b.b.b.b.n.n.b.b.n.n.b.n.n.n.n.n.n.n.D.t.h 0 H b.b.b.b.b.b.b.b.n.n.n.b.b.b.n.n.n.n.n.n.n.n.n.n.n.n.n.n.n.n.n.n.",
"b.b.n.n.n.b.b.b.b.b.b.b.b.b.n.b.n.n.n.n.n.n.n.n.b.n.n.D.t.h 0 H b.b.b.b.b.b.b.b.b.n.n.b.b.b.n.n.n.n.n.n.n.n.n.n.n.n.n.n.n.n.n.n.",
"b.b.b.n.b.b.b.b.b.b.b.b.b.b.n.n.n.n.n.n.n.n.n.n.n.b.b.D.t.h 0 H b.b.b.b.b.b.b.b.b.b.n.n.b.n.n.b.b.n.n.n.n.n.n.n.n.n.n.n.n.n.n.n.",
"b.b.b.n.n.b.b.b.b.b.b.b.b.b.n.n.b.n.n.n.n.n.n.n.b.b.b.V.t.h 0 H b.b.b.b.b.b.b.b.b.b.b.b.b.n.n.b.n.n.n.n.b.n.n.n.n.n.n.n.n.n.n.n.",
"b.b.b.n.n.b.b.b.Z.b.b.b.b.b.b.b.b.n.n.n.b.b.b.n.b.b.b.D.t.h 0 H b.b.n.n.n.b.b.b.b.b.b.b.b.b.n.n.b.n.n.n.n.v.n.v.n.n.n.n.n.n.n.n.",
"b.b.b.n.b.b.b.L.b.b.b.b.b.b.b.x.x.x.>.................@.t.h 0 k ....l.x.n.n.n.b.b.b.b.b.b.b.b.b.b.v.z.v.x.x.x.b.b.b.n.n.n.n.n.n.",
"b.b.b.b.b.b.K.K.b.b.n.b.b.b.x.>...o.v - - @ + + @ @ @ 5 r.h 0 @ O # ` :.l.x.n.n.b.b.b.b.b.b.b.b.n.6.k 6.x.v.c.c.Z.T.b.n.n.n.n.n.",
"b.b.n.n.b.b.!.b.b.n.n.b.n.x.7.D 0 8 d f 7 % # # % - 7 m r.h 0 ; 6 % @ = } :.p.b.b.b.b.b.b.b.b.b.b.6.w v s.Z.K.Z.b.Z.!.b.n.n.n.n.",
"b.n.n.b.b.K./.b.n.n.n.n.n.s.I 0 0 o ^ _ + X @ * ; 8 j / 1.s 7 r f ; < - o % b u.n.b.b.b.b.b.n.b.T.z. .Q ^ l.c.Z.L.b.H.T.n.n.n.n.",
"b.n.n.b.b.!.T.b.x.u.u.u.u.>.n % @ O L E @ o < f f f h u o o % a j G W s . & * 4 s.s.s.s.s.s.s.m.N.l.d.p p +.l.x.Z.T.b./.b.n.n.n.",
"b.n.n.n.b.(.L.x.7.1 ; ; ; ; ; * * * ; ; ; ; ; ; ; ; 6 - o o @ > y t.y.q.2.2.4.8.g.g.g.g.g.g.g.q.M K B 3 - 3 J e.c.T.b.!.Z.n.n.n.",
"b.n.n.n.b.`.K.s.l f f f g f f f f g g g f f g g g u @   y <.# X ; ~ / / Q Q Q Q Q Q Q Q R R Q R ; ( F d < ! ,.z p.K.Z.R.K.n.n.n.",
"b.n.n.n.b.`.L.s.l X.$.$.%.%.%.%.%.%.%.%.%.%.%.%.&.] + . 9 Z + X * f g g f f f f f f f f f f f A = z e 2 # 4 t 4 u.T.b.!.K.n.n.n.",
"b.b.n.b.b._.T.x.p.B.B.B.B.j.3.{ V V *.;.C V ' =.-.| a < X   @ 6 < ; ; - % % % % , 1 1 , 1 1 , l d.s.m.s.s.w.t Z *.T.c.!.Z.b.n.n.",
"n.b.b.b.b.!.W.b.b.n.n.n.n.p.I : # o P ) O o 6 f f h j 8 # @ ; h h f f r o # * 3 u.s.s.s.s.s.s.s.W.c.H.T.b.z.+.d Y s.c.!.b.b.n.n.",
"n.b.b.b.b.K.!.b.b.n.n.n.n.s.I u 0 o T ^ O X o O + < h < u S 5.W f % ; % + $ N s.x.b.b.b.b.b.b.b.K.K.b.Z.W.W.d.N Q O.D.Z.b.b.b.n.",
"n.b.b.b.b.b.!.b.b.b.b.n.n.x.u.I 0 0 d h i % # # % ; < % s F q.9 < % # = ..w.s.b.b.b.b.b.b.b.n.n.b.K.T.b.b.b.c.e.c n c.b.n.n.n.n.",
"n.n.n.n.n.n.Z.L.b.b.b.b.b.b.x.u.*.#.n ; ; # # $ $ & # % i F 0.= # = ..6.z.v.b.b.b.b.b.b.b.b.n.n.n.n.Z.K.T.W.!.!.N.x.x.n.n.n.n.n.",
"n.n.n.n.b.b.b.Z.b.b.b.b.b.b.n.x.x.x.p.6.:.>.>.:.:.:.:.4 i F f.:.6.7.z.v.b.b.b.b.b.b.b.b.b.n.n.n.b.b.b.b.b.b.b.b.v.v.n.n.n.n.n.v.",
"b.n.n.n.b.b.b.b.b.b.b.b.n.b.b.b.b.b.b.b.b.b.b.b.b.b.x.k i F h.b.b.b.b.b.b.b.b.b.b.b.b.b.b.b.n.n.b.b.b.b.b.b.n.n.n.n.n.n.n.n.n.v.",
"b.n.n.n.n.n.b.b.n.b.b.n.n.b.b.b.b.b.b.b.b.b.b.b.b.b.x.k i F k.b.b.b.b.b.b.b.b.b.b.b.b.b.b.b.n.n.n.b.n.n.n.n.n.n.n.n.n.n.n.n.n.n.",
"n.n.b.n.n.n.b.b.b.b.b.n.n.b.b.b.b.b.b.b.b.b.b.b.b.b.x.k i F k.b.b.b.b.b.b.b.b.b.b.b.b.b.b.b.b.b.n.n.n.n.b.n.n.n.b.n.n.n.n.n.n.n.",
"n.n.b.n.n.n.n.b.b.b.n.n.b.b.b.b.b.b.b.b.b.b.b.b.b.b.x.k i F h.b.b.b.b.b.b.b.b.b.b.b.b.b.b.n.b.n.n.n.n.n.n.n.n.n.n.n.n.n.n.n.n.n.",
"b.n.b.n.n.b.b.b.b.b.n.b.b.b.b.b.b.b.b.b.b.b.b.b.b.b.x.k i F k.b.b.b.b.b.b.b.b.n.n.b.b.b.n.b.n.n.n.n.n.n.n.n.n.n.n.n.n.n.n.n.n.n.",
"n.n.n.n.b.b.b.b.n.b.b.n.n.b.b.b.b.b.b.b.b.b.b.b.b.b.x.k i F k.b.b.b.b.b.b.b.b.b.b.b.b.b.n.b.b.n.n.n.n.n.n.n.n.n.n.n.n.n.n.n.n.n.",
"n.n.n.n.n.b.n.n.b.b.b.b.b.n.n.n.n.b.b.b.b.b.b.b.b.b.x.k i F h.b.n.b.b.b.b.b.b.b.b.b.b.b.b.b.b.n.n.n.n.n.n.n.n.n.n.n.n.n.n.n.n.n.",
"b.b.b.n.b.b.b.b.b.b.b.b.b.n.b.b.b.b.b.n.b.b.b.b.b.b.x.k i F k.b.b.b.b.n.n.b.b.b.b.b.b.b.b.b.b.n.n.n.n.n.b.n.n.n.n.n.n.n.n.n.n.v.",
"b.b.b.n.n.b.b.b.b.b.b.b.b.n.b.b.b.b.b.b.b.b.b.b.b.b.x.k i F k.b.b.b.b.b.b.b.b.b.b.b.b.b.b.b.b.n.n.n.n.n.n.n.n.n.n.n.n.n.n.n.n.v.",
"n.b.n.n.n.b.b.b.b.n.b.b.b.b.b.b.b.b.b.b.b.b.b.b.b.b.x.k i F h.b.b.b.b.b.b.b.b.b.b.b.b.b.b.b.b.b.n.n.n.n.n.n.n.n.n.n.n.n.n.n.n.v.",
"n.n.n.n.n.n.n.b.n.b.b.b.b.b.b.b.b.b.b.b.b.b.b.n.b.b.x.k i F k.b.n.b.b.b.b.b.b.b.n.b.b.b.b.b.n.n.n.n.n.n.n.n.n.n.n.n.b.n.n.n.n.v.",
"n.n.n.n.n.n.b.n.n.b.b.b.b.n.b.b.n.b.b.b.b.b.n.n.b.n.x.k i G h.c.n.b.b.n.n.b.b.n.n.b.b.b.b.b.n.n.n.n.n.n.n.n.n.n.b.n.b.n.n.n.n.n.",
"n.n.n.n.n.n.n.n.n.b.b.b.b.n.n.n.b.b.b.b.b.b.n.n.n.n.x.U t p a.c.n.b.n.n.n.b.b.n.n.b.b.b.b.n.n.n.n.n.n.b.b.n.n.n.n.b.b.b.b.n.n.n.",
"n.n.n.n.n.n.n.n.n.b.b.b.n.n.n.n.b.b.b.b.b.K.K.b.n.n.n.x.J x 6.x.n.n.n.b.K.L.b.n.n.n.n.b.n.n.n.n.n.n.n.n.n.n.n.b.b.n.b.b.b.b.n.n.",
"n.n.n.n.n.n.n.n.n.n.n.b.n.n.n.n.b.b.b.b.b.b.K.W.K.b.n.v.x.v.v.v.b.Z.T.!.K.b.n.b.n.n.n.n.n.n.n.n.n.n.n.n.n.n.n.b.b.b.b.b.b.b.n.b.",
"n.n.n.n.n.n.n.n.n.n.n.n.n.n.b.b.n.n.b.b.n.n.n.b.L.!.(./.!.!.!./._.!.L.b.b.n.n.b.n.n.n.n.n.n.n.n.n.n.n.n.n.n.n.n.b.b.b.b.b.b.n.n.",
"n.n.n.n.n.n.n.n.n.n.n.n.n.n.n.b.n.n.n.b.b.n.n.n.b.b.b.K.T.!.T.L.Z.b.b.b.n.n.b.n.n.n.b.b.n.n.n.n.n.n.n.n.b.n.n.n.n.b.b.b.b.b.b.n.",
"n.n.n.n.n.n.n.n.n.n.n.n.n.n.n.n.n.n.n.n.n.n.n.n.n.b.n.n.n.n.b.n.n.n.n.n.n.n.n.n.n.n.b.n.n.n.n.n.n.n.n.n.n.n.n.n.n.n.b.b.b.b.b.n.",
"n.n.n.n.n.n.n.n.n.n.n.n.n.n.n.n.n.b.n.n.n.n.n.n.n.n.n.n.n.n.n.n.n.n.n.n.n.n.n.n.n.n.n.n.n.n.n.n.n.n.n.n.b.n.n.n.n.n.b.n.n.b.b.n.",
"n.n.n.n.n.n.n.n.n.n.n.n.n.n.n.n.n.n.n.n.n.n.n.n.n.n.n.n.n.n.n.n.n.n.n.n.n.n.n.n.n.n.n.n.n.n.n.n.n.n.n.n.n.n.n.n.n.n.n.n.n.b.n.b.",
"n.n.n.n.n.n.n.n.n.n.n.n.n.n.n.n.n.n.n.n.n.n.n.n.n.n.n.n.n.n.n.n.n.n.n.n.n.n.n.n.n.n.n.n.n.n.n.n.n.n.n.n.n.n.n.n.n.n.n.n.n.n.n.n.",
"n.n.n.n.n.n.n.n.n.n.n.n.n.n.n.n.n.n.n.n.n.n.n.n.n.n.n.n.n.n.n.n.n.n.n.n.n.n.n.n.n.n.n.n.n.n.n.n.n.n.n.n.n.n.n.n.n.n.n.n.n.n.n.n.",
"n.n.n.n.n.n.n.n.n.n.n.n.n.n.n.n.n.n.n.n.n.n.n.n.n.n.n.n.n.n.n.n.n.n.n.n.n.n.n.n.n.n.n.n.n.n.n.n.n.n.n.n.n.n.n.n.n.n.n.n.n.n.n.n.",
"n.n.n.n.n.n.n.n.n.n.n.n.n.n.n.n.n.n.n.n.n.n.n.n.n.n.n.n.n.n.n.n.n.n.n.n.n.n.n.n.n.n.n.n.n.n.n.n.n.n.n.n.n.n.n.n.n.n.n.n.n.n.n.n.",
"n.n.n.n.n.n.n.n.n.n.n.n.n.n.n.n.n.n.n.n.n.n.n.n.n.n.n.n.n.n.n.n.n.n.n.n.n.n.n.n.n.n.n.n.n.n.n.n.n.n.n.n.n.n.n.n.n.n.n.n.n.n.n.n."
};
