/* XPM */
static char *result[] = {
/* columns rows colors chars-per-pixel */
"64 64 165 2 ",
"   c #182E4D",
".  c #1B3353",
"X  c #1D3759",
"o  c #1E395B",
"O  c #203B5E",
"+  c #1F3C61",
"@  c #213D61",
"#  c #29415F",
"$  c #254366",
"%  c #2C4766",
"&  c #25456B",
"*  c #26486D",
"=  c #2B496C",
"-  c #344C6C",
";  c #254972",
":  c #294D75",
">  c #2B4F79",
",  c #2C527C",
"<  c #345575",
"1  c #3A5777",
"2  c #33577B",
"3  c #395779",
"4  c #36597B",
"5  c #3A5D7E",
"6  c #2C5682",
"7  c #2E5986",
"8  c #2E5B8A",
"9  c #325A85",
"0  c #3A5D81",
"q  c #325D8B",
"w  c #325F90",
"e  c #3E6587",
"r  c #34608D",
"t  c #3A648F",
"y  c #346293",
"u  c #396795",
"i  c #3D6F95",
"p  c #34659A",
"a  c #386698",
"s  c #36699D",
"d  c #366BA2",
"f  c #396EA3",
"g  c #3D72A4",
"h  c #3771AA",
"j  c #3A73AB",
"k  c #3F78AF",
"l  c #3B76B1",
"z  c #3D7AB5",
"x  c #3F7DB9",
"c  c #426485",
"v  c #426688",
"b  c #456B8B",
"n  c #51728E",
"m  c #446C90",
"M  c #4C7393",
"N  c #4F7895",
"B  c #4B7299",
"V  c #4E7A9E",
"C  c #527591",
"Z  c #547895",
"A  c #597B96",
"S  c #547C9A",
"D  c #587D9A",
"F  c #4273A5",
"G  c #4977A2",
"H  c #437AAD",
"J  c #497CAC",
"K  c #507AA5",
"L  c #407AB4",
"P  c #407EBA",
"I  c #58829E",
"U  c #64869F",
"Y  c #5783A2",
"T  c #5A85A1",
"R  c #5686A9",
"E  c #4F84B2",
"W  c #4C8FB7",
"Q  c #4281BE",
"!  c #4B85BD",
"~  c #4F8EB8",
"^  c #5284B5",
"/  c #5885B0",
"(  c #528DB3",
")  c #5389BD",
"_  c #5390B2",
"`  c #5191BB",
"'  c #638DA6",
"]  c #6186AA",
"[  c #628FAB",
"{  c #6693AC",
"}  c #6B96AF",
"|  c #678EB2",
" . c #6B9CB4",
".. c #6696BA",
"X. c #6F9FB9",
"o. c #739DB3",
"O. c #6FA1B9",
"+. c #74A3BB",
"@. c #4A87C0",
"#. c #528AC0",
"$. c #5C8FC0",
"%. c #5D90C1",
"&. c #6595C3",
"*. c #6997C3",
"=. c #6A99C6",
"-. c #719DC7",
";. c #7B9EC1",
":. c #76AAC1",
">. c #7BACC3",
",. c #7DB0C4",
"<. c #7FB4C9",
"1. c #67B1D7",
"2. c #8FA3B5",
"3. c #8FA6BB",
"4. c #91A9BE",
"5. c #98ACBE",
"6. c #8BADCC",
"7. c #94ACC5",
"8. c #84B0C3",
"9. c #89B4C7",
"0. c #81B5C9",
"q. c #8AB6C9",
"w. c #84BACE",
"e. c #88B9CC",
"r. c #9CB4C7",
"t. c #9CB5CB",
"y. c #9FBACA",
"u. c #86BDD3",
"i. c #89BDD2",
"p. c #95B4D2",
"a. c #91BDD0",
"s. c #9CBAD4",
"d. c #A0BDD5",
"f. c #8BC2D5",
"g. c #8EC6D9",
"h. c #92C5D6",
"j. c #91C6D9",
"k. c #93CBDC",
"l. c #9BCADC",
"z. c #A3C2D7",
"x. c #A5C4DA",
"c. c #AAC6DA",
"v. c #A6CADD",
"b. c #ACCCDD",
"n. c #B2CEDE",
"m. c #B2D1DF",
"M. c #95CFE1",
"N. c #99CDE1",
"B. c #96D1E2",
"V. c #9BD5E5",
"C. c #9CD8E7",
"Z. c #9CD7E8",
"A. c #9DD9E9",
"S. c #A2D5E4",
"D. c #ACD7E6",
"F. c #A4D9E7",
"G. c #ABD9E6",
"H. c #A3DBEA",
"J. c #AADEEC",
"K. c #B6D3E1",
"L. c #ADE0ED",
"P. c #B3E3EE",
"I. c #B6E4F0",
"U. c #BAE6F0",
"Y. c #BCE8F1",
/* pixels */
"A.Z.A.Z.A.A.A.A.A.A.A.A.A.A.C.A.C.C.A.A.A.C.A.A.A.C.A.A.A.A.A.A.A.Z.A.A.A.A.A.A.A.A.A.A.A.A.A.A.A.A.A.A.A.A.A.A.A.A.A.A.A.A.A.A.",
"Z.A.Z.Z.C.A.A.A.A.C.A.A.A.A.A.A.A.A.A.A.A.A.A.A.A.A.A.A.A.A.A.A.A.Z.A.A.A.A.A.A.A.A.A.A.C.A.A.A.A.A.A.C.A.A.A.B.A.A.A.A.B.A.A.A.",
"Z.A.A.A.A.A.A.A.A.A.A.C.A.Z.A.A.C.A.A.A.A.A.A.A.A.C.A.A.C.A.A.A.Z.A.A.A.A.A.A.B.A.A.A.A.C.C.A.A.A.A.A.A.A.A.A.B.A.A.A.A.A.B.A.B.",
"A.Z.A.A.A.A.A.A.A.A.A.A.A.Z.A.A.A.A.A.A.A.A.C.A.A.A.A.A.A.A.A.A.Z.A.Z.A.A.A.A.A.A.A.A.A.C.A.A.A.A.A.A.C.A.A.A.A.A.A.A.B.A.A.A.A.",
"Z.A.A.A.A.A.A.A.A.A.A.A.A.A.A.A.A.A.A.A.A.A.A.A.A.A.A.A.Z.Z.A.A.A.A.A.A.A.A.A.A.A.A.A.A.A.A.A.A.A.C.A.A.A.A.A.A.A.A.A.A.A.A.A.B.",
"Z.A.A.A.A.A.A.A.A.A.A.A.A.A.A.A.A.A.A.A.C.A.A.A.C.A.A.A.Z.A.A.Z.A.A.A.A.A.A.A.A.A.A.A.A.A.A.A.A.A.A.C.A.C.A.A.A.A.1.A.A.A.A.A.A.",
"A.A.A.A.A.A.A.A.A.A.A.A.A.A.A.A.A.A.A.A.A.A.A.A.A.A.A.A.Z.A.A.A.A.A.A.A.A.B.A.A.A.A.A.A.A.A.A.A.A.A.A.C.C.A.A.A.A.A.A.A.A.A.A.A.",
"Z.A.A.A.A.A.A.Z.A.A.A.A.A.A.A.A.A.C.A.A.A.A.A.A.A.A.A.A.A.A.A.A.A.A.A.A.A.A.A.A.A.A.A.A.A.A.A.A.A.A.A.C.A.A.A.B.A.A.A.B.A.B.A.A.",
"A.A.A.A.A.A.A.A.A.A.A.A.A.A.A.A.A.A.A.A.A.L.A.A.A.A.A.A.A.A.A.A.A.A.A.A.A.A.A.A.A.A.A.A.A.A.A.A.A.A.A.A.A.A.A.A.A.A.A.A.A.A.A.A.",
"A.A.A.A.A.A.A.A.A.A.A.A.A.A.A.A.A.A.A.A.C.C.A.A.A.A.A.C.A.A.A.C.A.A.A.A.A.A.A.A.A.A.A.A.A.A.A.A.A.A.A.A.A.A.A.A.A.A.A.A.A.A.A.A.",
"A.A.B.A.A.A.Z.A.A.Z.Z.A.A.A.A.A.A.A.A.A.C.A.A.C.A.C.A.A.A.A.A.A.A.A.A.A.A.A.A.A.C.A.A.A.A.A.A.A.A.A.A.A.A.A.A.A.A.A.A.A.A.A.A.1.",
"A.A.A.A.A.A.A.Z.A.A.A.A.A.A.A.A.A.A.A.A.A.A.A.A.A.A.A.A.H.C.A.A.A.A.A.A.A.A.A.A.A.A.A.A.A.A.A.A.A.A.A.A.A.A.A.A.A.A.A.A.A.A.A.A.",
"A.B.A.A.A.A.A.A.A.A.Z.A.A.A.A.A.A.A.A.A.C.C.A.A.L.L.L.A.H.F.A.A.A.A.A.A.A.A.A.A.A.A.A.A.H.A.A.A.A.A.A.A.A.A.A.A.A.A.A.A.A.A.A.A.",
"A.A.A.A.C.A.Z.A.A.A.Z.Z.A.A.A.A.A.A.A.A.C.L.L.P.L.A.A.A.A.A.A.A.A.A.A.A.A.A.A.A.A.A.A.A.H.P.P.H.A.A.A.A.A.A.A.A.A.A.A.A.A.A.A.A.",
"B.A.A.A.A.A.C.A.A.A.A.Z.A.A.A.A.A.C.A.A.L.P.L.C.A.A.A.A.A.A.A.C.A.A.A.A.A.A.A.A.A.A.A.A.A.A.H.Y.A.A.A.A.A.A.A.A.A.A.A.A.A.A.A.A.",
"A.A.A.A.A.A.C.A.A.A.A.A.A.A.A.A.A.C.A.P.P.L.C.A.A.A.A.A.A.A.A.A.A.A.A.A.A.A.A.A.A.A.A.A.A.A.A.A.L.A.A.A.A.A.A.A.A.A.A.A.A.A.A.A.",
"A.A.A.A.A.A.A.A.C.A.A.A.Z.A.A.A.A.A.U.P.C.C.A.A.A.A.A.A.A.A.A.A.C.A.A.A.A.A.A.A.A.A.A.A.A.A.A.Z.A.A.I.A.C.A.A.A.A.A.A.A.A.A.A.A.",
"A.A.A.A.A.A.A.B.A.A.A.A.A.A.A.A.A.L.P.C.g.f.g.C.C.A.A.C.A.A.A.A.A.A.A.A.A.A.A.F.A.A.A.A.A.A.B.k.A.A.L.Y.L.A.A.A.A.A.A.A.A.A.A.A.",
"A.A.A.A.B.A.A.A.A.A.A.A.Z.A.A.A.L.P.A.f.e t b f.C.C.A.A.A.A.C.A.C.C.A.A.A.A.A.A.H.A.A.A.A.B.{ b 5 <.A.L.L.A.A.A.A.A.A.A.A.A.A.A.",
"A.A.A.A.A.A.A.A.A.C.A.A.A.A.A.A.P.L.A.' N z y v f.A.A.A.A.A.A.A.H.C.A.A.A.A.A.A.A.A.A.F.B.[ 9 z H i B.A.L.L.A.A.A.A.A.A.A.A.A.A.",
"B.A.A.A.A.A.A.A.A.A.A.A.A.A.A.H.L.C.C.A.b.&.z p b f.Z.C.A.A.A.A.A.A.A.A.A.A.A.A.A.A.H.V.' q z ! h.k.A.A.A.P.V.C.A.A.A.A.A.A.A.A.",
"A.A.A.A.A.A.A.A.A.A.A.A.A.A.A.P.A.A.A.A.F.v.=.z s c u.C.A.A.A.A.C.A.A.C.A.A.A.A.A.A.V.T r z ! s.G.A.A.A.C.L.L.A.A.A.A.A.A.A.A.A.",
"A.A.A.A.A.A.A.A.Z.A.A.A.A.A.H.L.A.A.A.A.A.F.v.&.z d e w.A.A.A.A.C.A.A.H.A.A.A.A.A.V.T r j ! z.D.C.C.A.A.C.L.L.A.A.H.A.A.A.A.A.A.",
"A.A.A.A.A.A.A.A.C.A.A.A.A.A.H.H.C.A.A.A.A.A.C.m.&.x d 3 0.A.A.A.H.A.A.A.A.A.F.A.B.T q l ) z.D.A.L.C.A.A.A.F.L.V.A.A.A.A.A.A.A.A.",
"A.A.A.A.A.A.C.A.A.A.A.A.Z.A.J.A.A.A.A.A.A.A.A.C.m.=.Q f 5 <.Z.A.A.A.A.A.H.A.A.k.Y 8 l #.b.F.A.A.A.A.A.A.A.A.J.A.A.A.A.A.A.A.A.A.",
"A.A.A.A.A.A.A.A.C.A.H.A.F.Z.H.A.A.A.A.A.A.A.A.A.C.m.=.P h 2 +.<.<.0.0.0.<.<.+.5 9 z ) t.q.j.A.A.A.A.A.A.H.A.H.H.A.A.A.A.A.H.A.A.",
"A.A.A.A.A.A.C.C.L.L.L.L.P.J.A.A.C.A.C.H.A.A.A.A.C.C.m.=.x l : $ $ $ $ $ $ $ * p l ) t.c : S ,.>.k.A.A.A.A.A.H.H.A.A.A.A.A.A.A.A.",
"A.A.B.A.C.V.O.5 +.C.A.A.V.f.j.Z.A.A.A.A.A.A.A.A.C.B.h.y.=.x j , : , , , : * s z $.4.1 p j g y r R f.A.A.A.A.A.H.H.A.A.A.A.A.A.A.",
"A.A.A.A.A.A.<.H i f.H.L.l.n a N.A.A.A.A.A.A.A.C.k.I * # 3.=.Q j 6 h Q l , f z &.t.- . o ~ ( o q y Y M.Z.A.A.A.A.A.A.A.A.A.A.A.A.",
"A.A.A.A.A.A.A.g.~ i u.e.B R D S.L.A.A.A.A.A.A.V.5 = $   g p.=.k , : k a & s &.s.! 8 . o ` _ o + ; R k.Z.A.A.A.A.A.A.A.A.A.A.A.A.",
"A.A.A.A.A.L.A.A.( s I < 8 0 +.8.f.+.,.+.,.+.:.+.4 > : X h ! 6.e O   O . . = 7.#.x 8 o + ~ _ X o * R k.A.A.A.A.A.A.A.A.A.A.H.A.A.",
"A.A.A.A.A.A.A.L.j.< i 9 $ q B q ] q r 8 q q r q h h h 6 k P Q d . 3 1.q   7 P x Q 8 w a k r o o & R k.A.A.H.A.A.A.A.A.A.A.A.H.A.",
"A.A.A.A.L.H.J.F.j.5 ~ a ; a K u | p y y y y y y h j h 6 l Q P w . # H 6 X p z Q P 8 y d j q X o * R k.A.A.H.C.A.A.A.A.A.A.A.A.A.",
"A.A.A.A.J.J.F.l.E s Y q 8 [ +.+.9. .O.O.X.O.O.O.6 : : X j @.6.3 o   X   . = ;.! x 8 + + ~ ( X X & R k.A.A.A.A.A.A.A.C.A.A.A.A.L.",
"A.A.A.A.H.L.k.' h F u.J j S f.J.H.C.Z.A.C.A.A.B.3 % $   J s.=.j : q j 7 = s =.p.! 7 X o ) _ X O ; R k.A.A.A.A.A.C.A.A.A.A.A.A.A.",
"A.A.A.A.A.J.C F X.l.H.S.A F B S.A.A.Z.A.A.A.A.A.i.M % $ 7.&.x l f z Q k : h z =.7.%   @ ` W o q y T k.A.C.A.A.A.A.A.A.A.A.A.A.A.",
"A.A.A.A.A.A.e.[ j.F.H.F.N.M G M.A.A.A.A.A.A.A.A.Z.j.e.t.&.l d : 6 8 7 8 : = f x *.2.% 9 H g 6 8 V w.C.A.A.A.A.A.A.A.A.A.A.A.A.A.",
"A.A.A.A.A.A.A.J.J.J.J.J.L.J.V.A.A.A.A.C.H.A.A.A.A.F.n.%.l d @ @ O @ + @ O O & d z &.5.0 , V X.+.w.V.A.A.A.A.A.A.A.A.A.A.A.A.A.H.",
"A.A.A.A.A.A.A.A.A.H.J.J.A.A.H.A.A.A.A.A.A.A.A.A.F.b.%.x d 2 }  . . . . . . .{ 4 d z ..y.o.0.V.Z.C.A.A.A.A.A.H.H.A.A.A.A.A.A.A.A.",
"H.A.A.A.A.A.A.A.A.C.A.A.A.A.J.A.C.A.A.A.A.A.A.F.b.%.l y v g.A.A.Z.C.A.A.Z.A.Z.f.v d z ) n.F.A.A.Z.A.A.A.A.A.H.A.A.A.H.A.A.A.A.A.",
"A.A.A.A.A.A.A.A.A.A.A.A.A.A.J.H.A.A.A.H.A.A.G.v.$.z w v j.A.A.A.A.A.A.A.A.A.A.A.g.e p z $.c.G.A.A.A.A.A.A.A.L.A.A.A.A.A.A.A.A.A.",
"A.A.A.A.A.A.A.A.A.A.A.A.A.A.A.L.A.A.A.A.A.G.c.) z w K M.A.A.A.A.A.A.A.A.A.A.A.A.A.g.B y l ) b.F.A.A.A.A.A.A.L.C.A.A.A.A.A.A.A.H.",
"A.A.A.A.A.A.A.A.A.A.A.A.A.A.A.L.H.A.A.C.K.h.) z w G M.A.A.A.A.A.A.A.A.A.A.A.A.A.A.A.V.N y z ) c.L.A.A.A.A.L.L.C.A.A.A.A.A.A.A.A.",
"A.A.A.A.A.A.A.A.A.A.A.A.A.A.A.H.L.A.A.h.6.! l q K M.A.A.A.A.A.A.A.A.A.A.A.A.A.A.A.A.A.B.Y w l ) z.S.A.A.A.P.A.A.A.A.A.A.A.A.A.A.",
"A.A.A.A.A.A.A.A.A.A.A.A.A.A.A.A.P.H.A.D r j q N M.A.A.A.A.A.A.A.A.A.A.A.A.A.A.A.A.A.A.A.V.Y q l R A M.A.P.L.A.A.A.A.A.A.A.A.A.A.",
"A.A.A.A.H.A.A.A.A.A.A.A.A.A.A.A.H.U.A.B.Z b S M.A.H.A.A.A.A.A.H.A.A.A.A.H.A.A.A.A.A.A.A.A.B.T a , } C.L.I.C.A.A.A.A.A.A.A.A.A.A.",
"A.A.A.A.A.A.A.A.A.A.A.A.A.A.A.A.A.P.I.A.V.B.V.Z.A.A.A.A.A.A.A.A.A.A.A.A.A.A.A.A.A.A.A.A.A.A.M.f.u.V.L.Y.A.A.A.A.A.A.A.A.A.A.A.A.",
"A.A.A.A.A.A.A.A.A.A.A.A.A.A.A.A.Z.H.U.I.A.A.A.A.A.A.A.A.A.A.A.A.A.A.A.A.A.A.A.A.A.A.A.A.A.A.A.A.A.L.Y.H.A.L.A.A.A.A.A.A.A.A.A.A.",
"A.A.A.A.A.A.A.A.A.A.A.A.H.A.A.A.A.A.H.I.U.A.A.A.A.A.A.A.A.A.A.A.A.A.A.A.A.A.A.A.A.A.A.A.A.A.A.A.L.Y.H.A.A.A.A.A.A.A.A.A.A.A.A.A.",
"A.A.A.A.A.A.A.A.A.A.A.A.A.A.A.A.A.A.A.A.P.Y.J.A.A.A.A.A.A.A.A.A.A.A.A.A.A.A.A.A.A.A.A.A.A.A.J.I.P.F.A.A.A.F.A.A.A.H.A.A.A.A.A.A.",
"A.A.A.A.A.A.A.A.A.A.A.A.A.A.A.A.A.A.A.A.A.A.I.I.J.A.A.A.A.A.A.A.A.A.A.A.A.A.A.A.A.A.A.A.J.I.I.H.A.A.A.A.A.A.A.A.A.A.A.A.A.A.A.A.",
"A.A.A.A.A.Z.A.A.A.A.A.A.A.A.A.A.A.A.A.A.A.A.A.A.J.L.J.J.A.A.A.A.A.A.A.A.A.A.A.A.A.J.J.J.J.A.A.A.A.A.A.A.A.A.A.A.A.A.A.A.H.A.A.A.",
"V.F.A.A.A.A.A.A.A.A.A.A.A.A.A.A.A.A.A.A.A.A.A.A.A.A.A.A.A.A.A.A.A.A.A.A.A.A.A.A.A.A.A.A.A.A.A.A.A.A.A.A.A.A.A.H.A.A.A.A.A.A.A.A.",
"A.A.A.A.A.A.A.A.A.A.H.A.A.A.A.A.A.A.A.A.A.A.A.A.A.A.A.A.A.A.H.A.A.A.A.A.A.A.A.A.A.A.A.A.A.A.A.A.A.H.A.A.A.A.A.A.A.A.A.A.A.A.A.A.",
"A.A.A.A.A.A.A.A.A.A.A.A.A.A.A.A.A.A.A.A.A.A.A.A.A.A.A.A.A.A.A.A.A.A.A.A.A.A.A.A.A.A.A.A.A.A.A.A.A.A.A.A.A.A.A.A.A.A.A.A.A.A.A.A.",
"A.A.A.A.A.A.F.A.A.A.A.A.A.A.A.A.A.A.A.H.A.A.A.A.A.A.A.A.A.A.A.A.A.A.A.A.A.A.A.A.A.A.A.A.A.A.A.A.A.A.A.A.A.A.A.A.A.A.A.A.A.A.A.A.",
"A.A.A.A.A.A.A.A.A.A.A.A.A.A.A.A.A.A.A.A.A.A.A.A.A.A.A.A.A.A.A.A.A.A.A.A.A.A.A.A.A.A.A.A.A.A.A.A.A.A.A.A.A.A.A.A.H.A.A.A.A.A.A.A.",
"A.A.A.A.A.A.A.A.A.A.A.A.A.A.A.A.A.A.A.H.A.A.A.A.H.A.A.A.A.A.A.A.A.A.A.A.A.A.A.A.A.A.A.A.A.A.H.A.A.A.A.A.A.A.A.A.A.A.A.A.A.A.A.A.",
"A.A.A.A.A.A.A.A.A.A.A.A.A.A.A.A.A.A.A.A.A.A.A.A.A.A.A.A.A.A.A.A.A.A.A.A.A.A.A.A.A.A.A.A.A.A.A.A.A.A.A.A.A.A.H.A.A.A.A.A.A.H.H.A.",
"A.A.A.A.A.A.A.A.A.A.A.A.A.A.A.A.A.A.A.A.A.A.A.A.A.A.A.A.A.A.A.A.A.A.A.A.A.A.A.A.A.A.A.A.A.A.A.A.A.A.A.A.A.H.A.A.A.A.A.A.A.A.A.A.",
"A.A.A.A.A.A.A.A.A.A.A.A.A.A.A.A.A.A.A.A.A.A.A.A.A.A.A.A.A.A.A.A.A.A.A.A.A.A.A.A.A.A.H.A.A.A.A.A.A.A.A.A.A.A.A.A.A.A.A.A.A.A.A.A.",
"A.A.A.A.A.A.A.A.A.A.A.A.A.A.A.A.A.A.A.A.A.A.A.A.A.A.A.A.H.A.A.A.A.A.A.A.A.A.A.A.A.A.A.A.A.A.A.A.A.A.A.A.A.A.A.A.A.A.A.A.A.A.A.A.",
"A.A.A.A.A.A.A.A.A.A.A.A.A.A.A.A.A.A.A.A.A.H.A.A.A.A.A.A.A.A.A.A.A.A.A.A.A.A.A.A.A.A.A.A.A.A.A.A.A.A.A.A.A.A.A.A.A.A.A.A.A.A.A.A.",
"A.A.A.A.A.A.A.A.A.A.A.A.A.A.A.A.A.A.A.A.A.A.A.A.A.A.A.A.A.A.A.A.A.A.A.A.A.A.A.A.A.A.A.A.A.A.A.A.A.A.A.H.A.A.A.A.A.A.A.A.A.A.A.A."
};
