/* XPM */
static char *result[] = {
/* columns rows colors chars-per-pixel */
"64 64 165 2 ",
"   c #182E4D",
".  c #1B3353",
"X  c #1D3759",
"o  c #1E395B",
"O  c #203B5E",
"+  c #1F3C61",
"@  c #213D61",
"#  c #29415F",
"$  c #254366",
"%  c #2C4766",
"&  c #25456B",
"*  c #26486D",
"=  c #2B496C",
"-  c #344C6C",
";  c #254972",
":  c #294D75",
">  c #2B4F79",
",  c #2C527C",
"<  c #345575",
"1  c #3A5777",
"2  c #33577B",
"3  c #395779",
"4  c #36597B",
"5  c #3A5D7E",
"6  c #2C5682",
"7  c #2E5986",
"8  c #2E5B8A",
"9  c #325A85",
"0  c #3A5D81",
"q  c #325D8B",
"w  c #325F90",
"e  c #3E6587",
"r  c #34608D",
"t  c #3A648F",
"y  c #346293",
"u  c #396795",
"i  c #3D6F95",
"p  c #34659A",
"a  c #386698",
"s  c #36699D",
"d  c #366BA2",
"f  c #396EA3",
"g  c #3D72A4",
"h  c #3771AA",
"j  c #3A73AB",
"k  c #3F78AF",
"l  c #3B76B1",
"z  c #3D7AB5",
"x  c #3F7DB9",
"c  c #426485",
"v  c #426688",
"b  c #456B8B",
"n  c #51728E",
"m  c #446C90",
"M  c #4C7393",
"N  c #4F7895",
"B  c #4B7299",
"V  c #4E7A9E",
"C  c #527591",
"Z  c #547895",
"A  c #597B96",
"S  c #547C9A",
"D  c #587D9A",
"F  c #4273A5",
"G  c #4977A2",
"H  c #437AAD",
"J  c #497CAC",
"K  c #507AA5",
"L  c #407AB4",
"P  c #407EBA",
"I  c #58829E",
"U  c #64869F",
"Y  c #5783A2",
"T  c #5A85A1",
"R  c #5686A9",
"E  c #4F84B2",
"W  c #4C8FB7",
"Q  c #4281BE",
"!  c #4B85BD",
"~  c #4F8EB8",
"^  c #5284B5",
"/  c #5885B0",
"(  c #528DB3",
")  c #5389BD",
"_  c #5390B2",
"`  c #5191BB",
"'  c #638DA6",
"]  c #6186AA",
"[  c #628FAB",
"{  c #6693AC",
"}  c #6B96AF",
"|  c #678EB2",
" . c #6B9CB4",
".. c #6696BA",
"X. c #6F9FB9",
"o. c #739DB3",
"O. c #6FA1B9",
"+. c #74A3BB",
"@. c #4A87C0",
"#. c #528AC0",
"$. c #5C8FC0",
"%. c #5D90C1",
"&. c #6595C3",
"*. c #6997C3",
"=. c #6A99C6",
"-. c #719DC7",
";. c #7B9EC1",
":. c #76AAC1",
">. c #7BACC3",
",. c #7DB0C4",
"<. c #7FB4C9",
"1. c #67B1D7",
"2. c #8FA3B5",
"3. c #8FA6BB",
"4. c #91A9BE",
"5. c #98ACBE",
"6. c #8BADCC",
"7. c #94ACC5",
"8. c #84B0C3",
"9. c #89B4C7",
"0. c #81B5C9",
"q. c #8AB6C9",
"w. c #84BACE",
"e. c #88B9CC",
"r. c #9CB4C7",
"t. c #9CB5CB",
"y. c #9FBACA",
"u. c #86BDD3",
"i. c #89BDD2",
"p. c #95B4D2",
"a. c #91BDD0",
"s. c #9CBAD4",
"d. c #A0BDD5",
"f. c #8BC2D5",
"g. c #8EC6D9",
"h. c #92C5D6",
"j. c #91C6D9",
"k. c #93CBDC",
"l. c #9BCADC",
"z. c #A3C2D7",
"x. c #A5C4DA",
"c. c #AAC6DA",
"v. c #A6CADD",
"b. c #ACCCDD",
"n. c #B2CEDE",
"m. c #B2D1DF",
"M. c #95CFE1",
"N. c #99CDE1",
"B. c #96D1E2",
"V. c #9BD5E5",
"C. c #9CD8E7",
"Z. c #9CD7E8",
"A. c #9DD9E9",
"S. c #A2D5E4",
"D. c #ACD7E6",
"F. c #A4D9E7",
"G. c #ABD9E6",
"H. c #A3DBEA",
"J. c #AADEEC",
"K. c #B6D3E1",
"L. c #ADE0ED",
"P. c #B3E3EE",
"I. c #B6E4F0",
"U. c #BAE6F0",
"Y. c #BCE8F1",
/* pixels */
"A.A.Z.Z.A.A.A.A.A.A.A.A.A.A.A.A.A.A.A.A.A.A.H.H.A.A.A.A.A.A.A.A.A.A.A.A.H.A.A.A.F.A.A.A.A.A.A.A.A.A.A.A.A.A.A.A.A.A.A.H.A.A.A.A.",
"A.A.A.Z.A.A.B.A.A.A.A.A.B.A.A.A.A.A.A.A.A.A.A.A.A.A.A.A.A.A.A.A.H.A.A.A.A.A.A.A.A.A.A.A.A.A.A.A.A.A.A.A.A.A.A.A.A.A.A.A.A.A.A.A.",
"A.Z.A.A.A.A.A.B.A.A.A.A.A.A.A.A.A.A.A.A.A.A.A.A.A.A.A.A.A.A.A.A.A.A.A.H.H.A.A.A.A.A.A.A.A.A.A.A.A.A.A.A.A.A.A.A.A.A.H.A.A.A.A.A.",
"A.Z.Z.Z.A.A.A.A.B.A.A.A.A.A.A.A.A.A.A.A.A.A.A.A.A.A.A.A.H.A.A.A.A.A.A.A.A.A.A.A.A.A.A.A.A.A.A.A.A.A.H.A.A.A.A.A.A.A.A.A.A.A.A.A.",
"A.A.A.A.Z.Z.A.A.B.A.A.A.A.A.A.A.A.A.F.A.A.A.A.A.A.A.A.A.A.A.A.A.A.A.A.A.A.A.A.A.A.A.A.A.A.A.A.A.A.A.A.A.A.A.A.A.A.A.A.A.A.A.A.A.",
"A.A.A.A.A.A.A.A.A.A.A.A.A.A.A.A.A.A.A.A.A.A.A.A.A.A.A.A.A.A.A.A.A.A.A.A.A.A.A.A.A.A.A.A.A.A.A.A.A.A.A.A.A.A.H.A.A.A.H.A.A.A.A.A.",
"A.A.A.Z.A.A.A.A.A.A.A.A.A.A.A.A.A.A.A.A.A.A.F.A.A.A.A.A.A.A.A.A.A.A.A.A.A.A.A.A.A.A.A.A.A.A.A.A.A.A.A.A.A.A.A.A.A.A.A.A.A.A.A.A.",
"Z.A.A.Z.B.A.A.A.A.A.A.A.A.A.A.A.A.A.A.A.A.A.A.A.A.A.H.A.A.A.A.A.A.A.A.A.A.A.A.A.A.A.A.F.A.A.A.A.A.A.A.A.A.A.A.A.A.A.A.A.A.A.A.A.",
"A.A.A.A.A.A.A.A.A.A.A.A.A.A.A.A.A.A.A.A.A.A.F.A.C.A.H.A.A.H.A.A.A.A.A.A.A.A.A.A.A.A.A.A.A.A.A.A.A.A.A.A.H.A.A.A.A.A.A.A.A.A.A.A.",
"A.A.A.A.A.A.A.A.A.A.A.A.A.A.A.A.A.A.A.A.C.L.J.J.L.H.L.A.A.A.A.A.A.A.A.A.A.A.H.L.L.H.H.H.A.A.A.A.A.H.A.A.A.A.A.A.A.A.A.A.A.A.A.A.",
"A.A.A.A.A.A.A.A.A.A.A.A.A.A.A.A.A.A.A.J.P.L.H.A.A.A.H.A.A.A.A.A.A.A.A.A.A.A.A.A.A.H.L.P.J.A.A.A.A.A.A.A.A.A.A.A.A.A.A.H.A.A.A.A.",
"A.A.A.A.A.A.A.A.B.A.A.A.A.A.A.A.A.F.P.P.H.C.A.A.A.A.A.A.A.A.A.A.A.A.A.A.A.A.A.A.A.A.A.H.I.I.F.A.A.A.A.A.A.A.A.A.A.A.A.A.A.A.A.A.",
"A.A.B.A.A.A.A.A.A.A.A.A.A.A.A.A.H.Y.P.A.H.A.A.A.C.A.A.A.A.A.A.A.A.A.A.A.A.A.A.A.A.A.A.A.A.L.Y.J.A.A.A.A.A.A.A.A.A.A.A.A.A.A.A.A.",
"A.A.A.A.A.A.A.A.A.A.A.A.A.A.A.A.U.L.V.j.A.A.A.A.A.A.H.C.k.k.k.k.M.V.k.k.C.A.A.A.A.A.A.A.k.C.J.Y.J.A.A.A.A.A.A.A.A.A.A.H.A.A.A.A.",
"A.A.A.A.A.A.A.A.A.A.A.A.A.A.A.A.J.A.0.c l.C.A.A.A.A.C.f.Y R R R ^ R R Y w.V.A.A.A.A.A.S.A } Z.J.U.A.A.A.H.A.A.A.A.A.A.A.A.A.A.A.",
"A.A.A.A.A.A.A.A.A.A.A.A.A.A.L.A.A.j.0 J y.G.A.A.A.A.f.I y ; * & & ; ; w V w.A.A.A.A.F.x.R 2 i.A.I.I.A.A.A.A.A.A.A.A.A.A.A.A.A.A.",
"A.A.A.A.A.A.A.A.A.A.A.A.A.A.I.A.A.B.i H W a.G.A.A.C.>.r r O o o o o o 8 8 X.Z.A.A.G.x.) L a g.A.A.I.J.Z.A.H.A.A.A.A.A.A.A.A.A.A.",
"A.A.A.A.A.A.A.A.A.A.A.A.A.A.L.A.A.A._ 8 z W z.G.A.C.>.y o X o o X o o o 6 X.V.F.H.c.) l w J Z.A.A.J.L.A.A.A.A.A.A.A.A.A.A.A.A.A.",
"B.A.A.A.A.A.A.A.A.A.A.A.A.L.A.A.A.A.A._ q z #.z.F.j.S g _ ( _ r q _ _ ( g V e.F.c.) z w Y N.A.A.A.A.I.A.A.A.A.A.A.A.A.A.A.A.A.A.",
"A.A.A.A.A.A.A.A.A.A.A.A.A.A.A.A.A.A.A.B.' q l @.b.q.: j ( ` ~ k j ~ ` ` H , o.n.%.l y Y N.A.A.A.A.A.J.J.A.A.A.A.A.A.A.A.A.A.A.A.",
"A.A.A.B.A.A.A.A.A.A.A.A.A.A.A.A.A.A.A.A.V.T q L ) t.c p o o o s s + o o q 5 r.$.z y Z B.A.A.A.A.A.A.A.L.A.A.A.A.A.A.A.A.A.A.A.A.",
"A.A.A.A.A.A.A.A.A.A.A.A.A.A.A.A.A.A.A.A.A.V.T q l ) t.1 . X + w y o X . % 5.&.l p M Z.A.A.H.A.A.A.A.A.L.A.A.A.A.A.A.A.A.H.A.A.A.",
"A.A.A.A.A.A.A.A.A.A.A.A.A.A.A.A.A.A.A.A.A.A.V.T q z ) 4.- 7 8 8 8 8 8 % 2.&.x d e f.A.A.A.A.A.A.A.A.A.H.A.A.A.A.A.A.A.A.A.A.A.A.",
"A.A.A.A.A.A.A.A.A.A.A.A.A.A.A.A.H.A.A.A.A.F.A.N.Y 9 l %.t.! P x P P Q 7.*.z d e f.A.A.A.A.A.A.A.A.A.A.A.A.A.A.A.A.A.A.A.A.A.A.A.",
"A.A.A.A.A.A.A.A.A.A.A.A.A.A.A.A.A.A.A.A.A.A.F.A.k.5 u z &.s.#.Q x @.p.=.P d 3 f.A.A.A.A.A.A.A.A.A.A.A.A.A.A.A.A.A.A.A.A.A.A.A.A.",
"A.A.A.B.A.B.A.A.A.A.A.A.A.A.A.A.A.A.A.A.A.A.A.A.A.+.& s z &.7.z z ;.-.z f & { Z.A.A.A.A.A.A.A.A.A.A.A.A.A.A.A.A.H.A.A.A.A.A.A.A.",
"A.A.A.A.A.A.A.A.A.A.A.A.A.A.A.A.A.A.A.A.A.A.A.A.A.<.$ & f s & 2 p = d f ; o  .A.A.A.A.A.A.A.A.A.A.A.A.A.A.A.A.A.A.A.A.A.A.A.A.A.",
"A.B.A.A.A.A.A.A.A.A.A.A.A.A.A.B.A.A.A.A.A.C.A.A.A.<.$ : , & . . X . $ > > +  .A.A.A.A.A.A.A.A.A.A.A.A.A.A.A.A.A.A.A.A.A.A.A.A.A.",
"A.A.A.A.A.A.A.A.A.A.A.A.A.A.A.A.A.A.A.A.A.A.H.A.A.<.$ 2 z s . r ,   8 j 7 O  .A.A.A.A.A.A.A.A.A.A.A.A.A.A.A.A.A.A.A.A.A.A.A.A.A.",
"A.A.A.A.A.A.A.A.A.A.A.A.A.A.A.A.A.A.A.A.A.A.A.A.A.0.$ , P k o 1.H X j @.7 $  .A.A.A.A.A.A.A.A.A.A.A.A.A.A.A.A.A.A.A.A.A.A.A.A.A.",
"A.A.A.A.A.B.A.A.A.A.A.A.A.A.A.A.A.A.A.C.C.A.F.A.A.0.$ , j : . < $   8 P 8 @ } A.A.A.A.A.A.A.A.A.A.A.A.A.A.A.A.A.A.A.A.H.A.A.A.A.",
"A.A.A.A.A.A.A.A.A.A.A.A.A.A.A.A.C.A.H.A.A.A.A.A.A.0.$ : 6 > X X . o : d 6 o  .A.A.A.A.A.A.A.A.A.A.A.A.A.A.A.A.A.A.A.A.A.A.A.A.A.",
"A.A.A.A.A.A.A.A.A.C.A.A.A.A.A.A.A.A.A.A.A.A.A.A.A.0.$ , l z e f y 1 j j > o  .A.A.A.A.A.A.A.A.A.A.A.A.A.A.A.A.A.A.A.A.A.A.A.A.A.",
"A.A.A.A.A.C.A.A.A.A.A.A.A.A.A.A.A.A.A.A.A.A.A.A.A.+.: j x -.8.Q Q 6.=.z d $ { Z.A.A.A.A.A.A.A.A.A.A.A.A.A.A.H.A.A.A.A.A.A.A.A.A.",
"A.A.A.A.A.A.A.A.A.A.C.A.A.A.A.A.A.A.A.A.A.A.A.C.0.2 j x =.p.! Q P #.s.&.z d 4 g.A.A.A.A.A.A.A.A.A.H.A.A.A.A.A.A.A.A.A.A.A.A.A.A.",
"Z.A.A.A.A.A.A.A.A.A.C.C.L.A.A.A.A.A.A.A.A.A.C.<.9 j x =.3.g h k l j H 7.&.z s v k.A.A.A.A.A.A.A.H.A.A.A.A.A.A.A.A.A.A.A.A.H.A.A.",
"Z.A.Z.A.A.A.A.C.A.A.A.A.A.C.C.C.A.A.A.A.A.A.w.3 h P =.y.#   . 6 6 X   # t.$.z p b k.Z.A.A.A.A.A.A.A.A.J.A.A.A.A.A.A.A.A.A.A.A.A.",
"A.A.A.A.C.C.A.A.A.A.A.A.L.C.A.A.A.A.A.C.A.w.e d L =.K.f.& & : h h : $ & w.n.$.l y V k.A.A.A.A.A.A.A.A.J.A.A.A.A.A.A.A.A.A.A.A.A.",
"A.Z.A.A.A.C.A.A.A.A.A.A.L.C.C.A.A.A.A.F.f.e d x =.m.F.B.I & > h h > & n j.H.b.$.z w N k.A.F.A.A.A.A.A.J.A.A.A.A.A.A.A.A.A.A.A.A.",
"A.A.A.A.A.A.A.A.A.A.A.A.L.L.A.C.A.C.V.f.b s z &.m.F.A.A.g.e 2 f h 2 3 i.A.A.H.b.$.z w Y k.A.A.A.A.A.J.J.A.A.A.A.A.H.A.A.A.A.A.A.",
"A.A.A.Z.A.Z.A.A.A.A.A.A.A.P.C.A.A.A.w.b p x &.b.S.A.A.A.A.V.+.r y X.B.C.A.A.A.F.c.( z r N k.A.A.A.A.I.A.A.H.A.A.A.A.A.A.A.A.A.A.",
"A.A.A.A.A.A.A.A.A.C.A.A.C.L.L.C.A.f.b p z &.b.F.A.A.A.A.A.A.:.9 y X.A.A.A.A.A.A.G.c.) l 8 I V.A.A.J.I.A.A.A.A.A.A.A.A.A.A.A.A.A.",
"A.Z.Z.A.A.A.A.A.H.A.C.A.A.H.U.F.A.f.t z &.v.F.A.A.A.A.A.A.A.+.8 r O.A.A.A.A.A.A.A.G.s.! j b V.A.H.U.H.A.A.A.A.A.A.A.A.A.A.A.A.A.",
"A.A.A.A.A.A.A.A.A.A.A.A.A.H.L.U.A.f.c N b.F.A.A.A.A.A.A.A.A.,.r y O.A.A.A.A.A.A.A.A.G.6.r Z V.A.U.L.A.A.A.A.A.A.A.A.A.A.A.A.A.A.",
"A.Z.A.A.A.A.A.A.A.A.A.A.A.A.A.P.P.S.f.' A.A.A.A.A.A.A.A.A.A.:.q y O.A.A.A.A.A.A.A.A.A.h.I M.A.I.I.A.A.A.A.A.A.A.A.A.A.A.A.A.A.A.",
"Z.A.A.A.A.A.A.A.C.A.A.A.A.A.A.H.U.P.A.A.A.A.A.A.A.A.A.A.A.A.:.q y  .A.A.A.A.A.A.A.A.A.A.C.A.I.U.A.A.A.H.A.A.A.A.A.A.A.A.A.A.A.A.",
"A.A.A.A.A.A.A.A.A.A.C.H.A.A.A.A.A.P.U.H.A.A.A.A.A.A.A.A.A.A.:.q p X.C.A.A.A.A.A.A.A.A.A.F.P.P.A.A.A.A.A.A.H.A.A.A.A.A.A.A.A.A.A.",
"A.A.A.A.A.A.A.A.A.A.A.A.A.A.A.A.A.A.J.P.L.H.A.A.A.A.A.A.F.H.a.] | 9.H.A.A.A.A.A.A.A.H.L.I.L.A.A.A.A.A.A.A.A.A.A.A.A.A.A.A.A.A.A.",
"A.A.A.A.A.A.A.A.A.A.A.A.A.A.A.A.A.A.A.A.A.H.L.H.A.A.A.A.N.S.0.r a X.L.S.N.A.A.A.A.L.L.J.A.A.A.A.A.A.A.A.A.A.A.A.A.A.A.A.A.A.A.A.",
"A.Z.A.A.A.A.A.A.A.A.A.A.A.A.C.A.A.A.A.A.A.A.A.A.L.H.A.M.p D +.B K :.p.B L Z.A.J.J.A.A.A.A.A.A.A.A.A.A.A.A.A.A.A.A.A.A.A.A.A.A.A.",
"A.A.A.A.A.A.A.A.A.A.A.A.A.A.A.A.B.A.A.A.A.A.A.A.A.A.J.g.M R 5 r a | Z F B D.A.A.A.A.A.A.A.A.A.A.A.A.A.A.A.A.A.A.A.A.A.H.A.A.A.A.",
"A.A.A.A.A.A.A.A.A.A.A.A.A.A.A.A.A.A.A.A.A.A.A.A.C.A.L.C.l.B 8 $ ; 8 h A N.L.A.Z.A.A.A.A.A.A.A.A.A.A.A.A.A.A.A.A.A.A.A.A.A.A.A.A.",
"A.A.A.A.A.A.A.A.A.A.A.A.C.A.C.C.A.A.A.A.A.A.A.A.A.A.L.A.L.f.< 2 y q J S.A.J.J.Z.A.A.A.A.A.A.A.A.A.A.A.A.A.A.A.A.A.A.A.A.A.A.A.A.",
"A.A.A.A.A.A.A.A.A.A.A.A.A.A.C.C.A.A.A.A.A.A.A.A.A.H.L.A.H.w.I i ~ Y u.H.J.J.J.A.A.A.A.A.A.A.A.A.A.A.A.A.A.A.A.A.A.A.A.A.A.A.A.A.",
"A.A.A.A.A.A.A.A.A.A.A.A.A.A.A.A.A.A.A.A.A.B.A.A.A.H.L.A.f.g i < 5 s g N.A.J.J.A.A.A.A.A.A.A.A.A.A.A.A.A.H.A.A.A.A.A.A.A.A.A.A.A.",
"A.A.A.B.A.A.A.A.A.A.A.A.C.A.A.A.A.A.A.A.A.A.A.A.A.A.L.+.e _ ~ g.j.^ F X.g.L.A.A.A.A.A.A.A.A.A.A.A.A.A.A.A.A.A.A.A.A.A.A.A.A.A.A.",
"A.A.A.A.A.A.A.A.A.A.A.A.B.A.A.A.A.A.A.A.Z.Z.A.A.A.A.N.c J 9.G.H.H.N.U F { J.A.A.A.A.A.A.A.A.A.A.A.A.A.A.A.A.A.A.A.A.A.A.A.A.A.A.",
"A.A.A.A.A.A.A.A.A.A.A.A.A.A.A.A.A.Z.A.A.Z.A.A.A.A.A.B...8.V.F.H.J.H.k.C 9.A.A.A.A.A.A.A.A.A.A.A.A.A.A.A.A.A.A.A.A.A.A.A.A.A.A.A.",
"A.A.A.A.A.A.A.A.A.A.A.A.B.A.A.A.A.A.A.A.Z.A.A.A.A.A.A.C.J.J.J.H.H.H.L.L.A.A.Z.A.A.A.A.A.A.A.A.A.A.A.A.A.A.A.A.A.A.A.A.A.A.A.A.A.",
"B.A.A.A.A.A.A.A.A.A.A.A.A.A.A.A.A.A.A.A.A.A.A.A.A.A.A.A.A.F.H.P.L.J.F.A.A.A.A.A.A.A.A.A.A.H.A.A.A.A.A.A.A.A.A.A.A.A.A.A.A.A.A.A.",
"A.A.A.A.A.A.A.A.A.A.A.A.A.A.A.A.A.A.A.A.A.Z.Z.A.A.A.A.A.A.A.A.A.A.A.A.A.A.F.A.A.A.A.A.A.A.A.A.Z.A.A.A.A.A.A.A.A.A.A.A.A.A.A.A.A.",
"A.A.B.A.A.A.A.A.A.A.A.A.A.A.A.A.A.A.A.A.Z.Z.A.A.A.C.Z.A.A.A.A.A.A.A.A.A.A.A.A.A.A.A.A.A.Z.A.A.A.A.A.A.A.A.A.A.A.A.A.A.A.A.A.A.A.",
"A.A.A.A.A.A.A.A.A.A.A.A.A.A.A.A.A.A.A.A.A.A.A.A.A.A.A.A.A.A.A.A.A.A.A.A.A.A.A.A.A.A.A.A.A.A.A.A.A.A.A.A.A.A.A.A.A.A.A.A.A.A.A.A.",
"B.A.A.A.A.A.B.A.A.A.A.A.B.A.A.A.Z.A.Z.A.Z.Z.A.A.Z.Z.Z.A.A.A.A.A.A.A.A.A.A.A.A.A.A.A.A.Z.A.A.A.Z.A.A.A.A.A.A.A.A.A.A.A.A.A.A.A.A."
};
