/* XPM */
static char *_c5089632c0c4180c22625e719c988ebBmdMQKrS3MEcJLN6[] = {
/* columns rows colors chars-per-pixel */
"64 64 8 1 ",
"  c None",
". c #5D2C28",
"X c #37474F",
"o c #8A4836",
"O c #E69C69",
"+ c #99D9EA",
"@ c #DEF2FF",
"# c white",
/* pixels */
"++++++++++++++++++++++++++++++++++++++++++++++++++++++++++++++++",
"++++++++++++++++++++++++++++++++++++++++++++++++++++++++++++++++",
"++++++++++++++++++++++++++++++++++++++++++++++++++++++++++++++++",
"++++++++++++++++++++++++++++++++++++++++++++++++++++++++++++++++",
"++++++++++++++++++++++++++++++++++++++++++++++++++++++++++++++++",
"++++++++++++++++++++++++++++++++++++++++++++++++++++++++++++++++",
"++++++++++++++++++++++++XXXXXXXXXXXXXXXXXXX+++++++++++++++++++++",
"++++++++++++++++++++++++X+++++++++++++++XXXX++++++++++++++++++++",
"++++++++++++++++++++++++X+++++++++++++++XooXX+++++++++++++++++++",
"++++++++++++++++++++++++X+++++++++++++++XoooXX++++++++++++++++++",
"++++++++++++++++++++++++X+++++++++++++++XooooXX+++++++++++++++++",
"++++++++++++++++++++++++X+++++++++++++++XoooooXX++++++++++++++++",
"++++++++++++++++++++++++X+++++++++++++++XooooooXX+++++++++++++++",
"++++++++++++++++++++++++X+++++++++++++++XOooooooXX++++++++++++++",
"++++++++++++++++++++++++X+++++++++++++++X.oooooooXX+++++++++++++",
"++++++++++++++++++++++++X+++++++++++++++X.ooooooooX+++++++++++++",
"++++++++++++++++++++++++X+++++++++++++++X.ooooooooX+++++++++++++",
"++++++++++++++++++++++++X+++++++++++++++X.ooooooooX+++++++++++++",
"++++++++++++++++++++++++X+++++++++++++++XoooooooooX+++++++++++++",
"++++++++++++++++++++++++X+++++++++++++++XoooooooooX+++++++++++++",
"++++++++++++++++++++++++X+++++++++++++++XoooooooooX+++++++++++++",
"++++++++++++++++++++++++X+++++++++++++++XoooooooooX+++++++++++++",
"++++++++++++++++++++++++X+++++++++++++++XoooooooooX+++++++++++++",
"++++++++++++++++++++++++X+++++++++++++++XoooooooooX+++++++++++++",
"++++++++++++++++++++++++X+++++++++++++++XoooooooooX+++++++++++++",
"++++++++++++++++++++++++X+++++++++++++++XoooooooooX+++++++++++++",
"++++++++++++++++++++++++X+@@@@++++++++++XoooooooooX+++++++++++++",
"+++++++++++++++++++++++@X@@@@@@@@@@@++++XoooooooooX+++++++++++++",
"+++++++++++++++++++++@@@X@@@@@@@@@@@@@@@XOooooooooX+++++++++++++",
"+++++++++++++++++++@@@@#X######@@@@@@@@@X.ooooooooX+++++++++++++",
"++++++++++++++++@@@@@###X###############X.ooooooooX+++++++++++++",
"+++++++++++++@@@@@######X###############X.ooooooooX+++++++++++++",
"++++++++++++@@@#########X###############X.ooooooooX+++++++++++++",
"++++++++++++@###########X###############XoooooooooX#++++++++++++",
"++++++++++++@#########@@X@@@@@@@@@@@@###XoooooooooX#++++++++++++",
"+++++++++++@########@@@@X@@@@@@@@@@@@@@#XoooooooooX#++++++++++++",
"+++++++++++@#######@@@@@X@@@@@@@@@@@@@@@XoooooooooX####+++++++++",
"+++++++++@@@@######@@@@@X@@@@@@@@@@@@@@@XoooooooooX#####++++++++",
"+++++++++@@@@######@@@@@X@@@@@@@@@@@@@@@XoooooooooX#####++++++++",
"++++++++@@@@######@@@@@@XXXXXXXXXXXXXXXXXXooooooooX#####++++++++",
"++++++++@@@#########@@@@@@@@@@@@@@@@@@@@@XXoooooooX#####++++++++",
"++++++++@@@###############################XXooooooX####+++++++++",
"++++++++@@@################################XXoooooX####+++++++++",
"++++++++@@@#################################XXooooX####+++++++++",
"+++++++++@@@###@#############################XXoooX####+++++++++",
"+++++++++++@@@@@@######@@########@@#########@#XXooX##+++++++++++",
"+++++++++++++++@@@@@@@@+@@@@@@@@@++@@######++@@XXXX+++++++++++++",
"+++++++++++++++@@@@@@@@+@@@@@@@@@++@@######++@@#   +++++++++++++",
"++++++++++++++++@@@@++++++++++++++++@@@@@+++++++++++++++++++++++",
"++++++++++++++++++++++++++++++++++++++++++++++++++++++++++++++++",
"++++++++++++++++++++++++++++++++++++++++++++++++++++++++++++++++",
"++++++++++++++++++++++++++++++++++++++++++++++++++++++++++++++++",
"++++++++++++++++++++++++++++++++++++++++++++++++++++++++++++++++",
"++++++++++++++++++++++++++++++++++++++++++++++++++++++++++++++++",
"++++++++++++++++++++++++++++++++++++++++++++++++++++++++++++++++",
"++++++++++++++++++++++++++++++++++++++++++++++++++++++++++++++++",
"++++++++++++++++++++++++++++++++++++++++++++++++++++++++++++++++",
"++++++++++++++++++++++++++++++++++++++++++++++++++++++++++++++++",
"++++++++++++++++++++++++++++++++++++++++++++++++++++++++++++++++",
"++++++++++++++++++++++++++++++++++++++++++++++++++++++++++++++++",
"++++++++++++++++++++++++++++++++++++++++++++++++++++++++++++++++",
"++++++++++++++++++++++++++++++++++++++++++++++++++++++++++++++++",
"++++++++++++++++++++++++++++++++++++++++++++++++++++++++++++++++",
"++++++++++++++++++++++++++++++++++++++++++++++++++++++++++++++++"
};
