/* XPM */
static char *result[] = {
/* columns rows colors chars-per-pixel */
"64 64 176 2 ",
"   c black",
".  c #330033",
"X  c #1C1C54",
"o  c #2C1B43",
"O  c #2E174B",
"+  c #2D1E4B",
"@  c #301A44",
"#  c #35154A",
"$  c #371D48",
"%  c #381850",
"&  c #282849",
"*  c #3A2346",
"=  c #33234D",
"-  c #38254B",
";  c #3A284F",
":  c #392755",
">  c #3A2D5A",
",  c #3E3358",
"<  c #2C1663",
"1  c #252B64",
"2  c #213678",
"3  c #323773",
"4  c #461A46",
"5  c #572951",
"6  c #44355F",
"7  c #573258",
"8  c #6E304D",
"9  c #463862",
"0  c #463B6B",
"q  c #7B5652",
"w  c #4D4165",
"e  c #464069",
"r  c #4A426C",
"t  c #544466",
"y  c #564A6D",
"u  c #4E4677",
"i  c #4F4A73",
"p  c #544D7E",
"a  c #575277",
"s  c #56547D",
"d  c #625372",
"f  c #665B79",
"g  c #6C5D7A",
"h  c #6E617D",
"j  c #85414D",
"k  c #A9535D",
"l  c #886255",
"z  c #956D58",
"x  c #A45276",
"c  c #BC6A60",
"v  c #D26354",
"b  c #CC716A",
"n  c #D77B74",
"m  c #E0796A",
"M  c #D6817F",
"N  c #E49562",
"B  c #E18274",
"V  c #F0B66A",
"C  c #2E178B",
"Z  c #1E3D85",
"A  c #0000BF",
"S  c #3A5A94",
"D  c #1652AC",
"F  c #316FBB",
"G  c #3876BF",
"H  c #544E84",
"J  c #5D5D86",
"K  c #5A578A",
"L  c #40639B",
"P  c #5E6C93",
"I  c #597096",
"U  c #676585",
"Y  c #68678A",
"T  c #7B6F89",
"R  c #646692",
"E  c #676B99",
"W  c #6A7399",
"Q  c #727292",
"!  c #777B9B",
"~  c #5E7AA0",
"^  c #6B6FA2",
"/  c #6F7AA2",
"(  c #717AA3",
")  c #7474AD",
"_  c #887E94",
"`  c #A96889",
"'  c #A77698",
"]  c #6584AA",
"[  c #7982A5",
"{  c #7A86AC",
"}  c #7E89BF",
"|  c #5692CD",
" . c #6599C5",
".. c #7B99CB",
"X. c #77ABCF",
"o. c #62A2D5",
"O. c #6FA7D0",
"+. c #69A9D9",
"@. c #75B0D9",
"#. c #76B7E1",
"$. c #86849D",
"%. c #8587A5",
"&. c #968CA0",
"*. c #9191A8",
"=. c #808CB1",
"-. c #8F9EBD",
";. c #919EBC",
":. c #A39AAB",
">. c #B399B4",
",. c #E89886",
"<. c #EDBC8B",
"1. c #EAA094",
"2. c #8A99C9",
"3. c #8FA0CD",
"4. c #97A4CA",
"5. c #94A7D2",
"6. c #99ACD5",
"7. c #8BB7DE",
"8. c #9CB6DC",
"9. c #9FB8DD",
"0. c #BAAAC2",
"q. c #BEB7C8",
"w. c #A2ACD1",
"e. c #AAB6D8",
"r. c #A3BBDE",
"t. c #8EBAE0",
"y. c #A3BDE0",
"u. c #BFC0D5",
"i. c #8FC2E5",
"p. c #89C7E9",
"a. c #8DC9EA",
"s. c #94C5E6",
"d. c #9CCCEA",
"f. c #9ED0EC",
"g. c #99D9EA",
"h. c #A5C2E2",
"j. c #AAC4E3",
"k. c #A7C9E6",
"l. c #AEC8E5",
"z. c #A6CDE9",
"x. c #B1CBE7",
"c. c #B4CEE8",
"v. c #A6D4ED",
"b. c #AAD5EE",
"n. c #B6D2EA",
"m. c #BBD4EB",
"M. c #B5DAEF",
"N. c #BCD9ED",
"B. c #BEDEF0",
"V. c #C5C0C9",
"C. c #C9C4CD",
"Z. c #C7CAD7",
"A. c #D1CCD3",
"S. c #C9D1DE",
"D. c #DCD9D1",
"F. c #F4CDC5",
"G. c #EAD7D7",
"H. c #F1D9D2",
"J. c #F8E1DB",
"K. c #C6D7E9",
"L. c #C2DBEE",
"P. c #C4DFF0",
"I. c #C3E1F2",
"U. c #C9E3F2",
"Y. c #D2E5F2",
"T. c #DBE6F1",
"R. c #D4E8F4",
"E. c #DBEBF5",
"W. c #EEE5E5",
"Q. c #E0EEF6",
"!. c #E4F1F7",
"~. c #EBF5F8",
"^. c #FDF9F5",
"/. c #F1F7F9",
"(. c #F3F9FA",
"). c #FFFFFC",
/* pixels */
"g.g.g.g.g.g.g.g.g.g.g.g.g.g.g.g.g.g.g.g.g.g.g.g.g.g.g.g.g.g.g.g.g.g.g.g.g.g.g.g.g.g.g.g.g.g.g.g.g.g.g.g.g.g.g.g.g.g.g.g.g.g.g.g.",
"g.g.g.g.g.g.g.g.g.g.g.g.g.g.g.g.g.g.g.g.g.g.g.g.g.g.g.g.g.g.g.g.g.g.g.g.g.g.g.g.g.g.g.g.g.g.g.g.g.g.g.g.g.g.g.g.g.g.g.g.g.g.g.g.",
"g.g.g.g.g.g.g.g.g.g.g.g.g.g.g.g.g.g.g.g.g.g.g.g.g.g.g.g.g.g.g.g.g.g.g.g.g.g.g.g.g.g.g.g.g.g.g.g.g.g.g.g.g.g.g.g.g.g.g.g.g.g.g.g.",
"g.g.g.g.g.g.g.g.g.g.g.g.g.g.g.g.g.g.g.g.g.g.g.g.g.g.g.g.g.g.g.g.g.g.g.g.g.g.g.g.g.g.g.g.g.g.g.g.g.g.g.g.g.g.g.g.g.g.g.g.g.g.g.g.",
"g.g.g.g.g.g.g.g.g.g.g.g.g.g.g.g.g.g.g.g.g.g.g.g.g.g.g.g.g.g.g.g.g.g.g.g.g.g.g.g.g.g.g.g.g.g.g.g.g.g.g.g.g.g.g.g.g.g.g.g.g.g.g.g.",
"g.g.g.g.g.g.g.g.g.g.g.g.g.g.g.g.g.g.g.g.g.g.g.g.g.g.g.g.g.g.g.g.g.g.g.g.g.g.g.g.g.g.g.g.g.g.g.g.g.g.g.g.g.g.g.g.g.g.g.g.g.g.g.g.",
"g.g.g.g.g.g.g.g.g.g.g.g.g.g.g.g.g.g.g.g.g.g.g.g.g.g.g.g.g.g.g.g.g.g.g.g.g.g.g.g.g.g.g.g.g.g.g.g.g.g.g.g.g.g.g.g.g.g.g.g.g.g.g.g.",
"g.g.g.g.g.g.g.g.g.g.g.g.g.g.g.g.g.g.g.g.g.g.g.g.g.g.g.g.g.g.g.g.g.g.g.g.g.g.g.g.g.g.g.g.g.g.g.g.g.g.g.g.g.g.g.g.g.g.g.g.g.g.g.g.",
"g.g.g.g.g.g.g.g.g.g.g.g.g.g.g.g.g.g.g.g.g.g.g.g.g.g.g.g.g.g.g.g.g.g.g.g.g.g.g.g.g.g.g.g.g.g.g.g.g.g.g.g.g.g.g.g.g.g.g.g.g.g.g.g.",
"g.g.g.g.g.g.g.g.g.g.g.g.g.g.g.g.g.g.g.g.g.g.g.4 = o o o . g.o > > + g.O + @ o + # g.g.g.g.g.g.g.g.g.g.g.g.g.g.g.g.g.g.g.g.g.g.g.",
"g.g.g.g.g.g.g.g.g.g.g.g.g.g.g.g.g.g.g.g.g.4 o 9 0 0 i i r & o p u o + e i i 0 0 9 o # g.g.g.g.g.g.g.g.g.g.g.g.g.g.g.g.g.g.g.g.g.",
"g.g.g.g.g.g.g.g.g.g.g.g.g.g.g.g.g.g.g.g.4 6 i ! 3.2.j.h.{ s , R J 6 s { r.j.2.5.W i 6 # g.g.g.g.g.g.g.g.g.g.g.g.g.g.g.g.g.g.g.g.",
"g.g.g.g.g.g.g.g.g.g.g.g.g.g.g.g.g.g.g.4 i %.j.m.L.L.Y.m.n.b.P R J W n.n.N.R.m.P.m.j.[ y < g.g.g.g.g.g.g.g.g.g.g.g.g.g.g.g.g.g.g.",
"g.g.g.g.g.g.g.g.g.g.g.g.g.g.g.g.g.g.g.o Y E.R.E.~.Q.!.Y.R.v.I Y J I b.R.Y.~.E.~.E.T.E.f % g.g.g.g.g.g.g.g.g.g.g.g.g.g.g.g.g.g.g.",
"g.g.g.g.g.g.g.g.g.g.g.g.g.g.g.g.g.g.g.= T ).(.~.~.~./.~.!.v.I R J ~ v.!.!.(.~.(.!.(.).h % g.g.g.g.g.g.g.g.g.g.g.g.g.g.g.g.g.g.g.",
"g.g.g.g.g.g.g.g.g.g.g.g.g.g.g.g.g.g.g.# g A.).).).).).).!.v.I Q Q ~ b.!.).).).).).).C.d @ g.g.g.g.g.g.g.g.g.g.g.g.g.g.g.g.g.g.g.",
"g.g.g.g.g.g.g.g.g.g.g.g.g.g.g.g.g.g.g.g.& h :.V.).).).).!.v.I &.$.I b.Q.).).).).q.:.d O g.g.g.g.g.g.g.g.g.g.g.g.g.g.g.g.g.g.g.g.",
"g.g.g.g.g.g.g.g.g.g.g.g.g.g.g.g.g.g.g.g.g.o o g :.:.:.:.2.t.W &.$.( 7.-.:.:.:.:.d o O g.g.g.g.g.g.g.g.g.g.g.g.g.g.g.g.g.g.g.g.g.",
"g.g.g.g.g.g.g.g.g.g.g.g.g.g.g.g.g.g.g.g.g.g.g.o + o o O 3 3.! &._ $...3 o o o = O g.g.g.g.g.g.g.g.g.g.g.g.g.g.g.g.g.g.g.g.g.g.g.",
"g.g.g.g.g.g.g.g.g.g.g.g.g.g.g.g.g.g.g.g.g.g.g.g.g.g.g.o s e.$.f d *.e.u @ g.g.g.g.g.g.g.g.g.g.g.g.g.g.g.g.g.g.g.g.g.g.g.g.g.g.g.",
"g.g.g.g.g.g.g.g.g.g.g.g.g.g.g.g.g.g.g.g.g.g.g.g.g.g.g.# R K.&.d y :.K.f @ g.g.g.g.g.g.g.g.g.g.g.g.g.g.g.g.g.g.g.g.g.g.g.g.g.g.g.",
"g.g.g.g.g.g.g.g.g.g.g.g.g.g.g.g.g.g.g.g.g.g.g.g.g.g.g.@ Q T.&.&.$.:.Y.Y @ g.g.g.g.g.g.g.g.g.g.g.g.g.g.g.g.g.g.g.g.g.g.g.g.g.g.g.",
"g.g.g.g.g.g.g.g.g.g.g.g.g.g.g.g.g.g.g.g.g.g.g.g.g.g.O i 4.!.C.&.&.A.Q.;.r o g.g.g.g.g.g.g.g.g.g.g.g.g.g.g.g.g.g.g.g.g.g.g.g.g.g.",
"g.g.g.g.g.g.g.g.g.g.g.g.g.g.g.g.g.g.g.g.g.g.g.g.g.g.o J c.!.).C.A.).Q.j.s @ g.g.g.g.g.g.g.g.g.g.g.g.g.g.g.g.g.g.g.g.g.g.g.g.g.g.",
"g.g.g.g.g.g.g.g.g.g.g.g.g.g.g.g.g.g.g.g.g.g.g.g.g.g.@ J x.!.).).).).Q.l.s @ g.g.g.g.g.g.g.g.g.g.g.g.g.g.g.g.g.g.g.g.g.g.g.g.g.g.",
"g.g.g.g.g.g.g.g.g.g.g.g.g.g.g.g.g.g.g.g.g.g.g.g.g.g.# J x.!.).~./.).Q.l.s @ g.g.g.g.g.g.g.g.g.g.g.g.g.g.g.g.g.g.g.g.g.g.g.g.g.g.",
"g.g.g.g.g.g.g.g.g.g.g.g.g.g.g.g.g.g.g.g.g.g.g.g.g.g.@ J x.!.).!.!.).Q.l.a @ g.g.g.g.g.g.g.g.g.g.g.g.g.g.g.g.g.g.g.g.g.g.g.g.g.g.",
"g.g.g.g.g.g.g.g.g.g.g.g.g.g.g.g.g.g.g.g.g.g.g.g.g.g.O J x.!.).Q.!.).Q.l.s @ g.g.g.g.g.g.g.g.g.g.g.g.g.g.g.g.g.g.g.g.g.g.g.g.g.g.",
"g.g.g.g.g.g.& @ . & o @ @ @ @ . @ o @ @ @ @ @ @ @ @ o K l.!.).(.(.).Q.l.s o O @ @ @ @ @ @ @ @ @ @ o @ @ @ @ @ @ @ X g.g.g.g.g.g.",
"g.g.g.X @ @ : ( W K ( / ( ] ( ( ( ( ( E K ( R K ( ( R ( x.!.).).).).Q.x.^ R ( ( K E ( K W ( ( ( ( ( ] ( ( ( H / ( = o o g.g.g.g.",
"g.g.X = ( ( { n.n.3.n.n.n.b.x.r.n.x.r.r.6.n.r.6.m.j.5.6.U.(.q.T T V.^.K.6.r.c.n.4.y.n.5.h.r.l.n.9.x.n.n.c.n.2.c.n.( ! / @ g.g.g.",
"g.X = ( 8.8.9.U.L.h.U.U.U.U.m.h.U.n.j.n.l.U.n.j.U.c.8.l.!.Q.Q 1 Z } Q.Q.j.n.U.U.j.n.U.j.m.h.N.U.r.N.U.U.U.U.y.P.U.r.8.8.( @ g.g.",
"g.= { 8.n.n.s.U.P.s.P.S.` ` ' h.U.m.h.M.z.U.b.z.U.N.l.l.!.I.I 2 D | U.!.z.n.U.U.d.M.U.d.M.h.N.U.r.' ` ` m.U.s.P.U.i.n.n.8.{ o g.",
"g.= n.8.U.B.a.U.P.s.c.' 0.0.>.' U.n.j.M.f.U.n.l.U.U.c.l.!.U.X. .o.@.U.Q.l.n.U.U.h.m.U.d.N.r.m.U.' >.0.0.` K.a.L.U.p.P.U.8.n.o g.",
"g.: P.9.U.B.a.U.P.M.Z.b U.U.q.` U.L.N.n.k.U.n.j.U.U.n.k.!.I.] L G o.U.!.j.n.I.U.j.m.U.h.N.N.L.U.x u.U.U.b Z.M.U.U.p.P.U.8.U.O g.",
"g.; P.8.U.B.a.U.U.U.A.n U.U.u.x U.U.U.n.j.U.n.j.U.U.n.l.!.I.X.| o.#.U.!.j.c.U.U.h.n.U.j.N.U.U.U.x u.I.U.m S.U.U.U.p.I.U.8.U.o g.",
"g.; ~.N./.~.N.(.~.R.G.B (.R.D.M /.!.R.Q.Y./.T.Y././.T.N.!.I.] S F o.U.Q.L.E.(./.U.Q./.U.!.Y.!.~.n G.U.~.m W.U././.B.~./.n./.o g.",
"g.: ).(.).(.Y.).^.U.).F.B <.1.J.).~.E.~.E.).~.E.).).!.U.!.I.I 2 D | U.Q.U.!.).).E.~.).E.(.R.(.).H.1.<.,.F.^.U.).).U.).)./.).o g.",
"g.; ).).).)./.).).Y.).^.H.D.J.^.).~.E.^.(.).~.E.).).!.U.!.I.X.O.+.#.U.!.U.~.).).E.~.).(.).Y./.).).J.D.H.).).U.).)./.).).).).o g.",
"g.- g ).).).).).)./.).).).(.).^.).~.R.).).).~.E.).).!.U.Q.I.] S F o.U.E.U.~.).).E.~.).).).R./.).).).(.).).).(.).).).).).).d % g.",
"g.  : t t i t t t t t t t t w t t t r t t t w w y y w [ !.(.l.X.#.M.(.E.! 9 t y w t t t t w t t t t t w y y t t t t t t t . g.g.",
"g.g.  o o . . & o o o o o o o o o o & . o o o o . o & Q !.).(.~.!.(.).Q.U @ . & o o & . o & . & o o o o o . & & o o & . & g.g.g.",
"g.g.g.g.g.g.g.g.g.g.g.g.g.g.g.g.g.g.g.g.g.g.g.g.g.g.O Q !.).).).).).).E.U @ g.g.g.g.g.g.g.g.g.g.g.g.g.g.g.g.g.g.g.g.g.g.g.g.g.g.",
"g.g.g.g.g.g.g.g.g.g.g.g.g.g.g.g.g.g.g.g.g.g.g.g.g.g.+ Q !.).).).).).).!.U @ g.g.g.g.g.g.g.g.g.g.g.g.g.g.g.g.g.g.g.g.g.g.g.g.g.g.",
"g.g.g.g.g.g.g.g.g.g.g.g.g.g.g.g.g.g.g.g.g.g.g.g.g.g.O Q !.).).).).).).Q.Y @ g.g.g.g.g.g.g.g.g.g.g.g.g.g.g.g.g.g.g.g.g.g.g.g.g.g.",
"g.g.g.g.g.g.g.g.g.g.g.g.g.g.g.g.g.g.g.g.g.g.g.g.g.g.& > K ) w.U.Y.4.) H , C g.g.g.g.g.g.g.g.g.g.g.g.g.g.g.g.g.g.g.g.g.g.g.g.g.g.",
"g.g.g.g.g.g.g.g.g.g.g.g.g.g.g.g.g.g.g.g.g.g.g.g.g.g.g.O U r.T.(.).Y.r.K @ g.g.g.g.g.g.g.g.g.g.g.g.g.g.g.g.g.g.g.g.g.g.g.g.g.g.g.",
"g.g.g.g.g.g.g.g.g.g.g.g.g.g.g.g.g.g.g.g.g.g.g.g.g.g.g.% 7 _ 9.9.9.9.=.0 @ f.g.g.g.g.g.g.g.g.g.g.g.g.g.g.g.g.g.g.g.g.g.g.g.g.g.g.",
"g.g.g.g.g.g.g.g.g.g.g.g.g.g.g.g.g.g.g.g.g.g.g.g.o @ @ o o @ = * = * = o o o o * g.g.g.g.g.g.g.g.g.g.g.g.g.g.g.g.g.g.g.g.g.g.g.g.",
"g.g.g.g.g.g.g.g.g.g.g.g.g.g.g.g.g.g.g.g.g.g.g.= l V N v k 7 5 b c 5 7 k v N V q o g.g.g.g.g.g.g.g.g.g.g.g.g.g.g.g.g.g.g.g.g.g.g.",
"g.g.g.g.g.g.g.g.g.g.g.g.g.g.g.g.g.g.g.g.g.g.g.. * * * $ $ @ @ @ @ @ o * * * * * A g.g.g.g.g.g.g.g.g.g.g.g.g.g.g.g.g.g.g.g.g.g.g.",
"g.g.g.g.g.g.g.g.g.g.g.g.g.g.g.g.g.g.g.g.g.g.g.g.g.g.g.g.g.g.o j 8 @ g.g.g.g.g.g.g.g.g.g.g.g.g.g.g.g.g.g.g.g.g.g.g.g.g.g.g.g.g.g.",
"g.g.g.g.g.g.g.g.g.g.g.g.g.g.g.g.g.g.g.g.g.g.g.g.g.g.g.g.g.g.o z z @ g.g.g.g.g.g.g.g.g.g.g.g.g.g.g.g.g.g.g.g.g.g.g.g.g.g.g.g.g.g.",
"g.g.g.g.g.g.g.g.g.g.g.g.g.g.g.g.g.g.g.g.g.g.g.g.g.g.g.g.g.g.o z l @ g.g.g.g.g.g.g.g.g.g.g.g.g.g.g.g.g.g.g.g.g.g.g.g.g.g.g.g.g.g.",
"g.g.g.g.g.g.g.g.g.g.g.g.g.g.g.g.g.g.g.g.g.g.g.g.g.g.g.g.g.g.g.o @ g.g.g.g.g.g.g.g.g.g.g.g.g.g.g.g.g.g.g.g.g.g.g.g.g.g.g.g.g.g.g.",
"g.g.g.g.g.g.g.g.g.g.g.g.g.g.g.g.g.g.g.g.g.g.g.g.g.g.g.g.g.g.g.g.g.g.g.g.g.g.g.g.g.g.g.g.g.g.g.g.g.g.g.g.g.g.g.g.g.g.g.g.g.g.g.g.",
"g.g.g.g.g.g.g.g.g.g.g.g.g.g.g.g.g.g.g.g.g.g.g.g.g.g.g.g.g.g.g.g.g.g.g.g.g.g.g.g.g.g.g.g.g.g.g.g.g.g.g.g.g.g.g.g.g.g.g.g.g.g.g.g.",
"g.g.g.g.g.g.g.g.g.g.g.g.g.g.g.g.g.g.g.g.g.g.g.g.g.g.g.g.g.g.g.g.g.g.g.g.g.g.g.g.g.g.g.g.g.g.g.g.g.g.g.g.g.g.g.g.g.g.g.g.g.g.g.g.",
"g.g.g.g.g.g.g.g.g.g.g.g.g.g.g.g.g.g.g.g.g.g.g.g.g.g.g.g.g.g.g.g.g.g.g.g.g.g.g.g.g.g.g.g.g.g.g.g.g.g.g.g.g.g.g.g.g.g.g.g.g.g.g.g.",
"g.g.g.g.g.g.g.g.g.g.g.g.g.g.g.g.g.g.g.g.g.g.g.g.g.g.g.g.g.g.g.g.g.g.g.g.g.g.g.g.g.g.g.g.g.g.g.g.g.g.g.g.g.g.g.g.g.g.g.g.g.g.g.g.",
"g.g.g.g.g.g.g.g.g.g.g.g.g.g.g.g.g.g.g.g.g.g.g.g.g.g.g.g.g.g.g.g.g.g.g.g.g.g.g.g.g.g.g.g.g.g.g.g.g.g.g.g.g.g.g.g.g.g.g.g.g.g.g.g.",
"g.g.g.g.g.g.g.g.g.g.g.g.g.g.g.g.g.g.g.g.g.g.g.g.g.g.g.g.g.g.g.g.g.g.g.g.g.g.g.g.g.g.g.g.g.g.g.g.g.g.g.g.g.g.g.g.g.g.g.g.g.g.g.g.",
"g.g.g.g.g.g.g.g.g.g.g.g.g.g.g.g.g.g.g.g.g.g.g.g.g.g.g.g.g.g.g.g.g.g.g.g.g.g.g.g.g.g.g.g.g.g.g.g.g.g.g.g.g.g.g.g.g.g.g.g.g.g.g.g.",
"g.g.g.g.g.g.g.g.g.g.g.g.g.g.g.g.g.g.g.g.g.g.g.g.g.g.g.g.g.g.g.g.g.g.g.g.g.g.g.g.g.g.g.g.g.g.g.g.g.g.g.g.g.g.g.g.g.g.g.g.g.g.g.g."
};
