/* XPM */
static char *result[] = {
/* columns rows colors chars-per-pixel */
"64 64 172 2 ",
"   c black",
".  c #330033",
"X  c #1C1C54",
"o  c #2C1B43",
"O  c #2E174B",
"+  c #2D1E4B",
"@  c #301A44",
"#  c #35154A",
"$  c #371D48",
"%  c #381850",
"&  c #282849",
"*  c #3A2346",
"=  c #33234D",
"-  c #38254B",
";  c #3A284F",
":  c #392755",
">  c #3A2D5A",
",  c #3E3358",
"<  c #2C1663",
"1  c #252B64",
"2  c #213678",
"3  c #323773",
"4  c #461A46",
"5  c #572951",
"6  c #44355F",
"7  c #573258",
"8  c #463862",
"9  c #463B6B",
"0  c #7B5652",
"q  c #4D4165",
"w  c #464069",
"e  c #4A426C",
"r  c #544466",
"t  c #564A6D",
"y  c #4E4677",
"u  c #4F4A73",
"i  c #575277",
"p  c #56547D",
"a  c #625372",
"s  c #665B79",
"d  c #6C5D7A",
"f  c #6E617D",
"g  c #85414D",
"h  c #A9535D",
"j  c #886255",
"k  c #956D58",
"l  c #A45276",
"z  c #BC6A60",
"x  c #D26354",
"c  c #CC716A",
"v  c #D77B74",
"b  c #E0796A",
"n  c #E49562",
"m  c #F0B66A",
"M  c #2E178B",
"N  c #1E3D85",
"B  c #0000BF",
"V  c #3A5A94",
"C  c #1652AC",
"Z  c #316FBB",
"A  c #3876BF",
"S  c #544E84",
"D  c #5D5D86",
"F  c #5A578A",
"G  c #40639B",
"H  c #5E6C93",
"J  c #597096",
"K  c #676585",
"L  c #68678A",
"P  c #7B6F89",
"I  c #646692",
"U  c #676B99",
"Y  c #6A7399",
"T  c #727292",
"R  c #777B9B",
"E  c #5E7AA0",
"W  c #6B6FA2",
"Q  c #6F7AA2",
"!  c #717AA3",
"~  c #7474AD",
"^  c #A75D80",
"/  c #887E94",
"(  c #A96889",
")  c #A77698",
"_  c #6E81A3",
"`  c #6584AA",
"'  c #7982A5",
"]  c #7A86AC",
"[  c #7E89BF",
"{  c #5692CD",
"}  c #6599C5",
"|  c #7B99CB",
" . c #609FD4",
".. c #77ABCF",
"X. c #62A2D5",
"o. c #6FA7D0",
"O. c #69A9D9",
"+. c #75B0D9",
"@. c #76B7E1",
"#. c #86849D",
"$. c #8587A5",
"%. c #968CA0",
"&. c #808CB1",
"*. c #8F9EBD",
"=. c #919EBC",
"-. c #A39AAB",
";. c #B399B4",
":. c #E89886",
">. c #EDBC8B",
",. c #EAA094",
"<. c #8A99C9",
"1. c #8FA0CD",
"2. c #97A4CA",
"3. c #94A7D2",
"4. c #99ACD5",
"5. c #8BB7DE",
"6. c #9CB6DC",
"7. c #9FB8DD",
"8. c #BAAAC2",
"9. c #BEB7C8",
"0. c #A2ACD1",
"q. c #AAB6D8",
"w. c #A3BBDE",
"e. c #8EBAE0",
"r. c #A3BDE0",
"t. c #BFC0D5",
"y. c #89C7E9",
"u. c #8DC9EA",
"i. c #94C5E6",
"p. c #9CCCEA",
"a. c #99D9EA",
"s. c #A5C2E2",
"d. c #AAC4E3",
"f. c #A7C9E6",
"g. c #AEC8E5",
"h. c #A6CDE9",
"j. c #B1CBE7",
"k. c #B4CEE8",
"l. c #A6D4ED",
"z. c #AAD5EE",
"x. c #B6D2EA",
"c. c #BBD4EB",
"v. c #B5DAEF",
"b. c #BCD9ED",
"n. c #BEDEF0",
"m. c #C5C0C9",
"M. c #C9C4CD",
"N. c #C7CAD7",
"B. c #D1CCD3",
"V. c #C9D1DE",
"C. c #DCD9D1",
"Z. c #F4CDC5",
"A. c #EAD7D7",
"S. c #F1D9D2",
"D. c #F8E1DB",
"F. c #C6D7E9",
"G. c #C2DBEE",
"H. c #C4DFF0",
"J. c #C3E1F2",
"K. c #C9E3F2",
"L. c #D2E5F2",
"P. c #DBE6F1",
"I. c #D4E8F4",
"U. c #DBEBF5",
"Y. c #EEE5E5",
"T. c #E0EEF6",
"R. c #E4F1F7",
"E. c #EBF5F8",
"W. c #FDF9F5",
"Q. c #F1F7F9",
"!. c #F3F9FA",
"~. c #FFFFFC",
/* pixels */
"a.a.a.a.a.a.a.a.a.a.a.a.a.a.a.a.a.a.a.a.a.a.a.a.a.a.a.a.a.a.a.a.a.a.a.a.a.a.a.a.a.a.a.a.a.a.a.a.a.a.a.a.a.a.a.a.a.a.a.a.a.a.a.a.",
"a.a.a.a.a.a.a.a.a.a.a.a.a.a.a.a.a.a.a.a.a.a.a.  ; ; ; ; ; = = = X a.a.a.a.a.a.a.a.a.a.a.a.a.a.a.a.a.a.a.a.a.a.a.a.a.a.a.a.a.a.a.",
"a.a.a.a.a.a.a.a.a.a.a.a.a.a.a.a.a.a.a.a.a.a.  ; d ~.~.E.J.K.x.] = X a.a.a.a.a.a.a.a.a.a.a.a.a.a.a.a.a.a.a.a.a.a.a.a.a.a.a.a.a.a.",
"a.a.a.a.a.a.a.a.a.a.a.a.a.a.a.a.a.a.a.a.a.a.o r ~.~.Q.b.7.6.7.6.! = X a.a.a.a.a.a.a.a.a.a.a.a.a.a.a.a.a.a.a.a.a.a.a.a.a.a.a.a.a.",
"a.a.a.a.a.a.a.a.a.a.a.a.a.a.a.a.a.a.a.a.a.a.o r ~.~.~.!.K.K.K.x.6.! o a.a.a.a.a.a.a.a.a.a.a.a.a.a.a.a.a.a.a.a.a.a.a.a.a.a.a.a.a.",
"a.a.a.a.a.a.a.a.a.a.a.a.a.a.a.a.a.a.a.a.a.a.o r ~.~.!.E.J.b.b.x.6.! @ a.a.a.a.a.a.a.a.a.a.a.a.a.a.a.a.a.a.a.a.a.a.a.a.a.a.a.a.a.",
"a.a.a.a.a.a.a.a.a.a.a.a.a.a.a.a.a.a.a.a.a.a.o r ~.Q.K.G.u.u.u.i.w.] : & a.a.a.a.a.a.a.a.a.a.a.a.a.a.a.a.a.a.a.a.a.a.a.a.a.a.a.a.",
"a.a.a.a.a.a.a.a.a.a.a.a.a.a.a.a.a.a.a.a.a.a.o r ~.~.~.Q.K.K.K.K.K.x.! + a.a.a.a.a.a.a.a.a.a.a.a.a.a.a.a.a.a.a.a.a.a.a.a.a.a.a.a.",
"a.a.a.a.a.a.a.a.a.a.a.a.a.a.a.a.a.a.a.a.a.a.o r ~.!.!.E.K.H.H.H.G.g.Y @ a.a.a.a.a.a.a.a.a.a.a.a.a.a.a.a.a.a.a.a.a.a.a.a.a.a.a.a.",
"a.a.a.a.a.a.a.a.a.a.a.a.a.a.a.a.a.a.a.a.a.a.o r !.I.I.L.H.v.u.i.w.1.S @ a.a.a.a.a.a.a.a.a.a.a.a.a.a.a.a.a.a.a.a.a.a.a.a.a.a.a.a.",
"a.a.a.a.a.a.a.a.a.a.a.a.a.a.a.a.a.a.a.a.a.a.o t ~.~.W.D.V.N.N.H.K.x.! @ a.a.a.a.a.a.a.a.a.a.a.a.a.a.a.a.a.a.a.a.a.a.a.a.a.a.a.a.",
"a.a.a.a.a.a.a.a.a.a.a.a.a.a.a.a.a.a.a.a.a.a.. u ~.W.Z.v v c ) c.K.x.Q * a.a.a.a.a.a.a.a.a.a.a.a.a.a.a.a.a.a.a.a.a.a.a.a.a.a.a.a.",
"a.a.a.a.a.a.a.a.a.a.a.a.a.a.a.a.a.a.a.a.a.a.o r ~.S.:.E.K.K.8.( K.x.! @ a.a.a.a.a.a.a.a.a.a.a.a.a.a.a.a.a.a.a.a.a.a.a.a.a.a.a.a.",
"a.a.a.a.a.a.a.a.a.a.a.a.a.a.a.a.a.a.a.a.a.a.o r Q.C.>.L.K.K.8.( K.z.` @ a.a.a.a.a.a.a.a.a.a.a.a.a.a.a.a.a.a.a.a.a.a.a.a.a.a.a.a.",
"a.a.a.a.a.a.a.a.a.a.a.a.a.a.a.a.a.a.a.a.a.a.o r ~.D.,.A.9.9.;.) c.j.! @ a.a.a.a.a.a.a.a.a.a.a.a.a.a.a.a.a.a.a.a.a.a.a.a.a.a.a.a.",
"a.a.a.a.a.a.a.a.a.a.a.a.a.a.a.a.a.a.a.a.a.a.o r ~.~.S.v ^ ^ ) d.w.w.! @ a.a.a.a.a.a.a.a.a.a.a.a.a.a.a.a.a.a.a.a.a.a.a.a.a.a.a.a.",
"a.a.a.a.a.a.a.a.a.a.a.a.a.a.a.a.a.a.a.a.a.a.& r ~.~.~.Q.K.K.K.K.K.x.! @ a.a.a.a.a.a.a.a.a.a.a.a.a.a.a.a.a.a.a.a.a.a.a.a.a.a.a.a.",
"a.a.a.a.a.a.a.a.a.a.a.a.a.a.a.a.a.a.a.a.a.a.o r E.E.E.R.K.H.x.x.x.g.! o a.a.a.a.a.a.a.a.a.a.a.a.a.a.a.a.a.a.a.a.a.a.a.a.a.a.a.a.",
"a.a.a.a.a.a.a.a.a.a.a.a.a.a.a.a.a.a.a.a.a.a.o q U.I.U.L.K.G.d.s.d.r.! @ a.a.a.a.a.a.a.a.a.a.a.a.a.a.a.a.a.a.a.a.a.a.a.a.a.a.a.a.",
"a.a.a.a.a.a.a.a.a.a.a.a.a.a.a.a.a.a.a.a.a.a.o r ~.~.E.T.x.x.v.x.c.w.I @ a.a.a.a.a.a.a.a.a.a.a.a.% @ & 4 a.a.a.a.a.a.a.a.a.a.a.a.",
"a.a.a.a.a.a.a.a.a.a.a.a.a.a.a.a.a.a.a.a.a.a.o r ~.!.U.L.f.f.p.h.d.4.F $ a.a.a.a.a.a.a.a.a.a.a.@ d P L t 4 a.a.a.a.a.a.a.a.a.a.a.",
"a.a.a.a.a.a.a.a.a.a.a.a.a.a.a.a.a.a.a.a.a.a.o r ~.~.~.Q.K.K.K.K.K.x.! @ a.a.a.a.a.a.a.a.a.a.o s B.~.U.$.6 4 a.a.a.a.a.a.a.a.a.a.",
"a.a.a.a.a.a.a.a.a.a.a.a.a.a.a.a.a.a.a.a.a.a.o r E.E.E.U.k.x.x.z.x.w.I @ a.a.a.a.a.a.a.a.a.a.+ -.~.Q.L.g.u + a.a.a.a.a.a.a.a.a.a.",
"a.a.a.a.a.a.a.a.a.a.a.a.a.. & a.a.a.a.a.a.a.o q U.U.U.L.d.g.f.h.d.4.F @ a.a.a.a.a.a.a.a.a.o d m.~.E.U.c.R 8 4 a.a.a.a.a.a.a.a.a.",
"a.a.a.a.a.a.a.a.a.a.a.a.a.* j . a.a.a.a.a.a.. r ~.~.~.Q.K.K.K.K.K.x.Q @ a.a.a.a.a.a.a.a.a.+ -.~.~.Q.E.G.3.w & a.a.a.a.a.a.a.a.a.",
"a.a.a.a.a.a.a.a.a.a.a.a.a.* m & a.a.a.a.a.a.& q ~.~.~.Q.K.K.H.G.k.d.Q o a.a.a.a.a.a.a.a.a.o -.~.~.E.U.G.<.9 @ a.a.a.a.a.a.a.a.a.",
"a.a.a.a.a.a.a.a.a.a.a.a.a.- n . a.a.& o @ @ & q R.T.R.U.k.k.k.g.6.3.I o @ # @ @ @ O a.a.a.@ -.~.~.E.R.I.d.u = a.a.a.a.a.a.a.a.a.",
"a.a.a.a.a.a.a.a.a.a.a.a.a.- x = o o , T T T T $.K.K.K.H.g.g.g.f.g.4.~ D D D D D D u @ @ @ O -.~.~.E.L.c.w.u & a.a.a.a.a.a.a.a.a.",
"a.a.a.a.a.a.a.a.a.a.a.a.a.$ h o 7 I F T.T.R.R.R.R.R.R.R.R.T.R.R.R.L.j.j.j.j.j.j.j.2.T I S 3 *.R.R.R.L.c.] 9 . a.a.a.a.a.a.a.a.a.",
"a.a.a.a.a.a.a.a.a.a.a.a.a.o 5 @ $.w.~ ~.~.~.~.!.J.J.J.J.J.J.J.K.P.!.R.R.R.R.R.R.R.R.P.F.q...e.l.l.l.l.j.i + a.a.a.a.a.a.a.a.a.a.",
"a.a.a.a.a.a.a.a.a.a.o o o @ 5 = q.P.0.~.~.~.!.g.` +.J ` ..` ..J R 9.~.~.~.~.~.~.~.M.%.%.#.R Y J J J J H , & . a.a.a.a.a.a.a.a.a.",
"a.a.a.a.a.a.a.a.a.o k k g $ c = w.!.K.~.~.~.E.o.V o.2 V } G } 2 1 P ~.!.R.R.E.~.M.%.%.a d %.%.%.T I I I H S , a.a.a.a.a.a.a.a.a.",
"a.a.a.a.a.a.a.a.a.@ j j 0 - z = w.W.K.~.~.~.R.@.Z O.C Z  .A  .C N P ~.!.R.R.Q.~.B.%./ t a / #./ L D D D D y > a.a.a.a.a.a.a.a.a.",
"a.a.a.a.a.a.a.a.a.a.@ @ o . 5 = 6.L.0.~.~.~.!.x.X.@.{ X.@.X.@.{ [ m.~.~.~.~.~.~.~.B.-.-.%.$._ J Q J E Q 6 o + a.a.a.a.a.a.a.a.a.",
"a.a.a.a.a.a.a.a.a.a.a.a.a.o 5 = | q.~ ~.~.~.~.!.K.K.K.K.K.K.K.L.T.!.R.T.T.T.T.T.T.T.L.F.q.| 5.z.z.z.l.z.i + a.a.a.a.a.a.a.a.a.a.",
"a.a.a.a.a.a.a.a.a.a.a.a.a.@ h = 9 S S R.U.R.U.R.R.R.T.T.T.R.T.T.U.F.j.g.g.g.g.g.g.=.L D y 3 *.T.R.R.I.c.&.w O a.a.a.a.a.a.a.a.a.",
"a.a.a.a.a.a.a.a.a.a.a.a.a.* x @ @ @ 6 d K K K / J.J.J.H.d.d.f.d.d.3.W p p p p p p e @ @ @ o -.~.~.E.K.b.w.u o a.a.a.a.a.a.a.a.a.",
"a.a.a.a.a.a.a.a.a.a.a.a.a.* n & a.a.M @ @ o @ 8 E.E.E.U.x.x.x.x.x.w.I @ @ @ @ @ @ o a.a.a.o -.~.~.!.E.I.g.u + a.a.a.a.a.a.a.a.a.",
"a.a.a.a.a.a.a.a.a.a.a.a.a.* m * a.a.a.a.a.a.o r ~.~.~.!.J.K.K.K.K.x.Q @ a.a.a.a.a.a.a.a.a.o -.~.~.R.U.F.<.8 + a.a.a.a.a.a.a.a.a.",
"a.a.a.a.a.a.a.a.a.a.a.a.a.* 0 & a.a.a.a.a.a.o r ~.~.~.Q.K.K.K.K.H.x.Q @ a.a.a.a.a.a.a.a.a.+ -.~.~.!.E.H.3.9 o a.a.a.a.a.a.a.a.a.",
"a.a.a.a.a.a.a.a.a.a.a.a.a.B . a.a.a.a.a.a.a.o 8 U.U.U.K.d.d.f.p.d.3.F @ a.a.a.a.a.a.a.a.a.O a 9.~.E.U.c.Y 6 # a.a.a.a.a.a.a.a.a.",
"a.a.a.a.a.a.a.a.a.a.a.a.a.a.a.a.a.a.a.a.a.a.o r E.E.E.T.c.x.x.x.c.w.U @ a.a.a.a.a.a.a.a.a.a.o -.~.!.L.g.u o a.a.a.a.a.a.a.a.a.a.",
"a.a.a.a.a.a.a.a.a.a.a.a.a.a.a.a.a.a.a.a.a.a.. u ~.~.~.Q.K.K.K.K.H.c.! @ a.a.a.a.a.a.a.a.a.a.O a M.~.U.' 6 # a.a.a.a.a.a.a.a.a.a.",
"a.a.a.a.a.a.a.a.a.a.a.a.a.a.a.a.a.a.a.a.a.a.& t ~.!.U.K.d.s.p.p.d.3.F @ a.a.a.a.a.a.a.a.a.a.a.O a f s q # a.a.a.a.a.a.a.a.a.a.a.",
"a.a.a.a.a.a.a.a.a.a.a.a.a.a.a.a.a.a.a.a.a.a.. t ~.~.Q.R.b.b.v.v.F.d.U @ a.a.a.a.a.a.a.a.a.a.a.a.@ % % < a.a.a.a.a.a.a.a.a.a.a.a.",
"a.a.a.a.a.a.a.a.a.a.a.a.a.a.a.a.a.a.a.a.a.a.& q I.I.I.L.H.b.s.s.r.w.! @ a.a.a.a.a.a.a.a.a.a.a.a.a.a.a.a.a.a.a.a.a.a.a.a.a.a.a.a.",
"a.a.a.a.a.a.a.a.a.a.a.a.a.a.a.a.a.a.a.a.a.a.o q Q.Q.Q.R.K.H.c.c.c.j.! @ a.a.a.a.a.a.a.a.a.a.a.a.a.a.a.a.a.a.a.a.a.a.a.a.a.a.a.a.",
"a.a.a.a.a.a.a.a.a.a.a.a.a.a.a.a.a.a.a.a.a.a.o r ~.~.~.Q.K.K.K.J.K.x.! @ a.a.a.a.a.a.a.a.a.a.a.a.a.a.a.a.a.a.a.a.a.a.a.a.a.a.a.a.",
"a.a.a.a.a.a.a.a.a.a.a.a.a.a.a.a.a.a.a.a.a.a.o r W.~.D.v l l ) r.w.w.! @ a.a.a.a.a.a.a.a.a.a.a.a.a.a.a.a.a.a.a.a.a.a.a.a.a.a.a.a.",
"a.a.a.a.a.a.a.a.a.a.a.a.a.a.a.a.a.a.a.a.a.a.o r ~.D.:.A.t.M.;.) b.k.! @ a.a.a.a.a.a.a.a.a.a.a.a.a.a.a.a.a.a.a.a.a.a.a.a.a.a.a.a.",
"a.a.a.a.a.a.a.a.a.a.a.a.a.a.a.a.a.a.a.a.a.a.& r Q.C.>.I.K.H.8.( K.x.` @ a.a.a.a.a.a.a.a.a.a.a.a.a.a.a.a.a.a.a.a.a.a.a.a.a.a.a.a.",
"a.a.a.a.a.a.a.a.a.a.a.a.a.a.a.a.a.a.a.a.a.a.& q ~.S.:.E.K.H.8.( K.x.! @ a.a.a.a.a.a.a.a.a.a.a.a.a.a.a.a.a.a.a.a.a.a.a.a.a.a.a.a.",
"a.a.a.a.a.a.a.a.a.a.a.a.a.a.a.a.a.a.a.a.a.a.& r ~.W.Z.b b c ( F.K.x.Q o a.a.a.a.a.a.a.a.a.a.a.a.a.a.a.a.a.a.a.a.a.a.a.a.a.a.a.a.",
"a.a.a.a.a.a.a.a.a.a.a.a.a.a.a.a.a.a.a.a.a.a.. q ~.~.W.Y.F.V.F.K.K.x.! @ a.a.a.a.a.a.a.a.a.a.a.a.a.a.a.a.a.a.a.a.a.a.a.a.a.a.a.a.",
"a.a.a.a.a.a.a.a.a.a.a.a.a.a.a.a.a.a.a.a.a.a.& t Q.K.K.K.H.v.u.i.r.<.S @ a.a.a.a.a.a.a.a.a.a.a.a.a.a.a.a.a.a.a.a.a.a.a.a.a.a.a.a.",
"a.a.a.a.a.a.a.a.a.a.a.a.a.a.a.a.a.a.a.a.a.a.. t ~.~.~.E.K.H.G.K.K.k.Y @ a.a.a.a.a.a.a.a.a.a.a.a.a.a.a.a.a.a.a.a.a.a.a.a.a.a.a.a.",
"a.a.a.a.a.a.a.a.a.a.a.a.a.a.a.a.a.a.a.a.a.a.. t ~.~.~.E.K.K.K.K.K.x.! @ a.a.a.a.a.a.a.a.a.a.a.a.a.a.a.a.a.a.a.a.a.a.a.a.a.a.a.a.",
"a.a.a.a.a.a.a.a.a.a.a.a.a.a.a.a.a.a.a.a.a.a.o r ~.!.K.n.y.y.y.i.w.! = X a.a.a.a.a.a.a.a.a.a.a.a.a.a.a.a.a.a.a.a.a.a.a.a.a.a.a.a.",
"a.a.a.a.a.a.a.a.a.a.a.a.a.a.a.a.a.a.a.a.a.a.o r ~.~.~.E.H.H.H.x.6.! o a.a.a.a.a.a.a.a.a.a.a.a.a.a.a.a.a.a.a.a.a.a.a.a.a.a.a.a.a.",
"a.a.a.a.a.a.a.a.a.a.a.a.a.a.a.a.a.a.a.a.a.a.o r ~.~.~.E.K.K.H.x.6.! @ a.a.a.a.a.a.a.a.a.a.a.a.a.a.a.a.a.a.a.a.a.a.a.a.a.a.a.a.a.",
"a.a.a.a.a.a.a.a.a.a.a.a.a.a.a.a.a.a.a.a.a.a.o r ~.~.Q.b.6.6.6.6.! @ a.a.a.a.a.a.a.a.a.a.a.a.a.a.a.a.a.a.a.a.a.a.a.a.a.a.a.a.a.a.",
"a.a.a.a.a.a.a.a.a.a.a.a.a.a.a.a.a.a.a.a.a.a.a.o a ~.~.Q.K.H.x.] o a.a.a.a.a.a.a.a.a.a.a.a.a.a.a.a.a.a.a.a.a.a.a.a.a.a.a.a.a.a.a.",
"a.a.a.a.a.a.a.a.a.a.a.a.a.a.a.a.a.a.a.a.a.a.a.a.% o o o @ @ o o a.a.a.a.a.a.a.a.a.a.a.a.a.a.a.a.a.a.a.a.a.a.a.a.a.a.a.a.a.a.a.a.",
"a.a.a.a.a.a.a.a.a.a.a.a.a.a.a.a.a.a.a.a.a.a.a.a.a.a.a.a.a.a.a.a.a.a.a.a.a.a.a.a.a.a.a.a.a.a.a.a.a.a.a.a.a.a.a.a.a.a.a.a.a.a.a.a."
};
