/* XPM */
static char *result[] = {
/* columns rows colors chars-per-pixel */
"64 64 175 2 ",
"   c black",
".  c #330033",
"X  c #1C1C54",
"o  c #2C1B43",
"O  c #2E174B",
"+  c #2D1E4B",
"@  c #301A44",
"#  c #35154A",
"$  c #371D48",
"%  c #381850",
"&  c #282849",
"*  c #3A2346",
"=  c #33234D",
"-  c #3A284F",
";  c #392755",
":  c #3A2D5A",
">  c #3E3358",
",  c #2C1663",
"<  c #252B64",
"1  c #213678",
"2  c #323773",
"3  c #461A46",
"4  c #572951",
"5  c #44355F",
"6  c #573258",
"7  c #6E304D",
"8  c #463862",
"9  c #463B6B",
"0  c #7B5652",
"q  c #4D4165",
"w  c #464069",
"e  c #4A426C",
"r  c #544466",
"t  c #564A6D",
"y  c #4E4677",
"u  c #4F4A73",
"i  c #544D7E",
"p  c #575277",
"a  c #56547D",
"s  c #625372",
"d  c #665B79",
"f  c #6C5D7A",
"g  c #6E617D",
"h  c #85414D",
"j  c #A9535D",
"k  c #886255",
"l  c #956D58",
"z  c #A45276",
"x  c #D26354",
"c  c #CC716A",
"v  c #D77B74",
"b  c #E0796A",
"n  c #D6817F",
"m  c #E49562",
"M  c #E18274",
"N  c #F0B66A",
"B  c #2E178B",
"V  c #1E3D85",
"C  c #0000BF",
"Z  c #3A5A94",
"A  c #1652AC",
"S  c #316FBB",
"D  c #3876BF",
"F  c #544E84",
"G  c #5D5D86",
"H  c #5A578A",
"J  c #40639B",
"K  c #597096",
"L  c #676585",
"P  c #68678A",
"I  c #7B6F89",
"U  c #646692",
"Y  c #676B99",
"T  c #6A7399",
"R  c #727292",
"E  c #777B9B",
"W  c #5E7AA0",
"Q  c #6B6FA2",
"!  c #6F7AA2",
"~  c #717AA3",
"^  c #7474AD",
"/  c #A75D80",
"(  c #887E94",
")  c #A96889",
"_  c #A77698",
"`  c #6E81A3",
"'  c #6584AA",
"]  c #7982A5",
"[  c #7A86AC",
"{  c #7E89BF",
"}  c #5692CD",
"|  c #6599C5",
" . c #7B99CB",
".. c #77ABCF",
"X. c #62A2D5",
"o. c #6FA7D0",
"O. c #69A9D9",
"+. c #75B0D9",
"@. c #76B7E1",
"#. c #86849D",
"$. c #8587A5",
"%. c #968CA0",
"&. c #808CB1",
"*. c #8F9EBD",
"=. c #919EBC",
"-. c #A39AAB",
";. c #B399B4",
":. c #E89886",
">. c #EDBC8B",
",. c #EAA094",
"<. c #8A99C9",
"1. c #8FA0CD",
"2. c #97A4CA",
"3. c #94A7D2",
"4. c #99ACD5",
"5. c #8BB7DE",
"6. c #9CB6DC",
"7. c #9FB8DD",
"8. c #BAAAC2",
"9. c #BEB7C8",
"0. c #A2ACD1",
"q. c #AAB6D8",
"w. c #A3BBDE",
"e. c #8EBAE0",
"r. c #A3BDE0",
"t. c #BFC0D5",
"y. c #8FC2E5",
"u. c #89C7E9",
"i. c #8DC9EA",
"p. c #94C5E6",
"a. c #91CBEA",
"s. c #9CCCEA",
"d. c #9ED0EC",
"f. c #99D9EA",
"g. c #A5C2E2",
"h. c #AAC4E3",
"j. c #A7C9E6",
"k. c #AEC8E5",
"l. c #A6CDE9",
"z. c #B1CBE7",
"x. c #B4CEE8",
"c. c #A6D4ED",
"v. c #AAD5EE",
"b. c #B6D2EA",
"n. c #BBD4EB",
"m. c #B5DAEF",
"M. c #BCD9ED",
"N. c #BEDEF0",
"B. c #C5C0C9",
"V. c #C9C4CD",
"C. c #C7CAD7",
"Z. c #D1CCD3",
"A. c #C9D1DE",
"S. c #DCD9D1",
"D. c #F4CDC5",
"F. c #EAD7D7",
"G. c #F1D9D2",
"H. c #F8E1DB",
"J. c #C6D7E9",
"K. c #C2DBEE",
"L. c #C4DFF0",
"P. c #C3E1F2",
"I. c #C9E3F2",
"U. c #D2E5F2",
"Y. c #DBE6F1",
"T. c #D4E8F4",
"R. c #DBEBF5",
"E. c #EEE5E5",
"W. c #E0EEF6",
"Q. c #E4F1F7",
"!. c #EBF5F8",
"~. c #FDF9F5",
"^. c #F1F7F9",
"/. c #F3F9FA",
"(. c #FFFFFC",
/* pixels */
"f.f.f.f.f.f.f.f.f.f.f.f.f.f.f.f.f.f.f.f.f.f.f.f.f.f.f.f.f.f.f.f.f.f.f.f.f.f.f.f.f.f.f.f.f.f.f.f.f.f.f.f.f.f.f.f.f.f.f.f.f.f.f.f.",
"f.f.f.f.f.f.f.f.f.f.f.f.f.f.f.f.f.f.f.f.f.f.f.f.f.f.f.f.f.f.f.f.o o o o o @ O % f.f.f.f.f.f.f.f.f.f.f.f.f.f.f.f.f.f.f.f.f.f.f.f.",
"f.f.f.f.f.f.f.f.f.f.f.f.f.f.f.f.f.f.f.f.f.f.f.f.f.f.f.f.f.f.f.o [ n.K.I.^.(.(.s o f.f.f.f.f.f.f.f.f.f.f.f.f.f.f.f.f.f.f.f.f.f.f.",
"f.f.f.f.f.f.f.f.f.f.f.f.f.f.f.f.f.f.f.f.f.f.f.f.f.f.f.f.f.f.@ ~ 6.6.6.6.n.^.(.(.r o f.f.f.f.f.f.f.f.f.f.f.f.f.f.f.f.f.f.f.f.f.f.",
"f.f.f.f.f.f.f.f.f.f.f.f.f.f.f.f.f.f.f.f.f.f.f.f.f.f.f.f.f.@ ~ 6.n.I.I.I.^.(.(.(.r o f.f.f.f.f.f.f.f.f.f.f.f.f.f.f.f.f.f.f.f.f.f.",
"f.f.f.f.f.f.f.f.f.f.f.f.f.f.f.f.f.f.f.f.f.f.f.f.f.f.f.f.f.@ ~ 6.b.P.P.P.!.(.(.(.r o f.f.f.f.f.f.f.f.f.f.f.f.f.f.f.f.f.f.f.f.f.f.",
"f.f.f.f.f.f.f.f.f.f.f.f.f.f.f.f.f.f.f.f.f.f.f.f.f.f.f.f.X = ] 6.y.u.u.u.M.I.^.(.r o f.f.f.f.f.f.f.f.f.f.f.f.f.f.f.f.f.f.f.f.f.f.",
"f.f.f.f.f.f.f.f.f.f.f.f.f.f.f.f.f.f.f.f.f.f.f.f.f.f.f.f.@ ~ b.I.I.I.I.I.^.(.(.(.q o f.f.f.f.f.f.f.f.f.f.f.f.f.f.f.f.f.f.f.f.f.f.",
"f.f.f.f.f.f.f.f.f.f.f.f.f.f.f.f.f.f.f.f.f.f.f.f.f.f.f.f.@ ! x.K.K.P.I.I.^.(.(.(.r & f.f.f.f.f.f.f.f.f.f.f.f.f.f.f.f.f.f.f.f.f.f.",
"f.f.f.f.f.f.f.f.f.f.f.f.f.f.f.f.f.f.f.f.f.f.f.f.f.f.f.f.@ F <.7.p.i.m.I.I.I.I.^.r . f.f.f.f.f.f.f.f.f.f.f.f.f.f.f.f.f.f.f.f.f.f.",
"f.f.f.f.f.f.f.f.f.f.f.f.f.f.f.f.f.f.f.f.f.f.f.f.f.f.f.f.@ ~ b.I.K.n.A.A.E.(.(.(.t . f.f.f.f.f.f.f.f.f.f.f.f.f.f.f.f.f.f.f.f.f.f.",
"f.f.f.f.f.f.f.f.f.f.f.f.f.f.f.f.f.f.f.f.f.f.f.f.f.f.f.f.o ~ b.I.J.) c b b D.(.(.t & f.f.f.f.f.f.f.f.f.f.f.f.f.f.f.f.f.f.f.f.f.f.",
"f.f.f.f.f.f.f.f.f.f.f.f.f.f.f.f.f.f.f.f.f.f.f.f.f.f.f.f.@ ~ b.I.) 8.I.I.!.:.G.(.r o f.f.f.f.f.f.f.f.f.f.f.f.f.f.f.f.f.f.f.f.f.f.",
"f.f.f.f.f.f.f.f.f.f.f.f.f.f.f.f.f.f.f.f.f.f.f.f.f.f.f.f.@ ' b.I.) 8.I.I.I.>.S./.r o f.f.f.f.f.f.f.f.f.f.f.f.f.f.f.f.f.f.f.f.f.f.",
"f.f.f.f.f.f.f.f.f.f.f.f.f.f.f.f.f.f.f.f.f.f.f.f.f.f.f.f.o ~ z.M._ ;.9.t.F.,.G.(.r o f.f.f.f.f.f.f.f.f.f.f.f.f.f.f.f.f.f.f.f.f.f.",
"f.f.f.f.f.f.f.f.f.f.f.f.f.f.f.f.f.f.f.f.f.f.f.f.f.f.f.f.@ ~ w.w.w._ z z v H.(.(.r o f.f.f.f.f.f.f.f.f.f.f.f.f.f.f.f.f.f.f.f.f.f.",
"f.f.f.f.f.f.f.f.f.f.f.f.f.f.f.f.f.f.f.f.f.f.f.f.f.f.f.f.@ ~ n.I.I.I.I.I.^.(.(.(.t . f.f.f.f.f.f.f.f.f.f.f.f.f.f.f.f.f.f.f.f.f.f.",
"f.f.f.f.f.f.f.f.f.f.f.f.f.f.f.f.f.f.f.f.f.f.f.f.f.f.f.f.@ ~ z.n.n.n.K.I.Q.^.^.^.q & f.f.f.f.f.f.f.f.f.f.f.f.f.f.f.f.f.f.f.f.f.f.",
"f.f.f.f.f.f.f.f.f.f.f.f.f.f.f.f.f.f.f.f.f.f.f.f.f.f.f.f.. ~ r.g.g.g.M.I.T.T.T.T.w & f.f.f.f.f.f.f.f.f.f.f.f.f.f.f.f.f.f.f.f.f.f.",
"f.f.f.f.f.f.f.f.f.f.f.f., % % . f.f.f.f.f.f.f.f.f.f.f.f.& T h.M.M.m.M.n.Q.^.~.(.r o f.f.f.f.f.f.f.f.f.f.f.f.f.f.f.f.f.f.f.f.f.f.",
"f.f.f.f.f.f.f.f.f.f.f.# e d g s + f.f.f.f.f.f.f.f.f.f.f.@ H 3.h.s.s.j.g.I.R./.(.r o f.f.f.f.f.f.f.f.f.f.f.f.f.f.f.f.f.f.f.f.f.f.",
"f.f.f.f.f.f.f.f.f.f.# 5 ] R.(.V.s + f.f.f.f.f.f.f.f.f.f.@ ~ b.I.I.I.I.I./.~.(.(.r o f.f.f.f.f.f.f.f.f.f.f.f.f.f.f.f.f.f.f.f.f.f.",
"f.f.f.f.f.f.f.f.f.f.+ e k.R.^.(.-.+ f.f.f.f.f.f.f.f.f.f.@ Y w.n.m.b.b.n.W.!.!.!.r & f.f.f.f.f.f.f.f.f.f.f.f.f.f.f.f.f.f.f.f.f.f.",
"f.f.f.f.f.f.f.f.f.# 5 T n.R.Q.(.9.s = f.f.f.f.f.f.f.f.f.@ H 3.h.s.g.g.h.I.R.R.R.q . f.f.f.f.f.f.f.. C f.f.f.f.f.f.f.f.f.f.f.f.f.",
"f.f.f.f.f.f.f.f.f.+ 9 3.L.!.^.(.(.-.+ f.f.f.f.f.f.f.f.f.@ ~ x.I.I.I.I.I.^.(.(.(.r & f.f.f.f.f.f.* 0 * f.f.f.f.f.f.f.f.f.f.f.f.f.",
"f.f.f.f.f.f.f.f.f.+ 8 <.K.R.!.(.(.-.@ f.f.f.f.f.f.f.f.f.@ ~ n.L.I.I.I.I.^.(.(.(.t . f.f.f.f.f.f.o N - f.f.f.f.f.f.f.f.f.f.f.f.f.",
"f.f.f.f.f.f.f.f.f.+ u h.T.!./.(.(.-.= f.f.f.. @ @ @ @ @ o Y w.n.b.b.b.b.R.!.!.!.r @ @ @ o B f.f.o m - f.f.f.f.f.f.f.f.f.f.f.f.f.",
"f.f.f.f.f.f.f.f.f.+ u w.M.I.!.(.(.-.o o o & u a p a a a a Y 4.h.h.h.h.h.M.I.I.I.E L L P L > . = * x . f.f.f.f.f.f.f.f.f.f.f.f.f.",
"f.f.f.f.f.f.f.f.f.O 9 &.n.T.Q.Q.Q.=.2 y G L =.h.h.k.k.k.k.h.I.W.Q.Q.W.Q.W.Q.R.Q.W.W.W.W.W.i H 9 & j @ f.f.f.f.f.f.f.f.f.f.f.f.f.",
"f.f.f.f.f.f.f.f.f.f.o p x.v.v.v.v.5. .q.J.U.W.W.W.W.W.W.Q.W./.W.P.I.I.I.I.I.I.I./.(.(.(.(.^ w.{ * 6 @ f.f.f.f.f.f.f.f.f.f.f.f.f.",
"f.f.f.f.f.f.f.f.f.& o 5 T W W W K ` $.%.-.-.Z.(.(.(.(.(.(.(.B.{ } @.X.+.X.} @.X.v./.(.(.(.2.U.6.* 4 @ @ * & f.f.f.f.f.f.f.f.f.f.",
"f.f.f.f.f.f.f.f.f.; y G G G G P #.( #.s t ( %.Z.(.^.Q.Q./.(.I V A X.D X.S A O.S +.!.(.(.(.U.~.w.& c * 7 k k & f.f.f.f.f.f.f.f.f.",
"f.f.f.f.f.f.f.f.f.> i U U U U R %.%.%.d s %.%.V.(.^.W.Q./.(.I < 1 | J | Z 1 o.Z ..!.(.(.(.I./.r.% c * h l l o f.f.f.f.f.f.f.f.f.",
"f.f.f.f.f.f.f.f.f.. o > U K K K K T E #.%.%.V.(.(.(.(.(.(.(.9.R K +.' ..' K +.' k./.(.(.(.0.Y.r.= 4 o o o o f.f.f.f.f.f.f.f.f.f.",
"f.f.f.f.f.f.f.f.f.f.o p v.c.c.c.c.e.1.w.J.Y.Q.Q.Q.Q.Q.Q.W.Q./.W.I.P.P.P.P.P.P.P.^.(.(.(.(.^ h.( & 4 o f.f.f.f.f.f.f.f.f.f.f.f.f.",
"f.f.f.f.f.f.f.f.f.= w [ n.U.Q.Q.Q.*.2 F U R 2.z.z.z.z.z.z.z.I.Q.Q.W.Q.W.Q.Q.Q.Q.Q.Q.W.W.Q.F L 6 @ j $ f.f.f.f.f.f.f.f.f.f.f.f.f.",
"f.f.f.f.f.f.f.f.f.+ u w.n.T.!.(.(.-.o @ O @ u G G G G G G Q 4.k.k.k.k.h.N.I.I.I.$.R R R R > + o @ x $ f.f.f.f.f.f.f.f.f.f.f.f.f.",
"f.f.f.f.f.f.f.f.f.& u h.T.Q.!.(.(.-.+ f.f.f.O @ O @ @ O o U 3.7.h.x.x.x.T.Q.Q.Q.q o o O o & f.f.@ m * f.f.f.f.f.f.f.f.f.f.f.f.f.",
"f.f.f.f.f.f.f.f.f.+ 9 <.J.Q.!.(.(.-.+ f.f.f.f.f.f.f.f.f.@ ~ h.x.K.I.I.I.^.(.(.(.r o f.f.f.f.f.f.@ N * f.f.f.f.f.f.f.f.f.f.f.f.f.",
"f.f.f.f.f.f.f.f.f.+ w 1.J.Q.!.(.(.-.o f.f.f.f.f.f.f.f.f.@ ~ b.I.I.I.I.I.^.(.(.(.r o f.f.f.f.f.f.o k * f.f.f.f.f.f.f.f.f.f.f.f.f.",
"f.f.f.f.f.f.f.f.f.3 8 R n.R.!.(.B.f o f.f.f.f.f.f.f.f.f.@ H 4.h.l.j.h.h.U.R.R.R.r . f.f.f.f.f.f.f.= . f.f.f.f.f.f.f.f.f.f.f.f.f.",
"f.f.f.f.f.f.f.f.f.f.+ u h.T.^.(.-.+ f.f.f.f.f.f.f.f.f.f.@ U w.b.v.b.b.n.R.!.Q.!.r o f.f.f.f.f.f.f.f.f.f.f.f.f.f.f.f.f.f.f.f.f.f.",
"f.f.f.f.f.f.f.f.f.f.3 8 $.W.(.Z.f & f.f.f.f.f.f.f.f.f.f.@ ~ n.I.I.I.I.I.^.(.(.(.r & f.f.f.f.f.f.f.f.f.f.f.f.f.f.f.f.f.f.f.f.f.f.",
"f.f.f.f.f.f.f.f.f.f.f.3 u P I g . f.f.f.f.f.f.f.f.f.f.f.@ H 4.h.l.d.j.h.U.R./.(.r & f.f.f.f.f.f.f.f.f.f.f.f.f.f.f.f.f.f.f.f.f.f.",
"f.f.f.f.f.f.f.f.f.f.f.f.3 + + + f.f.f.f.f.f.f.f.f.f.f.f.@ Y r.n.b.m.n.b.Q.!.(.(.r . f.f.f.f.f.f.f.f.f.f.f.f.f.f.f.f.f.f.f.f.f.f.",
"f.f.f.f.f.f.f.f.f.f.f.f.f.f.f.f.f.f.f.f.f.f.f.f.f.f.f.f.@ ~ r.h.g.g.M.I.T.R.R.R.e & f.f.f.f.f.f.f.f.f.f.f.f.f.f.f.f.f.f.f.f.f.f.",
"f.f.f.f.f.f.f.f.f.f.f.f.f.f.f.f.f.f.f.f.f.f.f.f.f.f.f.f.@ ~ h.n.n.b.K.I.Q.!.!.!.r o f.f.f.f.f.f.f.f.f.f.f.f.f.f.f.f.f.f.f.f.f.f.",
"f.f.f.f.f.f.f.f.f.f.f.f.f.f.f.f.f.f.f.f.f.f.f.f.f.f.f.f.@ ~ b.I.I.I.I.I.!.(.(.(.r o f.f.f.f.f.f.f.f.f.f.f.f.f.f.f.f.f.f.f.f.f.f.",
"f.f.f.f.f.f.f.f.f.f.f.f.f.f.f.f.f.f.f.f.f.f.f.f.f.f.f.f.@ E 7.g.g._ / ) n H.(.(.r o f.f.f.f.f.f.f.f.f.f.f.f.f.f.f.f.f.f.f.f.f.f.",
"f.f.f.f.f.f.f.f.f.f.f.f.f.f.f.f.f.f.f.f.f.f.f.f.f.f.f.f.@ ~ k.M._ ;.9.9.F.,.H.(.r o f.f.f.f.f.f.f.f.f.f.f.f.f.f.f.f.f.f.f.f.f.f.",
"f.f.f.f.f.f.f.f.f.f.f.f.f.f.f.f.f.f.f.f.f.f.f.f.f.f.f.f.@ ' v.I.) 8.I.I.U.>.S.^.r o f.f.f.f.f.f.f.f.f.f.f.f.f.f.f.f.f.f.f.f.f.f.",
"f.f.f.f.f.f.f.f.f.f.f.f.f.f.f.f.f.f.f.f.f.f.f.f.f.f.f.f.@ ~ b.I.) 8.I.I.!.M G.(.r o f.f.f.f.f.f.f.f.f.f.f.f.f.f.f.f.f.f.f.f.f.f.",
"f.f.f.f.f.f.f.f.f.f.f.f.f.f.f.f.f.f.f.f.f.f.f.f.f.f.f.f.@ ~ b.I.n._ c v M D.~.(.r o f.f.f.f.f.f.f.f.f.f.f.f.f.f.f.f.f.f.f.f.f.f.",
"f.f.f.f.f.f.f.f.f.f.f.f.f.f.f.f.f.f.f.f.f.f.f.f.f.f.f.f.@ ~ n.I.I.C.C.C.G.~.~.(.r o f.f.f.f.f.f.f.f.f.f.f.f.f.f.f.f.f.f.f.f.f.f.",
"f.f.f.f.f.f.f.f.f.f.f.f.f.f.f.f.f.f.f.f.f.f.f.f.f.f.f.f.@ F 1.r.p.a.m.I.U.U.U./.q o f.f.f.f.f.f.f.f.f.f.f.f.f.f.f.f.f.f.f.f.f.f.",
"f.f.f.f.f.f.f.f.f.f.f.f.f.f.f.f.f.f.f.f.f.f.f.f.f.f.f.f.@ T z.K.L.N.L.I.!./.~.~.r o f.f.f.f.f.f.f.f.f.f.f.f.f.f.f.f.f.f.f.f.f.f.",
"f.f.f.f.f.f.f.f.f.f.f.f.f.f.f.f.f.f.f.f.f.f.f.f.f.f.f.f.o ! x.I.I.I.I.I.!.(.(.(.r o f.f.f.f.f.f.f.f.f.f.f.f.f.f.f.f.f.f.f.f.f.f.",
"f.f.f.f.f.f.f.f.f.f.f.f.f.f.f.f.f.f.f.f.f.f.f.f.f.f.f.f.& : [ r.p.i.i.i.N.U./.(.q o f.f.f.f.f.f.f.f.f.f.f.f.f.f.f.f.f.f.f.f.f.f.",
"f.f.f.f.f.f.f.f.f.f.f.f.f.f.f.f.f.f.f.f.f.f.f.f.f.f.f.f.f.@ ~ 6.x.N.N.N.!./.(.(.t o f.f.f.f.f.f.f.f.f.f.f.f.f.f.f.f.f.f.f.f.f.f.",
"f.f.f.f.f.f.f.f.f.f.f.f.f.f.f.f.f.f.f.f.f.f.f.f.f.f.f.f.f.@ ~ 6.n.I.I.I./.(.(.(.u . f.f.f.f.f.f.f.f.f.f.f.f.f.f.f.f.f.f.f.f.f.f.",
"f.f.f.f.f.f.f.f.f.f.f.f.f.f.f.f.f.f.f.f.f.f.f.f.f.f.f.f.f.X + ~ 6.6.7.7.N.^.(.(.r o f.f.f.f.f.f.f.f.f.f.f.f.f.f.f.f.f.f.f.f.f.f.",
"f.f.f.f.f.f.f.f.f.f.f.f.f.f.f.f.f.f.f.f.f.f.f.f.f.f.f.f.f.f.X = [ n.L.L.!.(.(.f ;   f.f.f.f.f.f.f.f.f.f.f.f.f.f.f.f.f.f.f.f.f.f.",
"f.f.f.f.f.f.f.f.f.f.f.f.f.f.f.f.f.f.f.f.f.f.f.f.f.f.f.f.f.f.f.X = - - = - - - =   f.f.f.f.f.f.f.f.f.f.f.f.f.f.f.f.f.f.f.f.f.f.f.",
"f.f.f.f.f.f.f.f.f.f.f.f.f.f.f.f.f.f.f.f.f.f.f.f.f.f.f.f.f.f.f.f.f.f.f.f.f.f.f.f.f.f.f.f.f.f.f.f.f.f.f.f.f.f.f.f.f.f.f.f.f.f.f.f."
};
