/* XPM */
static char *a35461a17bd54842f173d451644e7a1bXdUbW57rIDxUaGjs[] = {
/* columns rows colors chars-per-pixel */
"128 64 53 1 ",
"  c #99D9EA",
". c #96D2E2",
"X c #8FC3D1",
"o c #8CBCC9",
"O c #7C98A0",
"+ c #738287",
"@ c #666566",
"# c #8CB0BA",
"$ c #8C989B",
"% c gray55",
"& c #BFC3C4",
"* c gray85",
"= c white",
"- c #D9D8D9",
"; c #8C8B8C",
": c #A9A8A9",
"> c #E2E2E2",
", c gray96",
"< c gray87",
"1 c #9C9B9C",
"2 c #7B7A7B",
"3 c #7F8A8E",
"4 c #88ABB5",
"5 c gray91",
"6 c gray73",
"7 c #A4A3A4",
"8 c #979B9C",
"9 c gray93",
"0 c #CACACA",
"q c gray72",
"w c gray64",
"e c gray48",
"r c #888788",
"t c #CBCBCB",
"y c gray95",
"u c #FBFBFB",
"i c gray88",
"p c #C5C5C5",
"a c #7F7E7F",
"s c #B1B1B1",
"d c #D7D7D7",
"f c #BCBCBC",
"g c #B6B6B6",
"h c gray86",
"j c gray70",
"k c #8E8E8E",
"l c #8A898A",
"z c gray60",
"x c #858485",
"c c #979797",
"v c #D1D0D1",
"b c gray68",
"n c #C0C0C0",
/* pixels */
"                                                                                                                                ",
"                                                                                                                                ",
"                                                                                                                                ",
"                                           .XooooooooooooooooooooooooX.                                                         ",
"                                           XO++++++++++++++++++++++++OX                                                         ",
"                                           o+@@@@@@@@@@@@@@@@@@@@@@@@+o                                                         ",
"                                           o+@@@@@@@@@@@@@@@@@@@@@@@@+o                                                         ",
"                                     .Xoooo#$%%%%%%%%%%%%%%%%%%%%%%%%$#ooX.                                                     ",
"                                     XO++++$&************************&$++OX                                                     ",
"                                     o+@@@@%*========================-;@@+o                                                     ",
"                                     o+@@@@%*========================-;@@+o                                                     ",
"                                     o+@@@@%*========================-;@@+o                                                     ",
"                                     o+@@@@%*========================-;@@+o                                                     ",
"                 .Xoooooooooooooooooo#$%%%%:>========================>:%%$#ooooX.  .XooooooooooooooooooooooooX.                 ",
"                 XO++++++++++++++++++$&****>,========================,>**&$++++OX  XO++++++++++++++++++++++++OX                 ",
"                 o+@@@@@@@@@@@@@@@@@@%*==================================-;@@@@+o  o+@@@@@@@@@@@@@@@@@@@@@@@@+o                 ",
"                 o+@@@@@@@@@@@@@@@@@@%*==================================-;@@@@+o  o+@@@@@@@@@@@@@@@@@@@@@@@@+o                 ",
"           .Xoooo#$%%%%%%%%%%%%%%%%%%:>==================================>:%%%%$#oo#$%%%%%%%%%%%%%%%%%%%%%%%%$#ooooX.           ",
"           XO++++$&******************>,==================================,>****&$++$&************************&$++++OX           ",
"           o+@@@@%*============================================================-;@@%*========================-;@@@@+o           ",
"           o+@@@@%*============================================================-;@@%*========================-;@@@@+o           ",
"       .Xoo#$%%%%:>============================================================>:%%:>========================>:%%%%$#ooX.       ",
"       XO++$&****>,============================================================,>**>,========================,>****&$++OX       ",
"       o+@@%*======================================================================================================-;@@+o       ",
"       o+@@%*======================================================================================================-;@@+o       ",
"       o+@@%*======================================================================================================-;@@+o       ",
"       o+@@%*======================================================================================================-;@@+o       ",
" .Xoooo#$%%:>======================================================================================================<12234ooooX. ",
" XO++++$&**>,======================================================================================================567783++++OX ",
" o+@@@@%*==========================================================================================================90qqwe@@@@+o ",
" o+@@@@%*==========================================================================================================90qqwe@@@@+o ",
" o+@@@@%*==========================================================================================================90qqwe@@@@+o ",
" o+@@@@%*==========================================================================================================90qqwe@@@@+o ",
" o+@@@@%*==========================================================================================================90qqwe@@@@+o ",
" o+@@@@%*==========================================================================================================90qqwe@@@@+o ",
" o+@@@@%*==========================================================================================================90qqwe@@@@+o ",
" o+@@@@%*==========================================================================================================90qqwe@@@@+o ",
" o+@@@@rt99yu====================uy99999999yu================================================================uy9999ipqqwe@@@@+o ",
" o+@@@@as00dy====================yd00000000dy================================================================yd0000pfqqwe@@@@+o ",
" o+@@@@27qq09====================90qqqqqqqq09================================================================90qqqqqqqqwe@@@@+o ",
" o+@@@@27qq09====================90qqqqqqqq09================================================================90qqqqqqqqwe@@@@+o ",
" XO++++38wwgh9999yu========uy9999ipqqj:wwww65========================uy9999999999995<---->,==============uy99ipqqqqj:ww83++++OX ",
" .Xoooo43eekg0000dy========yd0000pfqq:leeee1<========================yd00000000000061;;;;:>==============yd00pfqqqq:lee34ooooX. ",
"       o+@@27qqqq09========90qqqqqqqqwe@@@@%*========================90qqqqqqqqqqqqwe@@@@%*==============90qqqqqqqqwe@@+o       ",
"       o+@@27qqqq09========90qqqqqqqqwe@@@@%*========================90qqqqqqqqqqqqwe@@@@%*==============90qqqqqqqqwe@@+o       ",
"       XO++38wwwwgh99999999ipqqqqj:wwzx2222cv99yu========uy9999999999ipqqj:wwwwwwwwzx2222cv99999999999999ipqqj:wwww83++OX       ",
"       .Xoo43eeeekg00000000pfqqqq:leexz7777bn00dy========yd0000000000pfqq:leeeeeeeexz7777bn00000000000000pfqq:leeee34ooX.       ",
"           o+@@@@27qqqqqqqqqqqqqqwe@@27qqqqqqqq09========90qqqqqqqqqqqqqqwe@@@@@@@@27qqqqqqqqqqqqqqqqqqqqqqqqwe@@@@+o           ",
"           o+@@@@27qqqqqqqqqqqqqqwe@@27qqqqqqqq09========90qqqqqqqqqqqqqqwe@@@@@@@@27qqqqqqqqqqqqqqqqqqqqqqqqwe@@@@+o           ",
"           o+@@@@27qqqqqqqqqqqqqqwe@@27qqqqqqqq09========90qqqqqqqqqqqqqqwe@@@@@@@@27qqqqqqqqqqqqqqqqqqqqqqqqwe@@@@+o           ",
"           o+@@@@27qqqqqqqqqqqqqqwe@@27qqqqqqqq09========90qqqqqqqqqqqqqqwe@@@@@@@@27qqqqqqqqqqqqqqqqqqqqqqqqwe@@@@+o           ",
"           XO++++38wwwwwwwwwwwwww83++38wwww:jqqpi99999999ipqqqqqqqqqqj:ww83++++++++38wwwwwwwwwwwwwwwwwwwwwwww83++++OX           ",
"           .Xoooo43eeeeeeeeeeeeee34oo43eeeel:qqfp00000000pfqqqqqqqqqq:lee34oooooooo43eeeeeeeeeeeeeeeeeeeeeeee34ooooX.           ",
"                 o+@@@@@@@@@@@@@@+o  o+@@@@27qqqqqqqqqqqqqqqqqqqqqqqqwe@@+o        o+@@@@@@@@@@@@@@@@@@@@@@@@+o                 ",
"                 o+@@@@@@@@@@@@@@+o  o+@@@@27qqqqqqqqqqqqqqqqqqqqqqqqwe@@+o        o+@@@@@@@@@@@@@@@@@@@@@@@@+o                 ",
"                 XO++++++++++++++OX  XO++++38wwwwwwwwwwwwwwwwwwwwwwww83++OX        XO++++++++++++++++++++++++OX                 ",
"                 .XooooooooooooooX.  .Xoooo43eeeeeeeeeeeeeeeeeeeeeeee34ooX.        .XooooooooooooooooooooooooX.                 ",
"                                           o+@@@@@@@@@@@@@@@@@@@@@@@@+o                                                         ",
"                                           o+@@@@@@@@@@@@@@@@@@@@@@@@+o                                                         ",
"                                           XO++++++++++++++++++++++++OX                                                         ",
"                                           .XooooooooooooooooooooooooX.                                                         ",
"                                                                                                                                ",
"                                                                                                                                ",
"                                                                                                                                "
};
