/* XPM */
static char *result[] = {
/* columns rows colors chars-per-pixel */
"64 64 153 2 ",
"   c #1A2E4D",
".  c #1A314F",
"X  c #1C3454",
"o  c #1E3759",
"O  c #1F3A5D",
"+  c #203C5E",
"@  c #213E61",
"#  c #254265",
"$  c #284566",
"%  c #25456A",
"&  c #284569",
"*  c #27496F",
"=  c #2B4A6E",
"-  c #264971",
";  c #2A4C73",
":  c #264E79",
">  c #294F79",
",  c #2F5174",
"<  c #2A527C",
"1  c #305276",
"2  c #32567C",
"3  c #35597A",
"4  c #395C7C",
"5  c #415B7B",
"6  c #2C5582",
"7  c #2E5886",
"8  c #2F5B89",
"9  c #335B84",
"0  c #315E8D",
"q  c #325F90",
"w  c #33618E",
"e  c #3C6289",
"r  c #346393",
"t  c #396693",
"y  c #3E6892",
"u  c #366699",
"i  c #37699E",
"p  c #3C6C9C",
"a  c #376CA2",
"s  c #3A6DA2",
"d  c #3D72A5",
"f  c #3B75AD",
"g  c #3B76B1",
"h  c #3E7AB5",
"j  c #3F7DBA",
"k  c #416582",
"l  c #466B89",
"z  c #496D8E",
"x  c #4B708D",
"c  c #446C94",
"v  c #477194",
"b  c #4C7496",
"n  c #4D749D",
"m  c #4E7A9A",
"M  c #5C7F95",
"N  c #547D9B",
"B  c #5B7F98",
"V  c #697E96",
"C  c #697E9A",
"Z  c #4375A3",
"A  c #4377AA",
"S  c #4278AD",
"D  c #527EA0",
"F  c #457DB5",
"G  c #447FB9",
"H  c #57819C",
"J  c #5A849E",
"K  c #60869F",
"L  c #4B85A8",
"P  c #4D8CAF",
"I  c #5483A4",
"U  c #5B87A1",
"Y  c #5281AF",
"T  c #518CAF",
"R  c #4C82B5",
"E  c #4B89B1",
"W  c #4480BA",
"Q  c #4E85B9",
"!  c #4C88BC",
"~  c #5084B7",
"^  c #528CB4",
"/  c #5087BB",
"(  c #5B8FBF",
")  c #4F90BB",
"_  c #5395BE",
"`  c #6C85A2",
"'  c #638FA5",
"]  c #6988A7",
"[  c #6085AA",
"{  c #638FA8",
"}  c #6391A9",
"|  c #628FBD",
" . c #6594B0",
".. c #6B9BB3",
"X. c #6895BF",
"o. c #6A9CB9",
"O. c #709DB3",
"+. c #73A4BC",
"@. c #7AA6BB",
"#. c #75AABF",
"$. c #6F9BC5",
"%. c #749EC5",
"&. c #789FC7",
"*. c #7CABC2",
"=. c #74A0C9",
"-. c #78A1CA",
";. c #7BABCB",
":. c #7DB1C6",
">. c #7EB3C9",
",. c #67B1DA",
"<. c #6BBADC",
"1. c #819DB9",
"2. c #9AACBE",
"3. c #87A8C1",
"4. c #98ADC0",
"5. c #92AFC9",
"6. c #80B4CA",
"7. c #83B9CE",
"8. c #9BB0C2",
"9. c #91B0C8",
"0. c #9EB5CA",
"q. c #9EB8CD",
"w. c #86BED3",
"e. c #8ABED1",
"r. c #9AB7D1",
"t. c #9CBAD2",
"y. c #A0BDD5",
"u. c #89C1D5",
"i. c #8EC6D9",
"p. c #8FC8D9",
"a. c #9CC1D4",
"s. c #93CCDD",
"d. c #9ACCDD",
"f. c #A6C2D5",
"g. c #ABC3D2",
"h. c #ABC7DA",
"j. c #A7CFDD",
"k. c #ABC8DA",
"l. c #95CFE0",
"z. c #97D2E4",
"x. c #9AD6E6",
"c. c #9DD8E7",
"v. c #9BD7E8",
"b. c #9BD8E9",
"n. c #A2D5E4",
"m. c #ABD6E5",
"M. c #A5D9E7",
"N. c #A4DCEA",
"B. c #A9DEED",
"V. c #ADE1EE",
"C. c #B1E2EF",
"Z. c #B2E3F0",
"A. c #B8E5F0",
/* pixels */
"b.b.b.v.b.b.b.b.b.b.b.b.b.b.b.v.b.b.b.b.b.b.b.b.b.b.b.b.b.b.b.b.b.b.b.b.b.b.b.b.b.b.b.b.b.b.b.b.b.b.b.b.b.b.b.b.b.b.b.b.b.b.b.b.",
"b.b.b.b.b.b.b.b.b.b.b.b.b.b.b.v.b.b.b.b.b.b.b.b.b.b.b.b.b.b.b.b.b.b.b.b.b.b.b.b.b.b.b.b.b.b.b.b.b.b.b.b.b.b.b.b.b.b.b.b.b.b.b.b.",
"v.b.v.b.b.b.v.b.b.b.b.b.b.b.b.v.b.b.b.b.b.b.b.b.b.b.z.b.b.b.b.b.b.b.b.b.b.b.b.b.b.b.b.b.b.b.b.b.b.b.b.b.b.b.b.b.b.b.b.b.b.b.b.b.",
"b.b.b.b.v.b.b.v.b.b.b.b.b.b.b.b.b.b.b.b.b.b.b.b.b.b.b.b.b.b.b.b.b.b.b.b.b.b.b.b.b.b.b.b.b.b.b.b.b.b.b.b.b.b.b.b.b.b.b.b.b.b.b.b.",
"b.b.b.b.b.b.v.v.b.b.b.b.b.b.b.b.b.b.b.b.b.b.b.b.b.b.b.b.b.b.b.b.b.b.b.b.b.b.b.b.b.b.b.b.b.b.b.b.b.b.b.b.b.b.b.b.b.b.b.b.b.b.b.b.",
"b.b.b.b.b.b.b.b.b.b.b.b.b.v.b.b.b.b.b.b.b.b.b.b.b.b.b.b.b.b.b.b.z.b.b.b.b.b.b.b.b.b.b.b.b.b.b.b.b.b.b.b.b.b.b.b.b.b.b.b.b.b.b.b.",
"b.b.b.b.b.b.b.b.b.b.b.b.b.b.b.b.b.b.b.b.b.b.b.b.b.b.b.b.b.b.b.b.b.b.b.b.b.b.b.b.b.b.b.b.b.b.b.b.b.b.b.b.b.b.b.b.b.b.b.b.b.b.b.b.",
"b.v.b.b.b.b.b.b.b.b.b.b.b.b.b.v.b.b.b.b.b.b.b.b.b.b.b.b.b.b.b.b.b.b.b.b.b.b.b.b.b.b.b.b.b.b.b.b.b.b.b.b.b.b.b.b.b.b.b.b.b.b.b.b.",
"v.b.v.v.b.b.b.b.b.b.b.b.b.b.b.b.b.b.b.b.b.b.b.b.b.b.b.b.b.b.b.b.b.b.V.V.V.b.b.b.b.b.b.b.b.b.b.b.b.b.b.b.b.b.b.b.b.b.b.b.b.b.b.b.",
"b.b.v.v.b.b.b.b.b.b.b.b.b.b.b.b.b.b.b.b.b.b.v.v.b.b.b.b.b.B.Z.Z.b.B.V.V.V.V.V.V.b.b.b.b.b.b.b.b.b.b.b.b.b.b.b.b.b.b.b.b.b.b.b.b.",
"b.b.v.v.b.b.b.b.b.b.b.b.b.b.b.b.b.b.b.b.b.b.b.v.b.b.b.N.V.V.N.b.x.x.b.b.x.b.b.V.V.N.b.b.b.b.b.b.b.b.b.b.b.b.b.b.b.b.b.b.b.b.b.b.",
"b.v.v.b.b.b.b.b.b.b.z.b.b.b.b.b.b.b.b.b.b.b.b.b.b.b.B.N.b.b.b.b.x.>.L P x.x.b.c.b.N.N.b.b.b.b.b.b.b.b.b.b.b.b.b.b.b.b.b.b.b.b.b.",
"b.b.v.b.b.b.b.b.b.b.b.b.b.b.b.b.b.b.b.b.b.N.b.b.b.b.b.b.b.b.b.b.b.a.p t U b.c.b.b.b.b.b.b.b.b.N.b.b.b.b.b.b.b.b.b.b.b.b.b.b.b.b.",
"v.b.b.b.b.b.b.b.b.b.b.b.b.b.b.b.b.b.b.b.b.b.b.b.b.b.b.b.b.b.b.b.x.j.E i e b.b.b.b.b.b.b.b.b.b.b.b.b.b.b.b.b.b.b.b.b.b.b.b.b.b.b.",
"b.b.v.b.b.b.b.b.b.b.b.b.b.b.b.b.b.b.b.b.b.b.b.b.N.b.b.b.b.b.v.b.c.k.W u 5 c.b.b.b.b.b.b.b.b.b.b.b.b.b.b.b.b.b.b.b.b.b.b.b.b.b.b.",
"b.b.v.b.b.b.b.b.b.b.b.b.b.b.z.b.b.b.b.b.b.b.b.b.b.b.b.b.b.n.v.b.c.k.W u k c.b.b.b.b.b.b.b.b.b.b.b.b.b.b.b.b.b.b.b.b.b.b.b.b.b.b.",
"b.b.z.b.b.b.b.b.b.b.b.b.x.b.b.b.b.b.b.b.b.c.b.b.b.b.v.b.b.b.b.b.x.k.h p e b.c.c.b.b.b.N.b.b.b.N.b.b.b.b.b.b.b.b.b.b.b.b.b.b.b.b.",
"v.z.b.b.b.b.b.b.b.b.b.b.x.b.b.x.b.b.b.b.b.b.b.b.v.N.b.b.b.b.b.b.c.k.W p 5 b.c.b.b.b.b.b.b.b.b.b.b.b.b.b.b.b.b.b.b.b.b.b.b.b.b.b.",
"b.b.b.b.b.b.b.b.b.b.b.b.b.b.b.b.x.b.b.b.c.b.b.b.b.b.b.b.b.v.n.b.c.k.W u k c.c.b.b.b.b.b.b.b.b.b.b.b.b.b.b.b.b.b.b.b.b.b.b.b.b.b.",
"b.b.b.b.b.b.b.b.x.b.b.b.b.x.x.b.b.b.b.b.c.b.b.b.b.b.b.b.b.v.b.b.c.k.W p e c.b.b.b.b.b.b.b.b.b.b.b.b.b.b.b.b.b.b.b.b.b.b.b.b.b.b.",
"b.b.b.b.b.b.b.b.b.b.b.x.b.b.b.b.b.c.c.b.b.b.b.b.b.N.b.b.N.b.b.b.M.k.W u k v.c.c.b.b.N.b.b.b.b.b.b.b.b.b.b.b.b.b.b.b.b.b.b.b.b.b.",
"b.b.b.b.b.b.b.b.b.b.b.b.b.b.b.b.c.b.b.N.b.b.b.b.b.b.b.b.b.b.b.b.c.k.W p k v.c.b.b.b.c.b.c.b.b.b.b.b.b.b.b.b.b.b.b.b.b.b.b.b.b.b.",
"b.z.b.b.b.b.b.b.b.b.x.b.b.b.c.c.b.c.b.b.b.b.b.b.b.b.b.b.c.b.b.b.b.k.S p k v.b.b.b.b.c.b.c.c.c.v.b.b.b.b.b.b.b.b.b.b.b.b.b.b.b.b.",
"b.b.b.b.z.b.b.b.b.c.c.b.x.b.v.v.b.b.b.b.b.b.b.b.b.b.b.b.b.b.b.b.c.k.F i k c.b.b.b.b.b.c.b.c.c.v.b.b.b.b.b.b.b.b.b.b.b.b.b.b.b.b.",
"b.z.b.b.b.b.b.b.b.c.c.b.b.b.v.v.b.b.b.b.b.c.c.c.b.b.b.b.v.c.c.c.c.k.F i k v.v.c.b.b.b.b.b.c.v.v.b.b.x.b.b.b.b.b.b.b.b.b.b.b.b.b.",
"b.b.b.b.v.v.x.v.v.c.b.c.v.v.v.v.b.b.b.b.c.b.b.b.b.b.b.b.v.z.7.6.>.f.F i 4 >.>.>.>.>.>.>.>.i.x.v.x.b.c.b.c.c.b.c.b.b.b.b.b.b.b.b.",
"b.b.b.b.v.x.n.m.V.V.V.B.B.N.c.v.b.b.b.b.b.b.b.b.v.v.c.x.7...= $ , 0.F p % % $ $ # # # ; > m #.#.u.x.b.b.b.b.b.b.b.b.b.b.b.b.b.b.",
"b.b.z.b.v.n.n c e.c.c.c.c.B.N.v.b.c.c.x.b.b.b.b.b.l.u.O.= @ & < 9 q.F s % < ; % # # % i g d 0 0 H u.b.b.b.c.b.b.b.V.b.b.b.b.b.b.",
"z.b.b.b.b.N.O./ N l.B.V.N.v.N.B.b.x.b.b.b.b.b.b.p.N $ o * - % f F 9.g t < h < + O o X O ^ T + 9 u J s.b.b.x.b.b.b.V.B.b.b.b.b.b.",
"b.b.b.b.V.b.z.F d +.z.c.B.N.n.B.s.p.p.p.p.s.p.u.4 - % X r d f g h 1 @ # 7 h h g f 6 X O ^ T + + : L p.b.b.b.b.b.b.V.V.b.b.b.b.b.",
"b.b.b.b.V.b.B.;.Z t w.l.l.x.s.d.l , , , , , , , % % % % - - > 6 6 + . X < i | -.%.] V C ;.*.K V ] 1.j.M.V.n.b.p.b.B.Z.B.b.b.b.b.",
"b.b.b.b.V.b.B.w.4 t 4 @ 2 e z = A f f f f f f g f g g f g g d - X + Z 2 . + [ -.%.%.&.%.&.&.%.%.=.+.=.$.$.$.o.p b.B.Z.b.b.b.b.b.",
"b.b.c.N.B.N.N.i.z ,.! > d F ( ; R R Q Q Q Q Q Q Q Q / Q ! ! E , X # <.y . # u f g h f f g g f f f g f g g f f l s.N.A.c.b.b.b.b.",
"v.b.b.N.V.c.V.v.e.H 3 = 4 B K M 0.g.g.g.g.g.g.g.8.2.2.2.q.a.t.y > + X o * 6 - > : - = * ; ; * * - - ; > ; ; 3 7.v.B.Z.v.b.b.b.b.",
"b.b.b.c.Z.v.V.N.v.l.+.p y s.l.m.x.s.l.l.s.s.z.s.4 * $ . s W W h s % X o u h f f f : o @ E L O # * m 6.u.u.w.u.v.c.B.Z.b.b.b.b.b.",
"b.v.b.b.B.N.b.N.N.c.z.~ /  .x.B.v.v.b.c.c.c.b.b.i.b % o ; < : h r 7 s 1.Q j 8 = - O X O _ T o 8 w H s.b.b.b.b.b.c.V.N.c.b.b.b.b.",
"b.b.b.b.c.V.c.c.N.N.N.s.v r ;.c.v.b.v.c.b.c.b.b.v.i.:.} = @ % < : q h r.n 7 - % % # % 7 f d 8 0 I >.v.b.b.b.c.b.b.C.b.b.b.b.b.b.",
"x.b.x.b.b.c.B.N.v.v.x.x.>.0 >.b.M.b.b.c.b.c.c.b.b.b.x.l.:.T @ + @ 8 h q.5 @ @ O O O O - - v o.o.>.x.b.b.b.b.b.b.V.B.b.b.b.b.b.b.",
"b.x.b.b.b.b.b.c.v.v.x.x.v.z.v.b.b.b.b.c.b.b.b.b.b.b.b.b.b.l.#.=.e 0 h t.@.................>.z.z.x.b.c.c.b.b.v.b.V.b.b.N.b.b.b.b.",
"b.b.b.b.v.b.b.v.v.v.v.v.b.b.b.b.b.b.c.b.c.c.v.b.b.b.b.b.b.b.b.b.H 0 h t.B.b.b.b.b.b.b.b.b.b.b.b.c.b.b.b.b.b.b.N.b.b.b.b.b.b.b.b.",
"b.b.b.x.b.b.b.b.b.b.b.b.b.b.b.b.b.b.b.b.b.b.b.b.b.b.b.b.b.b.b.b.H 0 h t.M.c.c.b.b.b.b.b.v.b.b.b.b.b.b.b.b.N.b.b.b.b.b.b.b.b.b.b.",
"x.b.b.b.b.b.b.b.b.b.b.b.b.b.b.v.b.b.b.b.b.b.b.b.b.b.b.N.b.b.b.b.H 0 h t.M.v.c.b.b.b.b.b.b.b.b.b.b.b.b.b.b.b.b.b.b.b.b.b.b.b.b.b.",
"b.b.b.b.b.b.b.x.b.b.b.b.b.b.v.b.b.b.b.b.b.v.b.b.b.b.b.b.b.b.b.N.H 0 h t.N.x.b.c.b.b.b.b.b.b.v.b.b.b.b.b.b.b.N.b.b.b.b.b.b.b.b.b.",
"b.b.x.b.v.b.b.b.b.b.b.b.v.b.b.b.b.b.b.b.b.v.b.b.b.b.b.b.b.b.b.b.H 8 F t.N.v.b.b.b.b.b.b.b.b.b.b.b.b.b.b.b.b.b.b.b.b.b.b.b.b.b.b.",
"v.v.v.v.v.b.b.b.b.b.b.b.b.b.b.b.b.b.b.N.b.b.b.v.b.b.b.b.b.b.b.b.H w h t.N.v.b.v.v.b.b.b.b.b.b.v.b.b.b.b.b.b.b.b.b.b.b.b.b.b.b.b.",
"v.v.v.b.v.b.b.b.b.b.b.b.b.b.v.b.b.b.b.b.b.b.b.c.b.b.b.b.b.b.b.b.H 0 h t.M.b.b.v.b.b.b.b.v.b.b.b.b.b.b.b.b.b.b.b.b.b.b.b.b.b.b.b.",
"b.b.b.b.b.b.b.b.b.b.b.b.v.b.b.b.b.b.b.b.b.b.b.b.b.b.b.b.b.b.b.b.H 8 j t.M.v.v.b.b.b.b.v.b.v.b.b.b.b.b.b.b.b.b.b.b.b.b.b.b.b.b.b.",
"b.v.b.b.b.b.b.b.b.b.b.b.v.b.b.b.b.b.b.b.b.b.b.b.b.b.b.N.b.b.b.b.H r h t.N.v.b.c.b.b.b.b.b.b.b.b.b.b.b.b.b.b.b.b.b.b.b.b.b.b.b.b.",
"b.b.b.b.b.b.b.b.b.b.b.b.z.b.b.b.b.b.b.b.b.b.b.b.b.b.b.b.b.b.b.b.H q h t.N.b.b.b.b.b.b.b.b.b.b.b.b.b.b.b.b.b.b.b.b.b.b.b.v.b.b.b.",
"b.b.b.b.b.b.b.b.b.b.b.b.b.b.b.b.b.b.b.b.b.b.b.b.b.b.b.b.b.b.b.b.U q j t.N.b.b.b.b.b.b.b.b.b.b.b.b.b.b.b.b.b.b.N.b.b.b.b.b.b.b.b.",
"b.b.b.b.b.b.b.b.b.b.b.b.b.b.b.b.b.b.b.b.b.b.b.b.b.b.b.b.b.b.b.b.H 0 j r.N.v.b.b.b.b.b.b.b.b.b.b.b.b.b.b.b.b.b.b.b.b.b.b.b.b.b.b.",
"b.b.b.b.b.b.b.b.b.b.b.b.b.b.b.b.b.b.b.b.b.b.b.b.b.b.b.b.b.b.b.b.{ t g 5.b.v.b.b.b.b.b.b.b.b.b.b.b.b.b.b.b.b.b.b.b.b.b.b.b.b.b.b.",
"b.b.b.b.b.b.b.b.b.b.b.b.b.b.b.b.b.b.b.b.b.b.b.b.b.b.V.b.b.b.b.b.x.J k ' b.b.b.b.b.N.B.b.b.b.b.b.b.b.b.b.b.b.b.b.v.N.v.b.b.b.b.b.",
"z.b.b.b.b.b.b.b.b.b.b.b.b.b.b.b.b.b.b.b.b.b.b.b.b.b.b.b.V.V.b.b.v.x.z.z.b.b.b.b.B.N.b.b.b.b.b.b.b.b.b.b.b.b.b.b.v.b.b.v.N.b.b.b.",
"b.b.b.b.b.b.b.b.b.b.b.b.b.b.b.b.b.b.b.b.b.b.b.b.b.b.b.b.b.V.Z.V.B.B.B.B.V.V.Z.B.b.b.b.b.b.b.b.b.b.b.b.b.b.b.b.b.v.v.N.v.b.b.b.b.",
"b.b.b.b.b.b.b.b.b.b.b.b.b.b.b.b.b.b.b.b.b.b.b.b.b.b.b.b.b.b.b.B.B.Z.C.C.V.b.b.b.b.b.b.b.b.b.b.b.b.b.b.b.b.b.b.b.b.b.b.b.b.v.b.b.",
"b.b.b.b.b.b.b.b.b.b.b.b.b.b.b.b.b.b.b.b.b.b.b.b.b.b.b.b.b.b.b.b.N.v.b.b.b.b.b.b.b.b.b.b.b.b.b.b.b.b.v.b.b.b.b.b.v.b.v.b.b.b.b.b.",
"b.b.b.b.b.b.b.b.b.b.b.b.b.b.b.b.b.b.b.b.b.b.b.b.b.b.b.b.b.b.b.b.v.v.b.b.b.b.b.b.b.b.b.b.b.b.b.b.b.b.b.b.b.b.b.b.N.b.v.v.b.b.b.b.",
"b.b.b.b.b.b.b.b.b.b.b.b.b.b.b.b.b.b.b.b.b.b.b.b.b.b.b.b.b.b.b.b.b.b.b.b.b.b.b.v.b.b.b.b.b.b.b.b.b.b.b.v.b.b.b.b.v.v.v.v.v.b.b.b.",
"b.b.b.b.b.b.b.b.b.b.b.b.b.b.b.b.b.b.b.b.b.b.b.b.b.b.b.b.b.b.b.b.b.b.b.b.b.b.b.b.b.b.b.b.b.b.b.b.b.b.v.v.b.b.b.b.v.v.v.v.b.b.b.b.",
"b.b.b.b.b.b.b.b.b.b.b.b.b.b.b.b.b.b.b.b.b.b.b.b.b.b.b.b.b.b.b.b.b.b.b.b.b.b.b.b.b.b.b.b.b.b.b.v.b.b.b.b.b.b.b.b.b.b.b.b.b.b.b.b.",
"b.b.b.b.b.b.b.b.b.b.b.b.b.b.b.b.b.b.b.b.b.b.b.b.b.b.b.b.b.b.b.b.b.b.b.b.b.b.b.b.b.b.b.b.v.v.b.v.b.b.b.b.v.b.b.b.v.b.v.b.b.b.b.b.",
"b.b.b.b.b.b.b.b.b.b.b.b.b.b.b.b.b.b.b.b.b.b.b.b.b.b.b.b.b.b.b.b.b.b.b.b.b.b.b.b.b.b.b.b.b.b.v.v.b.b.b.b.b.b.v.v.b.b.b.b.b.b.b.b.",
"b.b.b.b.b.b.b.b.b.b.b.b.b.b.b.b.b.b.b.b.b.b.b.b.b.b.b.b.b.b.b.b.b.b.b.b.b.b.b.b.b.b.b.b.v.b.v.v.b.b.b.b.v.v.v.v.v.v.b.b.b.b.b.b."
};
