/* XPM */
static char *result[] = {
/* columns rows colors chars-per-pixel */
"64 64 153 2 ",
"   c #1A2E4D",
".  c #1A314F",
"X  c #1C3454",
"o  c #1E3759",
"O  c #1F3A5D",
"+  c #203C5E",
"@  c #213E61",
"#  c #254265",
"$  c #284566",
"%  c #25456A",
"&  c #284569",
"*  c #27496F",
"=  c #2B4A6E",
"-  c #264971",
";  c #2A4C73",
":  c #264E79",
">  c #294F79",
",  c #2F5174",
"<  c #2A527C",
"1  c #305276",
"2  c #32567C",
"3  c #35597A",
"4  c #395C7C",
"5  c #415B7B",
"6  c #2C5582",
"7  c #2E5886",
"8  c #2F5B89",
"9  c #335B84",
"0  c #315E8D",
"q  c #325F90",
"w  c #33618E",
"e  c #3C6289",
"r  c #346393",
"t  c #396693",
"y  c #3E6892",
"u  c #366699",
"i  c #37699E",
"p  c #3C6C9C",
"a  c #376CA2",
"s  c #3A6DA2",
"d  c #3D72A5",
"f  c #3B75AD",
"g  c #3B76B1",
"h  c #3E7AB5",
"j  c #3F7DBA",
"k  c #416582",
"l  c #466B89",
"z  c #496D8E",
"x  c #4B708D",
"c  c #446C94",
"v  c #477194",
"b  c #4C7496",
"n  c #4D749D",
"m  c #4E7A9A",
"M  c #5C7F95",
"N  c #547D9B",
"B  c #5B7F98",
"V  c #697E96",
"C  c #697E9A",
"Z  c #4375A3",
"A  c #4377AA",
"S  c #4278AD",
"D  c #527EA0",
"F  c #457DB5",
"G  c #447FB9",
"H  c #57819C",
"J  c #5A849E",
"K  c #60869F",
"L  c #4B85A8",
"P  c #4D8CAF",
"I  c #5483A4",
"U  c #5B87A1",
"Y  c #5281AF",
"T  c #518CAF",
"R  c #4C82B5",
"E  c #4B89B1",
"W  c #4480BA",
"Q  c #4E85B9",
"!  c #4C88BC",
"~  c #5084B7",
"^  c #528CB4",
"/  c #5087BB",
"(  c #5B8FBF",
")  c #4F90BB",
"_  c #5395BE",
"`  c #6C85A2",
"'  c #638FA5",
"]  c #6988A7",
"[  c #6085AA",
"{  c #638FA8",
"}  c #6391A9",
"|  c #628FBD",
" . c #6594B0",
".. c #6B9BB3",
"X. c #6895BF",
"o. c #6A9CB9",
"O. c #709DB3",
"+. c #73A4BC",
"@. c #7AA6BB",
"#. c #75AABF",
"$. c #6F9BC5",
"%. c #749EC5",
"&. c #789FC7",
"*. c #7CABC2",
"=. c #74A0C9",
"-. c #78A1CA",
";. c #7BABCB",
":. c #7DB1C6",
">. c #7EB3C9",
",. c #67B1DA",
"<. c #6BBADC",
"1. c #819DB9",
"2. c #9AACBE",
"3. c #87A8C1",
"4. c #98ADC0",
"5. c #92AFC9",
"6. c #80B4CA",
"7. c #83B9CE",
"8. c #9BB0C2",
"9. c #91B0C8",
"0. c #9EB5CA",
"q. c #9EB8CD",
"w. c #86BED3",
"e. c #8ABED1",
"r. c #9AB7D1",
"t. c #9CBAD2",
"y. c #A0BDD5",
"u. c #89C1D5",
"i. c #8EC6D9",
"p. c #8FC8D9",
"a. c #9CC1D4",
"s. c #93CCDD",
"d. c #9ACCDD",
"f. c #A6C2D5",
"g. c #ABC3D2",
"h. c #ABC7DA",
"j. c #A7CFDD",
"k. c #ABC8DA",
"l. c #95CFE0",
"z. c #97D2E4",
"x. c #9AD6E6",
"c. c #9DD8E7",
"v. c #9BD7E8",
"b. c #9BD8E9",
"n. c #A2D5E4",
"m. c #ABD6E5",
"M. c #A5D9E7",
"N. c #A4DCEA",
"B. c #A9DEED",
"V. c #ADE1EE",
"C. c #B1E2EF",
"Z. c #B2E3F0",
"A. c #B8E5F0",
/* pixels */
"b.b.b.b.b.b.b.b.b.b.b.b.b.b.b.b.b.b.b.b.b.b.b.b.b.b.b.b.b.b.b.b.b.b.b.b.b.N.b.b.b.b.b.b.b.b.b.b.b.b.b.b.b.b.b.b.b.b.b.b.b.b.v.b.",
"b.b.b.b.b.b.b.b.b.b.b.b.b.b.b.b.N.b.b.b.b.b.b.b.b.b.b.b.b.b.b.b.b.b.b.b.b.b.b.b.b.b.b.N.b.b.b.b.b.b.b.b.b.b.b.b.b.b.v.b.v.b.b.b.",
"b.b.b.b.b.b.b.b.b.b.b.b.b.b.b.b.b.b.b.b.b.b.b.b.b.b.b.b.b.b.b.b.b.b.b.b.b.b.b.b.b.b.b.b.b.b.b.b.b.N.b.b.b.b.b.b.b.b.b.b.v.v.N.v.",
"b.b.b.b.b.b.b.b.b.b.b.b.b.b.b.b.b.b.b.b.b.b.b.b.b.b.b.b.b.b.b.b.b.b.b.b.b.b.b.b.b.b.b.b.b.b.b.b.b.b.b.b.b.b.b.b.b.b.b.b.v.v.v.v.",
"b.b.b.b.b.b.b.b.b.b.b.b.b.b.b.b.N.b.b.b.b.b.b.b.b.b.b.b.b.b.b.b.b.b.b.b.b.N.b.b.b.b.b.b.b.b.b.b.b.b.b.b.b.b.b.b.v.b.b.b.v.b.b.b.",
"b.b.b.b.b.b.b.b.b.b.b.b.b.b.b.b.b.b.b.b.b.b.b.b.b.b.b.b.N.V.Z.Z.A.Z.Z.b.b.b.b.b.b.b.b.b.b.b.b.b.b.b.b.b.b.b.b.b.b.b.v.b.v.v.b.b.",
"b.b.b.b.b.b.b.b.b.b.b.b.b.b.b.b.b.b.b.b.b.b.b.b.b.b.N.Z.Z.V.B.N.V.N.V.Z.V.N.b.b.b.b.b.b.b.b.b.b.b.b.b.b.b.b.b.b.b.b.b.v.b.b.b.b.",
"b.b.b.b.b.b.b.b.b.b.b.b.b.b.b.b.b.b.b.b.b.b.b.b.b.N.B.b.b.b.b.l.l.b.b.b.b.B.B.N.N.b.b.b.b.b.b.b.b.b.b.b.b.b.b.b.b.v.b.b.b.b.b.b.",
"b.b.b.b.b.b.b.b.b.b.b.b.b.b.b.b.b.b.b.b.b.N.b.b.b.b.b.b.c.c.s.l y 7.x.b.b.b.b.V.b.b.b.b.b.b.b.b.b.b.b.b.b.b.b.b.b.v.b.b.v.b.b.b.",
"b.b.b.b.b.b.b.b.b.b.b.b.b.b.b.b.b.b.b.b.b.b.b.b.n.b.b.b.x.c.n.X.f 3 u.x.b.b.b.b.b.b.b.b.b.b.b.b.b.b.b.b.b.b.b.b.b.b.b.v.b.b.b.b.",
"b.b.b.b.b.b.b.b.b.b.b.b.b.b.b.b.n.b.b.b.b.b.b.b.b.b.b.b.b.b.m.$.f = u.b.b.b.b.b.b.b.b.b.b.b.b.v.b.b.b.v.b.b.b.v.b.b.v.b.b.b.b.b.",
"b.b.b.b.b.b.b.b.b.b.b.b.b.b.b.b.b.b.b.b.b.b.b.b.b.b.b.b.b.x.m.$.f , u.b.n.b.b.b.b.b.b.b.v.b.b.b.b.b.b.v.N.b.b.b.v.b.b.b.b.b.b.b.",
"b.b.b.b.b.b.b.b.b.b.b.b.b.b.b.b.b.b.b.b.M.b.b.b.b.b.b.v.x.x.m.$.f > u.b.b.b.b.b.b.b.b.b.b.b.b.b.b.b.b.b.b.b.b.b.b.b.b.b.b.b.b.b.",
"b.b.b.b.b.b.b.b.b.b.b.b.b.b.b.b.b.b.b.b.b.b.b.b.b.b.b.c.s.s.j.%.f > >.p.b.b.b.b.b.b.b.b.b.b.b.b.b.b.b.b.b.b.b.b.b.v.b.b.b.b.b.b.",
"b.b.b.b.b.b.b.b.b.b.b.b.b.b.b.b.b.b.b.b.b.b.b.b.b.v.x.u.I I 3.%.f = L H 7.z.x.b.b.b.b.b.b.b.b.b.b.b.b.b.v.b.b.b.b.b.b.b.b.v.b.b.",
"b.b.b.b.b.b.b.b.b.b.b.b.b.b.b.b.b.b.b.b.b.b.b.b.b.c.u.I u : ` %.f * % w I :.x.b.b.b.b.b.b.n.b.b.b.b.b.b.b.b.b.b.b.b.b.b.b.b.b.b.",
"b.b.b.b.b.b.b.b.b.b.b.b.b.b.b.b.b.b.b.b.b.V.b.b.b.x.#.0 0 # V %.f * @ 8 0 ..z.b.b.b.v.b.b.b.b.b.b.b.b.b.b.b.b.b.b.b.b.b.b.b.b.b.",
"b.b.b.b.b.b.b.b.b.b.b.b.b.b.b.b.b.b.b.b.b.b.b.b.b.x.#.0 X X V %.f * O o 8 o.b.b.b.b.b.b.b.b.b.v.b.b.b.v.b.b.b.b.b.b.b.b.b.b.b.b.",
"b.b.b.b.b.b.b.b.b.b.b.b.b.b.b.b.b.b.b.b.c.b.b.b.b.i.m d T P *.%.f , L P d v >.b.b.b.b.b.b.b.b.b.b.b.b.b.b.b.b.b.b.b.b.b.b.b.b.b.",
"b.b.b.b.b.b.b.b.b.b.b.b.b.b.b.b.b.b.b.b.b.b.b.b.b.6.; g ^ _ ;.%.g ; E _ f * o.b.b.b.b.b.b.v.b.b.b.b.v.b.b.b.b.b.b.b.b.b.b.b.b.b.",
"b.b.b.b.b.b.b.b.b.b.b.b.b.b.b.b.b.b.b.b.b.c.b.b.b.6.; i + + V %.g * @ O 7 - ..b.b.b.b.b.b.b.b.b.b.v.b.b.b.b.b.b.b.b.b.b.b.b.b.b.",
"b.b.b.b.b.b.b.b.b.b.b.V.b.b.c.b.V.b.b.b.b.b.b.b.b.>.% % . X V =.g * o X % @  .b.v.b.b.b.b.b.b.b.b.b.b.b.B.b.b.b.b.b.b.b.b.b.b.b.",
"b.b.b.b.b.b.b.b.b.b.N.V.c.b.b.b.b.b.b.b.c.b.b.c.v.>.$ # o 6 ] =.g * < O # O o.b.b.b.b.v.b.b.b.v.b.b.b.b.B.B.b.b.b.b.b.b.b.b.b.b.",
"b.b.b.b.b.b.b.b.b.b.V.b.b.b.b.b.b.b.b.b.b.b.b.b.v.:.$ @ + f =.%.g ; f * # O ..b.b.v.b.b.b.b.b.b.b.b.b.b.b.B.b.b.b.b.b.b.b.b.b.b.",
"b.b.b.b.b.b.b.b.b.b.b.b.x.b.b.b.b.b.b.b.b.b.c.b.b.>.$ % @ f -.-.g , f * % @ ..b.b.b.b.b.b.v.b.b.b.b.b.b.b.N.V.b.b.b.b.b.b.b.b.b.",
"b.b.b.b.b.b.b.b.b.b.b.b.b.b.b.b.b.b.b.b.c.c.b.c.b.>.$ ; < h | [ u ; f 8 - + ..b.b.b.b.v.b.b.v.b.b.b.b.b.b.b.C.b.b.b.b.b.b.b.b.b.",
"b.b.b.b.b.b.b.b.b.B.b.b.b.b.x.x.b.b.c.c.b.x.x.x.x.>.$ < h h p + # 6 h j 7 + ..b.b.b.v.b.b.b.b.b.b.b.b.b.b.b.V.b.b.b.b.b.b.b.b.b.",
"b.b.b.b.b.b.b.b.b.b.b.b.U k k e 4 5 e 5 k k k k k 4 % * > 7 < .   * u ! n 5 #.M.M.M.M.M.M.M.M.M.N.n.n.n.z.v.V.B.b.b.b.b.b.b.b.b.",
"b.b.b.b.b.b.b.b.V.V.z.L y a i i d p u p i p p i i p i s u # . 9 y o o 1.t.q.r.t.t.t.t.t.r.t.t.t.t.t.t.9.' z.B.V.b.b.b.b.b.b.b.b.",
"b.b.b.b.b.b.b.b.V.V.b.H i E F L F E W W F F S W F W F R S @   Z <.X X s h h h h h h h j h h h h h j F f e z.B.Z.b.b.b.b.b.b.b.b.",
"b.b.b.b.b.b.b.b.V.Z.b.<.p.k.k.k.j.k.k.k.h.h.h.h.h.f.0.q.5., @ + $ @ * 7 q q 0 0 q 0 8 0 q 0 r q q r w t T b.B.V.b.b.b.b.b.b.b.b.",
"b.b.b.b.b.b.b.b.b.Z.b.b.c.c.c.c.x.b.c.c.b.b.b.n.b.:.= 9 W g 6 X X : a r - @ k H H H H H H H H H H H H { b.b.V.b.b.b.b.b.b.b.b.b.",
"b.b.b.b.b.b.b.b.b.Z.b.b.b.b.b.b.b.b.b.b.b.b.b.v.b.6.% < f g < * ; y h h 6 O ..b.b.N.v.b.b.b.v.b.b.b.b.b.b.b.Z.N.b.b.b.b.b.b.b.b.",
"b.b.b.b.b.b.b.b.b.Z.b.b.b.b.b.b.b.n.v.v.N.b.b.b.b.7.= % % f ; f Q t.G > # # o.b.b.b.v.b.b.b.b.b.b.b.b.b.b.b.Z.b.v.b.b.b.b.b.b.b.",
"b.b.b.b.b.b.b.b.b.B.B.b.b.b.b.b.b.b.b.b.v.b.b.b.b.z...# - d ; g Q y.W < # ' l.b.b.b.v.b.b.v.v.b.b.b.b.b.b.N.V.b.b.b.b.b.b.b.b.b.",
"b.b.b.b.b.b.b.b.b.b.Z.b.b.b.N.b.b.b.b.v.b.b.b.b.b.b.6.= * r * f / q.s - = :.x.b.b.b.b.b.b.N.b.b.b.b.b.b.b.Z.b.b.b.v.b.b.b.b.b.b.",
"b.b.b.b.b.b.b.b.b.b.B.B.b.b.b.b.b.b.b.b.b.b.b.N.b.b.z.O.o X % h ! 2.. o ' z.x.b.b.b.v.v.b.b.b.b.b.b.b.b.B.B.b.b.b.b.b.b.b.b.b.b.",
"b.b.b.b.b.v.b.b.b.b.b.B.b.b.b.b.b.b.n.b.b.b.b.b.b.b.b.e.% $ % f / 2.& & :.x.b.b.b.b.b.N.b.v.b.b.b.b.b.b.B.b.b.b.b.b.b.b.b.b.b.b.",
"b.b.b.b.b.v.b.b.b.b.b.b.b.b.b.b.b.b.b.b.b.b.n.b.b.v.b.s.H * % f Q 2.* b i.b.x.b.b.b.b.b.b.b.b.b.b.b.b.N.b.b.b.b.b.b.b.b.b.b.b.b.",
"b.b.b.b.b.b.b.b.b.b.b.b.b.b.b.b.b.b.b.b.b.b.b.b.b.b.b.b.p.3 % f Q 8.4 u.b.b.b.b.b.b.b.N.v.b.b.b.b.b.b.b.b.b.b.b.b.b.b.b.b.b.b.b.",
"b.b.b.b.b.b.b.b.v.b.v.b.b.b.b.b.b.N.b.N.b.b.b.b.b.b.b.b.x.u., h Q g.s.b.b.b.b.n.b.b.b.b.b.b.b.b.b.b.b.b.b.b.b.b.b.b.b.b.b.b.b.b.",
"b.b.b.b.b.b.b.b.b.b.b.b.b.b.b.b.b.b.b.b.b.b.b.b.b.b.N.b.x.s., f Q g.l.b.b.b.b.b.b.b.b.b.b.N.b.b.b.b.b.b.b.b.b.b.b.b.b.b.b.b.b.b.",
"b.b.b.b.b.b.b.b.b.b.v.b.b.b.b.b.b.b.b.b.v.N.b.b.b.b.c.b.b.p., f / g.l.b.b.b.b.b.b.b.b.b.b.b.b.b.b.b.b.b.b.b.b.b.b.b.b.b.b.b.b.b.",
"b.b.b.b.b.b.b.b.b.v.v.b.b.b.b.b.b.b.b.b.v.v.b.b.b.c.b.c.b.s., f R g.s.b.b.n.b.b.b.b.b.b.b.b.b.b.b.b.b.b.b.b.b.b.b.b.b.b.b.b.b.b.",
"b.b.b.b.b.b.b.b.b.b.b.v.N.b.b.b.b.v.b.b.b.b.b.b.b.b.b.b.b.p., f R g.l.b.b.b.b.b.b.b.b.b.b.b.b.b.b.b.b.b.b.b.b.b.b.b.b.b.b.b.b.b.",
"b.b.b.b.b.b.b.b.b.b.b.b.v.b.b.b.b.b.N.b.v.b.b.b.b.x.b.c.b.p., f R g.s.b.M.b.b.b.b.b.b.b.b.b.b.b.b.b.b.b.b.b.b.b.b.b.b.b.b.b.b.b.",
"b.b.b.b.b.b.b.b.b.v.b.b.v.b.b.b.b.v.b.b.v.b.b.b.b.b.b.b.b.s., f Q g.s.b.x.b.b.b.b.b.b.b.b.b.b.b.b.b.b.b.b.b.b.b.b.b.b.b.b.b.b.b.",
"b.b.b.b.b.b.b.b.b.b.v.v.b.b.b.b.b.v.v.v.b.b.b.b.x.b.x.b.b.s.l A R 0.n.b.b.b.b.b.b.b.b.b.b.b.b.b.b.b.b.b.b.b.b.b.b.b.b.b.b.b.b.b.",
"b.b.b.b.b.b.b.b.b.b.b.b.b.b.b.b.b.b.b.z.b.b.b.x.b.b.b.b.V.V.p.= , J n.V.b.b.b.b.b.b.b.b.b.b.b.b.b.b.b.b.b.b.b.b.b.b.b.b.b.b.b.b.",
"b.b.b.b.b.b.z.b.b.b.b.b.b.b.b.z.b.b.b.b.b.b.b.b.b.b.b.b.M.x.s.l ( J l.z.<.<.b.b.b.b.b.b.b.b.b.b.b.b.b.b.b.b.b.b.b.b.b.b.b.b.b.b.",
"b.b.b.b.b.b.b.b.b.b.b.b.b.b.b.b.b.b.b.b.b.z.b.b.b.b.c.V.b.V.z.e L H s. .w 4 b.b.b.b.b.b.b.b.b.b.b.b.b.b.b.b.b.b.b.b.b.b.b.b.b.b.",
"b.b.b.b.b.b.b.b.b.b.b.b.b.b.b.b.b.b.b.x.b.b.b.b.b.x.V.c.M.V.s.3 d 3 y E H 7.b.b.b.b.b.b.b.b.b.b.b.b.b.b.b.b.b.b.b.b.b.b.b.b.b.b.",
"b.b.b.b.b.b.b.b.b.b.b.b.b.b.b.b.x.b.b.b.b.b.b.b.b.c.V.x.V.c.p.# , * p ^ <.b.b.b.b.b.b.b.b.b.b.b.b.b.b.b.b.b.b.b.b.b.b.b.b.b.b.b.",
"b.b.b.b.b.b.b.b.b.b.b.b.b.b.b.b.b.b.b.b.x.b.b.b.b.c.V.c.V.z.u.4 ! 2 +.l.b.b.b.b.b.b.b.b.b.b.b.b.b.b.b.b.b.b.b.b.b.b.b.b.b.b.b.b.",
"b.b.b.b.b.b.b.b.b.b.b.b.b.b.b.b.b.b.b.b.b.b.b.x.b.b.V.c.l.#.w t ,.J s.v.b.b.b.b.b.b.b.b.b.b.b.b.b.b.b.b.b.b.b.b.b.b.b.b.b.b.b.b.",
"z.b.b.b.b.b.b.b.b.z.b.b.b.b.b.z.b.b.b.b.b.b.b.x.x.c.V.u.H s d 4 x e.b.n.b.b.b.b.b.b.b.b.b.b.b.b.b.b.b.b.b.b.b.b.b.b.b.b.b.b.b.b.",
"b.z.b.b.b.b.b.b.b.b.b.b.b.b.b.b.b.b.b.b.b.b.b.b.x.c.n.c Q Y #.u.p.v.N.B.v.N.b.b.b.b.b.b.b.b.b.b.b.b.b.b.b.b.b.b.b.b.b.b.b.b.b.b.",
"b.b.b.b.z.b.b.b.b.b.b.b.b.b.b.b.b.b.b.b.b.b.b.b.b.c.z.m O.s.B.V.B.B.B.b.b.B.b.b.b.b.b.b.b.b.b.b.b.b.b.b.b.b.b.b.b.b.b.b.b.b.b.b.",
"b.b.b.b.b.b.b.b.b.b.b.b.b.b.b.b.b.b.b.b.b.b.x.x.x.b.b.M.M.b.x.x.b.n.b.N.V.b.v.b.b.b.b.b.b.b.b.b.b.b.b.b.b.b.b.b.b.b.b.b.b.b.b.b.",
"b.b.b.b.b.b.b.b.b.b.b.b.b.b.b.b.b.b.b.b.b.x.b.b.x.b.x.b.M.C.V.V.B.C.Z.V.b.v.b.b.b.b.b.b.b.b.b.b.b.b.b.b.b.b.b.b.b.b.b.b.b.b.b.b.",
"b.b.b.b.b.b.b.b.b.b.b.b.b.b.b.b.b.b.b.b.b.x.b.b.b.x.b.b.b.c.N.V.N.N.b.b.b.c.x.b.b.b.b.b.b.b.b.b.b.b.b.b.b.b.b.b.b.b.b.b.b.b.b.b.",
"b.b.b.b.b.b.b.b.b.b.b.b.b.b.b.b.b.b.b.x.b.b.b.b.b.b.b.x.c.c.x.b.b.b.b.x.b.b.b.b.b.b.b.b.b.b.b.b.b.b.b.b.b.b.b.b.b.b.b.b.b.b.b.b.",
"b.b.b.z.b.b.b.b.b.b.z.b.b.b.b.b.b.b.b.b.b.b.x.b.x.b.x.b.x.b.b.b.b.b.b.b.x.b.x.b.b.<.b.b.b.b.b.b.b.b.b.b.b.b.b.b.b.b.b.b.b.b.b.b.",
"b.b.b.b.b.b.b.b.b.b.b.b.b.b.b.z.x.b.x.b.x.b.b.b.b.b.x.b.b.c.x.x.b.b.x.b.b.b.x.b.b.b.b.b.b.b.b.b.b.b.b.b.b.b.b.b.b.b.b.b.b.b.b.b."
};
