/* XPM */
static char *_cdf9b1114eb4903e602871be459c225F4y9njooJ81kEoer[] = {
/* columns rows colors chars-per-pixel */
"64 64 176 2 ",
"   c #1A2E4D",
".  c #1A314F",
"X  c #1C3454",
"o  c #1E3759",
"O  c #1F3A5D",
"+  c #203C5E",
"@  c #213E61",
"#  c #254265",
"$  c #284566",
"%  c #25456A",
"&  c #284569",
"*  c #27496F",
"=  c #2B4A6E",
"-  c #264971",
";  c #2A4C73",
":  c #264E79",
">  c #294F79",
",  c #2F5174",
"<  c #2A527C",
"1  c #305276",
"2  c #32567C",
"3  c #35597A",
"4  c #395C7C",
"5  c #415B7B",
"6  c #2C5582",
"7  c #2E5886",
"8  c #2F5B89",
"9  c #335B84",
"0  c #315E8D",
"q  c #325F90",
"w  c #33618E",
"e  c #3C6289",
"r  c #346393",
"t  c #396693",
"y  c #3E6892",
"u  c #366699",
"i  c #37699E",
"p  c #3C6C9C",
"a  c #376CA2",
"s  c #3A6DA2",
"d  c #3D72A5",
"f  c #3B75AD",
"g  c #3B76B1",
"h  c #3E7AB5",
"j  c #3F7DBA",
"k  c #416582",
"l  c #466B89",
"z  c #496D8E",
"x  c #4B708D",
"c  c #446C94",
"v  c #477194",
"b  c #4C7496",
"n  c #4D749D",
"m  c #4E7A9A",
"M  c #5C7F95",
"N  c #547D9B",
"B  c #5B7F98",
"V  c #697E96",
"C  c #697E9A",
"Z  c #4375A3",
"A  c #4377AA",
"S  c #4278AD",
"D  c #527EA0",
"F  c #457DB5",
"G  c #447FB9",
"H  c #57819C",
"J  c #5A849E",
"K  c #60869F",
"L  c #4B85A8",
"P  c #4D8CAF",
"I  c #5483A4",
"U  c #5B87A1",
"Y  c #5281AF",
"T  c #518CAF",
"R  c #4C82B5",
"E  c #4B89B1",
"W  c #4480BA",
"Q  c #4E85B9",
"!  c #4C88BC",
"~  c #5084B7",
"^  c #528CB4",
"/  c #5087BB",
"(  c #5B8FBF",
")  c #4F90BB",
"_  c #5395BE",
"`  c #6C85A2",
"'  c #638FA5",
"]  c #6988A7",
"[  c #6085AA",
"{  c #638FA8",
"}  c #6391A9",
"|  c #628FBD",
" . c #6594B0",
".. c #6B9BB3",
"X. c #6895BF",
"o. c #6A9CB9",
"O. c #709DB3",
"+. c #73A4BC",
"@. c #7AA6BB",
"#. c #75AABF",
"$. c #6F9BC5",
"%. c #749EC5",
"&. c #789FC7",
"*. c #7CABC2",
"=. c #74A0C9",
"-. c #78A1CA",
";. c #7BABCB",
":. c #7DB1C6",
">. c #7EB3C9",
",. c #67B1DA",
"<. c #6BBADC",
"1. c #819DB9",
"2. c #9AACBE",
"3. c #87A8C1",
"4. c #98ADC0",
"5. c #92AFC9",
"6. c #80B4CA",
"7. c #83B9CE",
"8. c #9BB0C2",
"9. c #91B0C8",
"0. c #9EB5CA",
"q. c #9EB8CD",
"w. c #86BED3",
"e. c #8ABED1",
"r. c #9AB7D1",
"t. c #9CBAD2",
"y. c #A0BDD5",
"u. c #89C1D5",
"i. c #8EC6D9",
"p. c #8FC8D9",
"a. c #9CC1D4",
"s. c #93CCDD",
"d. c #9ACCDD",
"f. c #A6C2D5",
"g. c #ABC3D2",
"h. c #ABC7DA",
"j. c #A7CFDD",
"k. c #ABC8DA",
"l. c #95CFE0",
"z. c #97D2E4",
"x. c #9AD6E6",
"c. c #9DD8E7",
"v. c #9BD7E8",
"b. c #9BD8E9",
"n. c #A0D4E2",
"m. c #A5D6E5",
"M. c #A1D5E5",
"N. c #ABD6E5",
"B. c #A5D9E7",
"V. c #A0DBEA",
"C. c #A3DBEA",
"Z. c #A2DBEA",
"A. c #A0DAE9",
"S. c #A3DCEA",
"D. c #A5DDEB",
"F. c #A6DCEB",
"G. c #A7DEEB",
"H. c #A6DDEC",
"J. c #A7DFEC",
"K. c #A4DCEA",
"L. c #A8DEEB",
"P. c #A8DDEC",
"I. c #A9DEED",
"U. c #AADFEC",
"Y. c #ACDFED",
"T. c #AADFED",
"R. c #ABE0ED",
"E. c #ACE0EC",
"W. c #AFE1EE",
"Q. c #AEE1EE",
"!. c #ADE1EE",
"~. c #B0E2EF",
"^. c #B1E3EF",
"/. c #B4E4F0",
"(. c #B2E3F0",
"). c #B8E5F0",
/* pixels */
"b.b.b.b.b.b.b.b.b.b.b.b.b.b.b.b.b.b.b.b.b.b.b.b.b.b.b.b.b.b.b.b.b.b.b.b.b.b.v.v.b.b.b.b.b.b.v.v.v.v.b.b.b.b.b.b.b.b.b.b.b.b.b.b.",
"b.b.b.b.b.b.b.b.b.b.b.b.b.b.b.b.b.b.b.b.b.b.b.b.b.b.b.b.b.b.b.b.b.b.b.b.b.b.b.b.b.b.b.b.b.b.b.b.b.b.b.b.b.b.b.b.b.b.b.b.b.b.b.b.",
"b.b.b.b.b.b.b.b.b.b.b.b.b.b.b.b.b.b.b.b.b.b.b.b.b.b.b.b.b.b.b.b.b.b.b.b.b.b.b.b.b.b.b.b.b.b.b.b.b.b.b.b.b.b.b.b.b.b.b.b.b.b.b.b.",
"b.b.b.b.b.b.b.b.b.b.b.b.b.b.b.b.b.b.b.b.b.b.b.b.b.b.b.b.b.b.C.F.F.C.b.b.b.b.b.b.b.b.b.b.b.b.b.b.b.b.b.b.b.b.b.b.b.b.b.b.b.b.b.b.",
"b.b.b.b.b.b.b.b.b.b.b.b.b.b.b.b.b.b.b.b.b.b.b.b.b.b.b.b.I.~.W.Y.W.W.W.C.b.b.b.b.b.b.b.b.b.b.b.b.b.b.b.b.b.b.b.b.b.b.b.b.b.b.b.b.",
"b.b.b.b.b.b.b.b.b.b.b.b.b.b.b.b.b.b.b.b.b.b.b.b.b.b.b.W.S.b.b.C.b.c.c.B.x.x.b.b.b.b.b.b.b.b.b.b.b.b.b.b.b.b.b.b.b.b.b.b.b.b.b.b.",
"b.b.b.b.b.b.b.b.b.b.b.b.b.b.b.b.b.b.b.b.b.b.b.b.b.b.I.C.b.I.I.F.I.I.s.O.m x.v.b.b.b.b.b.b.b.b.b.b.b.b.b.b.b.b.b.b.b.b.b.b.b.b.b.",
"b.b.b.b.b.b.b.b.b.b.b.b.b.b.b.b.b.b.b.b.b.b.b.b.b.b.C.b.H.C.x.p.u.*.Y Q c m.v.b.b.b.b.b.b.b.b.b.b.b.b.b.b.b.b.b.b.b.b.b.b.b.b.b.",
"b.b.b.b.b.b.b.b.b.b.b.b.b.b.b.b.b.b.b.b.b.b.b.b.v.b.v.C.C.x.e.z 4 Z d N e.W.b.b.b.b.b.b.b.b.b.b.b.b.b.b.b.b.b.b.b.b.b.b.b.b.b.b.",
"b.b.b.b.b.b.b.b.b.b.b.b.b.b.b.b.b.b.b.b.b.b.b.b.b.x.v.F.c.l.J ,.t t +.d.c.W.b.b.b.b.b.b.b.b.b.b.b.b.b.b.b.b.b.b.b.b.b.b.b.b.b.b.",
"b.b.b.b.b.b.b.b.b.b.b.b.b.b.b.b.b.b.b.b.b.b.b.b.v.x.v.C.l.+.3 ! 4 w.z.R.b.R.b.b.b.b.b.b.b.b.b.b.b.b.b.b.b.b.b.b.b.b.b.b.b.b.b.b.",
"b.b.b.b.b.b.b.b.b.b.b.b.b.b.b.b.b.b.b.b.b.b.b.b.b.x.x.s.^ p - < # s.b.R.b.I.b.b.b.b.b.b.b.b.b.b.b.b.b.b.b.b.b.b.b.b.b.b.b.b.b.b.",
"b.b.b.b.b.b.b.b.b.b.b.b.b.b.b.b.b.b.b.b.b.b.b.b.b.v.6.v Q p 3 d 2 s.I.C.b.F.b.b.b.b.b.b.b.b.b.b.b.b.b.b.b.b.b.b.b.b.b.b.b.b.b.b.",
"b.b.b.b.b.b.b.b.b.b.b.b.b.b.b.b.b.b.b.b.b.b.b.b.b.z.k w  .d.B F e n.S.b.L.C.b.b.b.b.b.b.b.b.b.b.b.b.b.b.b.b.b.b.b.b.b.b.b.b.b.b.",
"b.b.b.b.b.b.b.b.b.b.b.b.b.b.b.b.b.b.b.b.b.b.b.b.b.v.6.6.z.l.K ( z s.v.F.F.b.b.b.b.b.b.b.b.b.b.b.b.b.b.b.b.b.b.b.b.b.b.b.b.b.b.b.",
"b.b.b.b.b.b.b.b.b.b.b.b.b.b.b.b.b.b.b.b.b.b.b.b.b.b.b.b.I.m.M ; = d.R.F.b.b.b.b.b.b.b.b.b.b.b.b.b.b.b.b.b.b.b.b.b.b.b.b.b.b.b.b.",
"b.b.b.b.b.b.b.b.b.b.b.b.b.b.b.b.b.b.b.b.b.b.b.b.b.b.b.b.b.n.q.R A l s.b.b.b.b.b.b.b.b.b.b.b.b.b.b.b.b.b.b.b.b.b.b.b.b.b.b.b.b.b.",
"b.b.b.b.b.b.b.b.b.b.b.b.b.b.b.b.b.b.b.b.b.b.b.b.b.b.b.b.b.s.g.Q d 1 s.b.b.b.b.b.b.b.b.b.b.b.b.b.b.b.b.b.b.b.b.b.b.b.b.b.b.b.b.b.",
"b.b.b.b.b.b.b.b.b.b.b.b.b.b.b.b.b.b.b.b.b.b.b.b.b.b.b.b.b.s.g.R f 1 s.b.b.b.b.b.b.b.b.b.b.b.b.b.b.b.b.b.b.b.b.b.b.b.b.b.b.b.b.b.",
"b.b.b.b.b.b.b.b.b.b.b.b.b.b.b.b.b.b.b.b.b.b.b.b.b.b.b.b.b.s.g.R f 1 s.b.b.b.b.b.b.b.b.b.b.b.b.b.b.b.b.b.b.b.b.b.b.b.b.b.b.b.b.b.",
"b.b.b.b.b.b.b.b.b.b.b.b.b.b.b.b.b.b.b.b.b.b.b.b.b.b.b.b.b.s.g.Q f , s.b.b.b.b.b.b.b.b.b.b.b.b.b.b.b.b.b.b.b.b.b.b.b.b.b.b.b.b.b.",
"b.b.b.b.b.b.b.b.b.b.b.b.b.b.b.b.b.b.b.b.b.b.b.b.b.b.b.b.b.s.g.Q f 1 s.b.b.b.b.b.b.b.b.b.b.b.b.b.b.b.b.b.b.b.b.b.b.b.b.b.b.b.b.b.",
"b.b.b.b.b.b.b.b.b.b.b.b.b.b.b.b.b.b.b.b.b.b.b.b.b.b.b.b.b.s.g.Q f 1 s.b.b.b.b.b.b.b.b.b.b.b.b.b.b.b.b.b.b.b.b.b.b.b.b.b.b.b.b.b.",
"b.b.b.b.b.b.b.b.b.b.b.b.b.b.b.b.b.b.b.b.b.b.b.b.b.b.b.b.b.s.g.Q f , u.x.b.b.b.b.b.b.b.b.b.b.b.b.b.b.b.b.b.b.b.b.b.b.b.b.b.b.b.b.",
"b.b.b.b.b.b.b.b.b.b.b.b.b.b.b.b.b.b.b.b.b.b.b.b.b.b.b.b.u.4 8.Q f % 3 s.b.b.b.b.b.b.b.b.b.b.b.b.b.b.b.b.b.b.b.b.b.b.b.b.b.b.b.b.",
"b.b.b.b.b.b.b.b.b.b.b.b.b.b.b.b.b.b.b.b.b.b.b.b.b.b.b.p.b * 4.Q f % * N s.b.b.b.b.b.b.b.b.b.b.b.b.b.b.b.b.b.b.b.b.b.b.b.b.b.b.b.",
"b.b.b.b.b.b.b.b.b.b.b.I.b.b.b.b.b.b.b.b.b.b.b.b.b.b.x.:.% & 2.Q f % # $ w.v.b.b.b.b.b.b.b.b.b.b.b.b.b.b.H.b.b.b.b.b.b.b.b.b.b.b.",
"b.b.b.b.b.b.b.b.b.b.I.F.b.b.b.b.b.b.b.b.b.b.b.b.b.b.l.} o . 2.Q f % o + o.z.b.b.b.b.b.b.b.b.b.b.b.b.b.b.F.F.b.b.b.b.b.b.b.b.b.b.",
"b.b.b.b.b.b.b.b.b.C.W.b.b.b.b.b.b.b.b.b.b.b.b.b.b.x.:.= - s q./ g - r * = 6.v.b.b.b.b.b.b.b.b.b.b.b.b.b.b.W.b.b.b.b.b.b.b.b.b.b.",
"b.b.b.b.b.b.b.b.b.W.F.b.b.b.b.b.b.b.b.b.b.b.b.b.b.l.' @ < W y./ g ; d ; # ..z.b.b.b.b.b.b.b.b.b.b.b.b.b.b.I.H.b.b.b.b.b.b.b.b.b.",
"b.b.b.b.b.b.b.b.b./.b.b.b.b.b.b.b.b.b.b.b.b.b.b.b.o.# % > G t.~ f > f % % = 7.b.b.b.b.b.b.b.b.b.b.b.b.b.b.C.W.b.b.b.b.b.b.b.b.b.",
"b.b.b.b.b.b.b.b.C.~.b.b.b.b.b.b.b.b.b.b.b.b.b.b.b...O 6 f j y ; * < h f < # 6.b.b.b.b.b.b.b.b.b.b.b.b.b.b.b.(.C.b.b.b.b.b.b.b.b.",
"b.b.b.b.b.b.b.b.R.W.b.x.{ J J J J H H H H H H H H k @ ; r a > X X 6 h W 9 = :.b.b.b.b.C.b.b.b.b.b.b.c.c.x.v.~.H.b.b.b.b.b.b.b.b.",
"b.b.b.b.b.b.b.b.(.W.x.J t w r q 0 0 0 0 0 0 0 0 0 0 0 0 7 % @ # O @ ; 5.q.0.f.h.k.k.h.k.k.h.k.k.h.k.h.a.6.v.W.I.b.b.b.b.b.b.b.b.",
"b.b.b.b.b.b.b.b.(.I.z.k f j h h h h h h h h h h h h h h s o o <.Z   @ S F F F F F F F F F F F F F F G p x v.W.W.b.b.b.b.b.b.b.b.",
"b.b.b.b.b.b.b.b.W.I.z.' 9.t.t.t.t.t.t.t.t.t.t.t.t.t.r.r.1.o o y 9 X # u s i i i i i i i i i i i i i i t J x.W.I.b.b.b.b.b.b.b.b.",
"b.b.b.b.b.b.b.b.I.W.x.z.M.B.B.B.B.B.B.B.B.B.B.B.B.@.5 n / u -   . < 8 < * % 4 k k k k k k k k k k k k U x.v.~.F.b.b.b.b.b.b.b.b.",
"b.b.b.b.b.b.b.b.S.W.b.b.b.b.b.b.b.b.b.b.b.b.b.b.b...@ 7 j h 6 @ + a j h < # :.x.x.x.x.x.x.x.x.x.x.x.x.x.b.b.^.b.b.b.b.b.b.b.b.b.",
"b.b.b.b.b.b.b.b.b.W.b.b.b.b.b.b.b.b.b.b.b.b.b.b.b...@ - 8 f > u [ | h < > & :.b.b.b.b.b.b.b.b.b.b.b.b.b.b.b.W.b.b.b.b.b.b.b.b.b.",
"b.b.b.b.b.b.b.b.b.I.S.b.b.b.b.b.b.b.b.b.b.b.b.b.b...@ % ; d > g &.-.f + % $ :.b.b.b.b.b.b.b.b.b.b.b.b.b.b.F.H.b.b.b.b.b.b.b.b.b.",
"b.b.b.b.b.b.b.b.b.b.R.b.b.b.b.b.b.b.b.b.b.b.b.b.b...+ # * d > g %.=.f O # $ :.b.b.b.b.b.b.b.b.b.b.b.b.b.b.R.b.b.b.b.b.b.b.b.b.b.",
"b.b.b.b.b.b.b.b.b.b.H.S.b.b.b.b.b.b.b.b.b.b.b.b.b...+ # @ < ; g %.] 6 o # # >.b.b.b.b.b.b.b.b.b.b.b.b.b.F.F.b.b.b.b.b.b.b.b.b.b.",
"b.b.b.b.b.b.b.b.b.b.b.H.b.b.b.b.b.b.b.b.b.b.b.b.b...@ % X o ; f %.V o X % # >.b.b.b.b.b.b.b.b.b.b.b.b.b.F.b.b.b.b.b.b.b.b.b.b.b.",
"b.b.b.b.b.b.b.b.b.b.b.b.b.b.b.b.b.b.b.b.b.b.b.b.b...- 7 + @ ; f %.C O O i > :.b.b.b.b.b.b.b.b.b.b.b.b.b.b.b.b.b.b.b.b.b.b.b.b.b.",
"b.b.b.b.b.b.b.b.b.b.b.b.b.b.b.b.b.b.b.b.b.b.b.b.b...- f _ E ; g %.;.) ^ h ; 6.b.b.b.b.b.b.b.b.b.b.b.b.b.b.b.b.b.b.b.b.b.b.b.b.b.",
"b.b.b.b.b.b.b.b.b.b.b.b.b.b.b.b.b.b.b.b.b.b.b.b.b.>.v d ^ L ; g %.*.P T d m p.b.b.b.b.b.b.b.b.b.b.b.b.b.b.b.b.b.b.b.b.b.b.b.b.b.",
"b.b.b.b.b.b.b.b.b.b.b.b.b.b.b.b.b.b.b.b.b.b.b.b.b.x.o.8 o O * g %.V o o 0 #.x.b.b.b.b.b.b.b.b.b.b.b.b.b.b.b.b.b.b.b.b.b.b.b.b.b.",
"b.b.b.b.b.b.b.b.b.b.b.b.b.b.b.b.b.b.b.b.b.b.b.b.b.x...0 0 @ * f %.V # 0 0 *.x.b.b.b.b.b.b.b.b.b.b.b.b.b.b.b.b.b.b.b.b.b.b.b.b.b.",
"b.b.b.b.b.b.b.b.b.b.b.b.b.b.b.b.b.b.b.b.b.b.b.b.b.x.>.D 0 * * f %.` : u I u.x.b.b.b.b.b.b.b.b.b.b.b.b.b.b.b.b.b.b.b.b.b.b.b.b.b.",
"b.b.b.b.b.b.b.b.b.b.b.b.b.b.b.b.b.b.b.b.b.b.b.b.b.b.x.7.I m ; f %.3.I I u.x.b.b.b.b.b.b.b.b.b.b.b.b.b.b.b.b.b.b.b.b.b.b.b.b.b.b.",
"b.b.b.b.b.b.b.b.b.b.b.b.b.b.b.b.b.b.b.b.b.b.b.b.b.b.b.x.s.>.; f %.j.p.s.x.b.b.b.b.b.b.b.b.b.b.b.b.b.b.b.b.b.b.b.b.b.b.b.b.b.b.b.",
"b.b.b.b.b.b.b.b.b.b.b.b.b.b.b.b.b.b.b.b.b.b.b.b.b.b.b.b.b.u.; g %.N.b.b.b.b.b.b.b.b.b.b.b.b.b.b.b.b.b.b.b.b.b.b.b.b.b.b.b.b.b.b.",
"b.b.b.b.b.b.b.b.b.b.b.b.b.b.b.b.b.b.b.b.b.b.b.b.b.b.b.b.b.u.; f $.N.b.b.b.b.b.b.b.b.b.b.b.b.b.b.b.b.b.b.b.b.b.b.b.b.b.b.b.b.b.b.",
"b.b.b.b.b.b.b.b.b.b.b.b.b.b.b.b.b.b.b.b.b.b.b.b.b.b.b.b.b.u.; f $.N.b.b.b.b.b.b.b.b.b.b.b.b.b.b.b.b.b.b.b.b.b.b.b.b.b.b.b.b.b.b.",
"b.b.b.b.b.b.b.b.b.b.b.b.b.b.b.b.b.b.b.b.b.b.b.b.b.b.b.b.b.u.1 f X.N.b.b.b.b.b.b.b.b.b.b.b.b.b.b.b.b.b.b.b.b.b.b.b.b.b.b.b.b.b.b.",
"b.b.b.b.b.b.b.b.b.b.b.b.b.b.b.b.b.b.b.b.b.b.b.b.C.b.b.b.b.x.7.l l p.b.b.b.b.b.b.b.b.b.b.b.b.b.b.b.b.b.b.b.b.b.b.b.b.b.b.b.b.b.b.",
"b.b.b.b.b.b.b.b.b.b.b.b.b.b.b.b.b.b.b.b.b.b.b.b.b.H.F.b.b.b.x.s.s.x.b.b.b.H.C.b.b.b.b.b.b.b.b.b.b.b.b.b.b.b.b.b.b.b.b.b.b.b.b.b.",
"b.b.b.b.b.b.b.b.b.b.b.b.b.b.b.b.b.b.b.b.b.b.b.b.b.b.F.W.~.I.H.F.H.I.R.W.W.C.b.b.b.b.b.b.b.b.b.b.b.b.b.b.b.b.b.b.b.b.b.b.b.b.b.b.",
"b.b.b.b.b.b.b.b.b.b.b.b.b.b.b.b.b.b.b.b.b.b.b.b.b.b.b.b.F.W.^.).)./.W.F.b.b.b.b.b.b.b.b.b.b.b.b.b.b.b.b.b.b.b.b.b.b.b.b.b.b.b.b.",
"b.b.b.b.b.b.b.b.b.b.b.b.b.b.b.b.b.b.b.b.b.b.b.b.b.b.b.b.b.b.b.b.b.b.b.b.b.b.b.b.b.b.b.b.b.b.b.b.b.b.b.b.b.b.b.b.b.b.b.b.b.b.b.b.",
"b.b.b.b.b.b.b.b.b.b.b.b.b.b.b.b.b.b.b.b.b.b.b.b.b.b.b.b.b.b.b.b.b.b.b.b.b.b.b.b.b.b.b.b.b.b.b.b.b.b.b.b.b.b.b.b.b.b.b.b.b.b.b.b.",
"b.b.b.b.b.b.b.b.b.b.b.b.b.b.b.b.b.b.b.b.b.b.b.b.b.b.b.b.b.b.b.b.b.b.b.b.b.b.b.b.b.b.b.b.b.b.b.b.b.b.b.b.b.b.b.b.b.b.b.b.b.b.b.b.",
"b.b.b.b.b.b.b.b.b.b.b.b.b.b.b.b.b.b.b.b.b.b.b.b.b.b.b.b.b.b.b.b.b.b.b.b.b.b.b.b.b.b.b.b.b.b.b.b.b.b.b.b.b.b.b.b.b.b.b.b.b.b.b.b.",
"b.b.b.b.b.b.b.b.b.b.b.b.b.b.b.b.b.b.b.b.b.b.b.b.b.b.b.b.b.b.b.b.b.b.b.b.b.b.b.b.b.b.b.b.b.b.b.b.b.b.b.b.b.b.b.b.b.b.b.b.b.b.b.b."
};
