/* XPM */
static char *result[] = {
/* columns rows colors chars-per-pixel */
"64 64 165 2 ",
"   c #182E4D",
".  c #1B3353",
"X  c #1D3759",
"o  c #1E395B",
"O  c #203B5E",
"+  c #1F3C61",
"@  c #213D61",
"#  c #29415F",
"$  c #254366",
"%  c #2C4766",
"&  c #25456B",
"*  c #26486D",
"=  c #2B496C",
"-  c #344C6C",
";  c #254972",
":  c #294D75",
">  c #2B4F79",
",  c #2C527C",
"<  c #345575",
"1  c #3A5777",
"2  c #33577B",
"3  c #395779",
"4  c #36597B",
"5  c #3A5D7E",
"6  c #2C5682",
"7  c #2E5986",
"8  c #2E5B8A",
"9  c #325A85",
"0  c #3A5D81",
"q  c #325D8B",
"w  c #325F90",
"e  c #3E6587",
"r  c #34608D",
"t  c #3A648F",
"y  c #346293",
"u  c #396795",
"i  c #3D6F95",
"p  c #34659A",
"a  c #386698",
"s  c #36699D",
"d  c #366BA2",
"f  c #396EA3",
"g  c #3D72A4",
"h  c #3771AA",
"j  c #3A73AB",
"k  c #3F78AF",
"l  c #3B76B1",
"z  c #3D7AB5",
"x  c #3F7DB9",
"c  c #426485",
"v  c #426688",
"b  c #456B8B",
"n  c #51728E",
"m  c #446C90",
"M  c #4C7393",
"N  c #4F7895",
"B  c #4B7299",
"V  c #4E7A9E",
"C  c #527591",
"Z  c #547895",
"A  c #597B96",
"S  c #547C9A",
"D  c #587D9A",
"F  c #4273A5",
"G  c #4977A2",
"H  c #437AAD",
"J  c #497CAC",
"K  c #507AA5",
"L  c #407AB4",
"P  c #407EBA",
"I  c #58829E",
"U  c #64869F",
"Y  c #5783A2",
"T  c #5A85A1",
"R  c #5686A9",
"E  c #4F84B2",
"W  c #4C8FB7",
"Q  c #4281BE",
"!  c #4B85BD",
"~  c #4F8EB8",
"^  c #5284B5",
"/  c #5885B0",
"(  c #528DB3",
")  c #5389BD",
"_  c #5390B2",
"`  c #5191BB",
"'  c #638DA6",
"]  c #6186AA",
"[  c #628FAB",
"{  c #6693AC",
"}  c #6B96AF",
"|  c #678EB2",
" . c #6B9CB4",
".. c #6696BA",
"X. c #6F9FB9",
"o. c #739DB3",
"O. c #6FA1B9",
"+. c #74A3BB",
"@. c #4A87C0",
"#. c #528AC0",
"$. c #5C8FC0",
"%. c #5D90C1",
"&. c #6595C3",
"*. c #6997C3",
"=. c #6A99C6",
"-. c #719DC7",
";. c #7B9EC1",
":. c #76AAC1",
">. c #7BACC3",
",. c #7DB0C4",
"<. c #7FB4C9",
"1. c #67B1D7",
"2. c #8FA3B5",
"3. c #8FA6BB",
"4. c #91A9BE",
"5. c #98ACBE",
"6. c #8BADCC",
"7. c #94ACC5",
"8. c #84B0C3",
"9. c #89B4C7",
"0. c #81B5C9",
"q. c #8AB6C9",
"w. c #84BACE",
"e. c #88B9CC",
"r. c #9CB4C7",
"t. c #9CB5CB",
"y. c #9FBACA",
"u. c #86BDD3",
"i. c #89BDD2",
"p. c #95B4D2",
"a. c #91BDD0",
"s. c #9CBAD4",
"d. c #A0BDD5",
"f. c #8BC2D5",
"g. c #8EC6D9",
"h. c #92C5D6",
"j. c #91C6D9",
"k. c #93CBDC",
"l. c #9BCADC",
"z. c #A3C2D7",
"x. c #A5C4DA",
"c. c #AAC6DA",
"v. c #A6CADD",
"b. c #ACCCDD",
"n. c #B2CEDE",
"m. c #B2D1DF",
"M. c #95CFE1",
"N. c #99CDE1",
"B. c #96D1E2",
"V. c #9BD5E5",
"C. c #9CD8E7",
"Z. c #9CD7E8",
"A. c #9DD9E9",
"S. c #A2D5E4",
"D. c #ACD7E6",
"F. c #A4D9E7",
"G. c #ABD9E6",
"H. c #A3DBEA",
"J. c #AADEEC",
"K. c #B6D3E1",
"L. c #ADE0ED",
"P. c #B3E3EE",
"I. c #B6E4F0",
"U. c #BAE6F0",
"Y. c #BCE8F1",
/* pixels */
"A.Z.A.A.A.A.A.A.A.A.A.A.Z.A.Z.A.A.A.A.A.A.A.A.A.A.A.A.A.A.A.A.A.A.A.A.C.A.C.C.Z.A.Z.A.A.Z.A.Z.A.Z.A.A.A.A.A.A.A.A.A.A.A.A.B.A.A.",
"A.A.A.A.A.A.A.A.Z.A.A.A.A.A.A.A.A.A.A.A.A.A.A.A.A.A.A.H.A.A.A.A.A.A.A.A.A.A.A.A.A.A.A.A.Z.Z.A.A.A.A.A.A.A.A.A.A.A.A.A.A.A.A.A.A.",
"A.A.A.A.A.A.A.A.A.A.A.A.A.A.A.A.A.A.A.A.A.A.A.A.A.A.A.A.A.A.A.A.A.A.A.A.A.C.A.A.Z.A.A.Z.A.A.Z.A.A.A.A.A.A.A.A.A.A.A.A.A.A.A.A.A.",
"Z.A.A.A.A.A.A.A.A.A.F.A.F.Z.A.A.A.A.A.A.A.A.A.A.A.H.A.A.A.A.A.A.A.A.A.A.A.A.A.A.A.A.Z.A.A.A.A.A.A.B.A.A.B.A.A.A.B.A.A.A.A.A.A.B.",
"F.A.A.A.A.A.A.A.A.A.A.A.A.A.A.A.A.A.A.A.A.A.A.A.A.A.A.A.A.H.J.L.L.H.C.Z.A.Z.Z.A.A.A.A.A.A.A.A.A.A.A.A.B.A.A.A.A.A.A.A.A.A.A.A.A.",
"A.A.A.A.A.A.A.A.A.A.A.A.A.A.A.A.A.A.A.A.A.A.A.A.A.A.A.A.J.L.H.J.H.L.L.L.V.A.A.Z.A.A.A.A.A.A.A.A.A.A.A.A.A.A.A.A.A.A.A.A.A.A.A.A.",
"A.A.A.A.A.A.A.A.A.A.A.A.A.A.A.A.A.A.A.A.A.A.A.A.A.A.A.e.Z j.H.H.A.A.V.4...B.A.A.A.Z.Z.Z.A.A.C.A.A.A.A.A.A.A.A.A.A.A.A.A.A.A.A.A.",
"A.A.A.A.A.A.A.A.A.A.A.A.A.A.A.A.A.A.A.A.A.A.A.A.A.A.J.| g ' l.J.H.J.9.J v B.A.A.Z.A.A.A.A.A.A.A.A.A.A.A.A.A.A.A.A.A.A.A.A.A.A.A.",
"A.A.A.A.A.A.A.A.A.A.A.A.A.A.A.A.A.A.A.A.A.A.A.A.A.H.L.g.o.g ^ j.h.( ^ m :.J.F.A.A.A.A.A.A.A.A.A.A.A.A.A.B.A.A.A.A.A.A.A.A.A.A.A.",
"A.A.A.A.H.A.A.A.A.A.A.A.A.A.A.A.A.A.A.A.A.A.A.A.A.H.J.F.N.g s 5 < s g i.C.J.F.A.A.A.A.Z.Z.A.A.A.A.A.A.A.A.A.A.A.A.A.A.A.A.A.A.A.",
"A.A.A.A.A.A.A.A.A.A.A.A.A.A.A.A.A.A.A.A.A.A.A.A.A.H.J.H.H.u.T W i I u.J.A.J.H.A.A.A.Z.A.A.A.A.A.A.A.A.A.A.A.A.A.A.A.A.A.A.A.A.A.",
"A.A.A.A.A.A.A.A.A.A.A.A.A.H.A.A.A.A.A.A.A.A.A.A.A.J.J.F.F.J q y 6 < e.J.H.J.H.A.A.A.A.A.A.A.Z.A.A.A.A.A.A.A.A.A.A.A.A.A.A.A.A.A.",
"A.A.A.A.A.A.A.A.A.A.A.A.A.A.A.A.A.A.A.A.A.A.A.A.A.A.L.M.S j 8 ; $ q M l.C.J.H.A.A.A.A.A.A.A.A.A.A.A.A.B.A.A.A.A.A.A.A.A.B.A.A.A.",
"A.A.A.A.A.A.A.A.A.A.A.A.A.A.A.A.A.A.A.A.A.A.A.A.A.A.G.C F S [ a q 0 / M h.J.A.A.A.A.A.Z.A.A.A.A.A.A.A.A.A.A.A.A.A.A.A.A.A.A.A.A.",
"A.A.A.A.A.A.A.A.A.A.A.A.A.A.A.A.A.A.A.A.A.A.A.J.H.H.V.G M f.+.K B +.S a h.F.F.H.L.A.A.Z.A.A.A.A.A.A.A.A.A.A.A.A.A.A.A.A.A.A.A.A.",
"A.A.A.A.A.A.A.A.A.A.A.A.A.A.A.A.A.A.A.A.H.L.J.H.H.A.Z.M.S.L.+.y r 8.S.N.V.Z.A.H.A.L.L.L.A.A.A.C.A.A.A.A.A.A.A.A.A.A.A.A.A.A.A.A.",
"A.A.A.A.A.A.A.A.A.A.A.A.A.A.A.A.A.A.J.I.J.A.A.A.A.A.A.A.A.J.9.| ' f.L.A.A.A.A.A.A.A.H.L.P.L.C.C.A.A.A.A.A.A.A.A.A.A.A.A.A.A.A.A.",
"A.A.A.A.A.A.A.A.A.A.A.A.A.A.A.A.A.I.U.H.A.A.A.A.A.A.A.A.C.C.O.p q +.C.A.A.A.A.A.A.A.A.C.H.Y.P.H.A.A.A.A.A.A.A.A.A.A.A.A.A.A.A.A.",
"A.A.A.A.A.A.A.A.A.A.A.A.A.H.A.H.I.I.A.A.A.A.A.F.A.A.A.A.C.A.O.y q +.A.A.C.A.C.A.C.A.C.C.C.C.I.I.A.A.A.A.A.A.A.A.A.A.A.A.A.A.A.A.",
"A.A.A.A.A.A.A.A.A.A.A.A.A.A.A.I.I.A.N.K j.A.A.A.A.A.A.A.A.C.O.r r >.C.H.A.A.A.A.A.A.C.C.' f.C.P.A.A.A.A.A.A.A.A.A.A.A.A.A.A.A.A.",
"A.A.A.A.A.A.A.A.A.A.A.A.A.A.L.U.Z.V.Z w 6.D.H.A.A.A.A.A.A.A.X.y q :.A.A.A.A.A.A.A.C.L.v.N e f.C.H.H.A.A.A.A.A.A.A.A.A.A.A.A.A.A.",
"A.A.A.A.A.A.A.A.A.A.A.A.A.H.U.A.Z.V.m j ! s.D.A.A.A.A.A.A.A.X.y q +.A.A.A.A.A.A.A.H.v...z e f.A.A.I.A.A.A.A.A.A.A.A.A.A.A.A.A.A.",
"A.A.A.A.A.A.A.A.A.A.A.A.A.I.L.A.A.V.S q l ) c.G.A.A.A.A.A.A.X.y q :.A.A.A.A.A.A.F.S.=.z i i g.A.A.L.L.A.A.A.A.A.A.A.A.A.A.A.A.A.",
"A.A.A.A.A.A.A.A.A.A.A.Z.Z.I.A.A.A.Z.M.N 8 z #.v.F.A.A.A.A.B.X.y q +.C.A.A.A.A.H.b.%.x p e u.A.A.A.A.P.A.A.A.A.A.A.A.A.A.A.A.A.A.",
"A.A.A.A.A.A.A.A.A.A.A.A.L.J.A.A.A.A.F.g.S w z $.b.F.A.A.i.4 2 f f 2 5 k.C.A.A.m.` x s i f.C.A.A.A.A.L.A.A.A.A.A.A.A.A.A.A.A.A.A.",
"A.A.A.A.A.A.A.A.A.A.A.A.L.A.A.A.A.A.A.A.k.V w z $.b.F.k.C $ > j h > * I M.A.m.=.W f e f.C.C.A.C.A.A.A.L.A.A.A.A.A.A.A.A.A.A.A.A.",
"A.A.A.A.A.A.A.A.A.A.A.A.L.A.A.A.A.A.A.A.A.k.N p l $.n.e.$ & : h h : & * g.K.=.z g 5 f.C.C.C.A.A.A.A.A.A.A.A.C.A.A.A.A.A.A.A.A.A.",
"A.A.A.A.A.A.A.A.A.A.A.H.L.A.A.A.A.A.H.A.Z.Z.M.i p x %.t.#   X 6 6 X   # y.=.P g < w.C.C.C.C.A.A.A.A.A.A.A.A.A.A.A.A.A.A.A.A.A.A.",
"A.A.A.A.A.A.A.A.A.A.A.H.A.A.A.A.A.A.A.A.A.A.A.M.v s l &.7.H j L l j f 3.=.x j 4 w.C.A.A.A.A.A.A.A.A.A.A.A.A.A.A.A.A.A.C.A.A.A.A.",
"A.A.A.A.A.A.A.A.A.A.A.A.A.A.A.A.A.H.A.A.A.H.A.A.g.2 d x &.p.@.P x @.p.=.x j 2 <.A.A.A.A.A.A.A.A.A.A.A.A.A.C.A.A.A.A.A.A.A.A.A.A.",
"A.A.A.A.A.A.H.A.A.A.A.A.A.A.A.A.A.A.A.A.A.A.A.A.Z.{ $ d x =.6.P Q 6.:.x j > +.A.A.A.A.A.A.A.A.A.A.A.A.A.A.A.A.A.A.A.A.A.A.A.A.A.",
"A.A.A.A.A.A.A.A.A.A.A.A.A.A.A.A.A.A.A.A.A.A.A.A.A. .o : l j 1 y f 0 l l , $ <.A.A.A.A.A.A.A.A.A.A.A.A.A.A.A.A.A.C.A.A.C.C.A.A.A.",
"A.A.A.A.A.A.A.A.A.A.A.A.A.A.A.A.A.A.A.H.A.A.A.A.A. .@ 6 f : X . X O , 6 ; $ 0.F.A.A.A.A.A.A.A.F.A.A.A.A.A.A.A.A.C.H.A.A.A.A.A.A.",
"A.A.A.A.A.A.A.A.A.A.A.A.A.A.A.A.A.A.A.A.A.A.A.A.Z.} + 8 x 9   $ 4   : g , $ 0.A.A.F.A.A.A.A.A.A.A.A.A.A.A.A.A.A.A.A.A.A.A.A.A.A.",
"A.A.A.A.A.A.A.A.A.A.A.A.A.A.A.A.A.A.A.A.A.A.A.H.A. .@ 7 @.h X J 1.o k P 6 $ 0.A.A.A.F.A.A.A.A.A.A.A.A.A.C.A.A.A.A.C.C.C.A.A.A.A.",
"A.A.A.A.A.A.A.A.A.A.A.A.A.A.A.A.A.A.A.A.A.A.A.A.Z. .+ 7 l 7   6 q . s l , $ 0.A.A.A.A.A.A.A.A.A.A.A.A.A.A.A.A.A.A.C.C.A.A.A.A.A.",
"A.A.A.A.A.A.A.A.A.A.A.A.A.A.A.A.A.A.A.A.A.A.A.A.A. .+ : : $ . X   . & , : $ 0.A.A.A.A.A.A.A.A.A.A.A.C.A.A.A.A.A.A.A.Z.Z.A.A.Z.A.",
"A.A.A.A.A.A.A.A.A.A.A.A.A.A.A.A.A.A.A.A.A.A.A.A.A. .O ; h d = p 9 = d d * $ 0.A.A.A.A.A.A.A.A.A.A.A.A.A.A.A.C.A.A.A.A.A.C.A.A.A.",
"A.A.A.A.A.A.A.A.A.A.A.A.A.A.A.A.A.A.A.A.A.A.A.A.A.{ $ f z -.;.x z 7.*.z s $ :.A.A.A.A.A.A.A.A.A.A.A.A.A.A.C.H.A.A.A.Z.Z.A.A.Z.A.",
"A.A.A.A.A.A.A.A.A.A.A.A.A.A.A.A.A.A.A.A.A.A.A.A.f.4 d x =.p.@.x x #.s.&.x p 4 k.A.F.A.A.A.A.A.A.A.A.A.A.A.A.A.A.A.Z.A.A.A.A.A.A.",
"A.A.H.A.A.A.A.A.A.A.A.A.A.A.A.A.A.A.A.A.A.A.A.g.e d l *.7.! x x x x #.t.$.l 9 Y M.A.A.A.A.A.A.A.A.A.A.A.A.A.C.C.A.A.A.A.A.A.A.A.",
"A.A.A.A.A.A.A.A.A.A.A.A.H.H.A.A.A.H.A.A.A.A.f.u f L *.2.% 7 8 8 8 8 8 - 4.#.L 9 T C.A.A.A.A.F.A.A.A.A.A.A.A.A.C.A.A.A.A.A.A.A.A.",
"A.A.A.A.A.A.A.A.A.A.A.A.J.A.A.A.A.A.A.A.A.V.N p L *.5.= . X + y w + .   3 r.) l 9 ' V.A.A.A.A.A.A.A.A.A.A.A.A.C.A.A.A.A.A.A.Z.Z.",
"A.A.A.A.A.A.A.A.A.A.A.A.L.H.A.A.A.A.A.A.B.N y z ) r.0 8 o X + s p + o + p c y.) z q T V.A.A.A.A.A.A.A.A.A.A.A.A.A.A.A.A.A.A.A.A.",
"A.A.A.A.A.A.A.A.A.A.A.A.J.H.A.A.A.A.A.l.Y y l $.n.o.: H ` ` W j l ( ` ( k ; q.c.) l r ' V.A.A.A.A.A.L.L.A.A.A.A.A.A.A.A.A.A.A.Z.",
"A.A.A.A.A.A.A.A.A.A.A.A.H.I.A.A.A.A.M.Y w z #.v.F.w.V g _ _ ( 8 y _ _ ( g S g.F.z.! l q ' V.A.A.A.A.L.A.A.A.A.A.A.A.A.A.A.Z.A.A.",
"A.A.A.A.A.A.A.A.A.A.A.A.A.I.H.A.A.B.T q l ) c.G.A.C.O.6 o X o o o X X o y ,.A.A.D.d.) z 9 { B.Z.A.H.L.A.A.A.A.A.A.A.A.A.A.A.A.A.",
"A.A.A.H.A.A.A.A.A.A.A.A.A.H.I.F.A.f.u l ) c.H.A.A.C.O.8 q o o o o o @ q r >.C.A.A.D.p.! z m k.A.A.P.L.A.A.A.A.A.A.A.A.A.A.A.Z.A.",
"A.A.A.A.A.A.A.A.A.A.A.A.A.A.I.L.A.f., ^ z.F.A.A.A.A.w.V r ; * * * * ; t I f.C.A.A.H.G.h.W e B.A.L.P.A.A.A.A.A.A.C.A.A.A.A.C.C.C.",
"A.A.A.A.A.A.A.A.A.A.A.A.A.A.A.Y.J.Z. .A S.A.A.A.A.A.C.e.I R R R R R R T f.C.A.A.A.C.F.k.5 1.A.L.Y.A.A.A.A.A.A.A.A.A.A.A.A.C.A.A.",
"A.A.A.A.A.A.A.A.A.A.A.A.A.A.A.H.Y.L.A.B.A.A.A.A.A.A.A.C.k.k.l.k.k.k.k.k.A.A.H.A.A.A.A.A.k.A.L.I.H.A.A.A.A.C.A.A.A.A.A.A.A.A.A.C.",
"A.A.A.A.A.H.A.A.A.A.A.H.A.A.A.A.H.Y.J.A.A.A.A.A.A.A.A.C.A.A.A.A.A.A.A.A.A.A.A.A.A.A.A.A.A.L.L.A.A.A.A.A.A.A.A.A.A.A.A.C.A.A.A.A.",
"A.H.A.A.A.A.A.A.A.A.A.A.A.A.A.H.H.H.I.P.H.A.A.A.A.A.A.A.A.A.A.A.A.C.A.A.C.A.A.A.A.C.A.F.A.A.A.A.A.A.A.A.A.A.A.A.A.A.A.B.A.A.A.A.",
"A.A.A.A.A.A.A.A.A.A.A.A.A.A.A.A.A.A.A.J.I.L.H.A.A.A.A.A.A.A.A.A.A.A.A.A.A.C.A.A.C.J.L.P.A.A.A.A.A.A.A.A.A.A.A.A.A.A.A.A.A.A.C.A.",
"A.A.A.A.A.A.A.A.A.A.A.A.A.H.A.A.A.A.A.A.A.H.L.L.J.F.A.A.A.A.A.A.A.A.A.A.A.J.J.J.L.L.J.C.A.A.A.A.A.A.A.A.A.A.A.A.A.A.A.A.A.A.C.C.",
"A.A.A.A.A.A.A.A.A.A.A.A.A.A.A.A.A.A.A.A.A.A.A.A.A.A.A.A.A.A.A.A.A.A.A.A.A.H.A.A.A.A.A.C.A.A.A.A.A.A.A.A.A.A.A.A.A.A.A.A.A.A.A.C.",
"A.A.A.A.A.A.A.A.A.A.A.A.A.A.A.A.A.A.A.A.A.A.A.A.A.A.A.A.A.A.A.A.A.A.A.A.H.A.H.A.A.A.A.A.A.A.A.A.A.A.A.A.A.A.A.A.A.A.A.A.A.A.A.A.",
"A.A.H.A.A.A.A.A.A.A.A.A.A.A.A.A.A.A.A.A.A.A.A.A.A.A.A.A.A.A.A.A.A.A.A.A.A.A.A.A.A.A.A.A.A.A.A.A.A.A.A.A.A.A.A.A.A.B.A.A.A.A.A.B.",
"A.A.A.A.A.A.A.A.A.A.A.A.A.A.A.A.A.A.A.A.A.A.A.A.A.A.A.A.A.A.A.A.A.A.A.A.A.A.A.A.A.A.A.A.A.A.A.A.A.A.A.A.A.A.A.A.A.A.A.A.A.A.A.A.",
"A.A.A.A.A.A.A.A.A.A.A.H.A.A.A.A.A.A.A.A.A.A.A.H.A.A.A.A.A.A.A.A.A.A.A.A.A.A.A.A.A.A.A.A.A.A.A.A.A.A.A.A.B.A.A.A.A.B.A.A.A.A.A.A.",
"A.A.A.A.A.A.A.A.A.A.A.A.A.A.A.A.A.A.A.A.A.A.A.A.A.A.A.A.A.A.A.A.A.A.A.A.A.A.A.A.A.A.A.A.A.A.A.A.A.A.A.A.A.A.A.A.A.A.A.A.A.A.A.A.",
"A.A.A.A.A.H.A.A.A.A.A.A.A.A.A.A.A.A.A.A.A.A.A.A.A.A.H.A.A.H.H.A.A.A.A.A.A.A.F.A.A.A.A.A.A.A.A.A.A.A.A.A.A.A.A.A.A.A.A.A.A.B.A.A.",
"A.A.A.A.A.A.H.A.A.A.A.A.A.A.A.A.A.A.A.A.A.A.A.A.A.A.A.A.A.A.A.A.A.A.H.A.A.A.A.A.A.A.A.A.A.A.A.A.A.A.A.A.A.A.A.A.A.A.A.B.A.A.A.A.",
"A.A.A.A.A.A.A.A.A.A.A.A.A.A.H.A.A.A.A.H.A.A.A.A.A.A.A.H.A.A.A.A.A.A.A.A.A.A.A.A.A.A.A.A.A.A.A.A.A.A.A.A.A.A.A.A.A.1.A.A.A.A.A.B."
};
